<?xml version="1.0" standalone="no"?>
<!DOCTYPE svg PUBLIC "-//W3C//DTD SVG 1.1//EN" "http://www.w3.org/Graphics/SVG/1.1/DTD/svg11.dtd" >
<svg>
<metadata>
Created by FontForge 20090622 at Wed May  1 18:34:59 2019
 By deploy user
Typeface &#194;&#169; (your company). 2008. All Rights Reserved
</metadata>
<defs>
<font id="logoskate" horiz-adv-x="1139" >
  <font-face 
    font-family="logoskate"
    font-weight="400"
    font-stretch="normal"
    units-per-em="2048"
    panose-1="2 0 0 0 0 0 0 0 0 0"
    ascent="1638"
    descent="-410"
    x-height="504"
    cap-height="1338"
    bbox="60 -8 2106 2166"
    underline-thickness="150"
    underline-position="-142"
    unicode-range="U+0020-U+F005"
  />
<missing-glyph horiz-adv-x="1144" 
d="M60 0v1280h1024v-1280h-1024zM92 32h960v1216h-960v-1216z" />
    <glyph glyph-name=".notdef" horiz-adv-x="1144" 
d="M60 0v1280h1024v-1280h-1024zM92 32h960v1216h-960v-1216z" />
    <glyph glyph-name=".null" horiz-adv-x="0" 
 />
    <glyph glyph-name="nonmarkingreturn" horiz-adv-x="569" 
 />
    <glyph glyph-name="space" unicode=" " horiz-adv-x="569" 
 />
    <glyph glyph-name="space" unicode="&#xa0;" horiz-adv-x="569" 
 />
    <glyph glyph-name="exclam" unicode="!" horiz-adv-x="569" 
 />
    <glyph glyph-name="quotedbl" unicode="&#x22;" horiz-adv-x="727" 
 />
    <glyph glyph-name="numbersign" unicode="#" 
 />
    <glyph glyph-name="dollar" unicode="$" 
 />
    <glyph glyph-name="percent" unicode="%" horiz-adv-x="1821" 
 />
    <glyph glyph-name="ampersand" unicode="&#x26;" horiz-adv-x="1366" 
 />
    <glyph glyph-name="quotesingle" unicode="'" horiz-adv-x="391" 
 />
    <glyph glyph-name="parenleft" unicode="(" horiz-adv-x="682" 
 />
    <glyph glyph-name="parenright" unicode=")" horiz-adv-x="682" 
 />
    <glyph glyph-name="asterisk" unicode="*" horiz-adv-x="797" 
 />
    <glyph glyph-name="plus" unicode="+" horiz-adv-x="1196" 
 />
    <glyph glyph-name="comma" unicode="," horiz-adv-x="569" 
 />
    <glyph glyph-name="hyphen" unicode="-" horiz-adv-x="682" 
 />
    <glyph glyph-name="hyphen" unicode="&#xad;" horiz-adv-x="682" 
 />
    <glyph glyph-name="period" unicode="." horiz-adv-x="569" 
 />
    <glyph glyph-name="slash" unicode="/" horiz-adv-x="569" 
 />
    <glyph glyph-name="zero" unicode="0" horiz-adv-x="2138" 
d="M88 1835h376q336 0 584 -168q291 168 571 168h403l28 -31v-489l-28 -30h-306l-28 30v153h-69q-255 -22 -279 -76q153 -190 153 -444v-76q0 -201 -153 -444q227 -61 348 -61v214l28 31h306l28 -31v-550l-28 -31h-264q-403 0 -710 168q-276 -168 -696 -168h-264l-28 31v550
l28 31h306l28 -31v-183l28 -31q108 0 320 61q-153 243 -153 444v91q0 210 153 444q-139 61 -279 61h-69v-612l-28 -30h-306l-28 30v948zM1048 1162q-69 -136 -69 -214v-61q0 -131 83 -199q70 105 70 199v61q0 117 -84 214zM1855 1177h28l28 -122l111 31h14v-16l-55 -91
l97 -92l-14 -15h-111l14 -138h-14l-84 76l-83 -76h-14v31l14 107h-98l-28 30q98 52 98 77l-56 91v16h14l111 -31z" />
    <glyph glyph-name="one" unicode="1" horiz-adv-x="2109" 
d="M811 1881q244 0 244 -453h18q57 418 300 418q269 0 432 -313q191 0 244 -383q0 -227 -488 -227v-17q328 0 450 -174v-140q0 -181 -319 -348q-153 -244 -394 -244q-262 0 -262 470h-19q-45 -435 -281 -435q-250 0 -432 296q-244 148 -244 296v122q0 209 432 209v17
q-358 0 -413 262q0 255 338 418q124 226 394 226zM773 575h19l619 -18l19 -17q56 77 56 157l-19 -18l-18 18h-226l-75 17l-56 -17l-19 17v18l169 609l-94 18h-93v-53h-38v18l19 17v18h-19q-38 -34 -244 -784z" />
    <glyph glyph-name="two" unicode="2" horiz-adv-x="1328" 
d="M93 1851h1125l50 -47v-1753l-50 -47h-1108l-50 47v1768zM126 1725v-1547q11 -95 50 -95h976l33 32v1625l-49 48h-944zM606 1709h99q100 -40 100 -126v-32q0 -126 -133 -126h-33q-132 0 -132 126v32q0 86 99 126zM738 1377q223 0 282 -426q21 0 33 -95l-99 -31l-100 300
h-16l-17 -142l99 -332q-99 -20 -99 -47v-426l-33 -32h-83l-33 32v426l-33 31l-16 -78v-411h-116l-33 32v426q0 31 -66 31l-17 16v16l99 347l-16 111h-17l-83 -284h-82l-33 31q113 505 281 505h198z" />
    <glyph glyph-name="three" unicode="3" horiz-adv-x="1534" 
d="M559 1851h44q86 0 158 -170l94 143l64 27h56q412 -163 442 -211q38 0 57 -476v-40q0 -96 -227 -327l-429 -489q-24 -20 -45 -20h-6q-46 0 -101 74v-210l6 -109q-8 -41 -19 -41h-6q-31 28 -31 82v271q0 96 -26 96h-6v-68l6 -102l-6 -7h-13q-25 11 -25 47v177l-423 483
q-63 67 -63 156q13 490 51 490q0 44 328 176zM237 1538l-25 -408q87 -112 555 -632l556 632v14l-26 394l-347 143q-108 -211 -177 -211h-12q-77 0 -164 191l-19 20zM464 1362q13 0 13 -21l6 -7h6q7 28 26 28q56 -16 56 -34v-62l-82 -88h-6l-82 88v62q0 20 63 34z" />
    <glyph glyph-name="four" unicode="4" horiz-adv-x="2126" 
d="M1390 1070h84q302 0 571 -144v-6q0 -12 -15 -12v-6q20 0 36 -30v-12l-42 -6l-15 6v-6l10 -18l-21 -12l-62 6l-5 -18q-51 0 -94 18l-10 -12h-5q-31 0 -104 42v-12h-5l-42 6v-6l5 -24l-5 -6h-5l-37 12l6 -6v-12l-11 -12h-26q0 -18 -10 -18l-47 18v-6l-5 -18l-57 24l5 -6
v-18q0 -12 -16 -12l-15 6v-30h-5l-26 6q0 -36 -11 -36l-26 18q0 -42 -15 -42l-21 6q0 -18 -21 -18l-31 12l5 -6q0 -12 26 -12l5 -6v-6l-15 -6v-6l36 -13v-12h-10v-12l46 -12h32q26 -13 26 -48h41q-57 46 -57 78q35 44 57 109h78q174 0 333 -199v-18l-37 -36v-18
q166 -62 193 -138l-6 -6h-5q-6 24 -83 30q52 -80 52 -138h-5q-84 132 -177 132q-145 49 -145 114l31 42q0 16 -63 36h-5q-34 -120 -41 -120l-16 -6l-104 12h-26q-29 0 -36 -42l-5 -6h-6l-93 18q-46 -36 -94 -42q0 -17 -20 -30l-37 12q-20 -36 -36 -36l-26 18l-47 -30l-36 30
q-19 -18 -37 -18h-21l-26 30l-31 -12q-29 33 -88 48l-26 24h-10l-89 -18l-26 48h-41l-99 -12q-37 0 -47 90q-15 22 -15 42q-68 -30 -68 -42l31 -42q0 -81 -213 -132q-48 -30 -104 -108h-5v12q0 48 47 114v6q-47 0 -89 -30l-5 6v6q43 76 192 132l6 6v6l-42 42v12
q85 134 244 187q69 24 120 24q73 0 73 -72q36 -29 36 -61q-41 -48 -57 -48v-12h26l21 36l52 18l5 -6h5l31 12v12h-10v12l31 12l-5 7v6q0 9 31 24v6h-5l-31 -12q-11 0 -11 18l-26 -6l-10 36l-37 -12l-5 36l-26 -6l-5 6v6l5 18h-5l-21 -6l-10 36l-47 -24l-5 24l-52 -18l-5 24
l-5 -6h-26l-6 6h-5l11 24h-6l-31 -6l-10 12v6l5 6v6h-5l-37 -6l-5 6v6q-47 -30 -119 -48l-11 12l-83 -12h-5v24l-62 -12l-16 6l5 30l-5 -6h-10q-39 0 -42 18q16 30 36 30l-15 24q277 144 530 144h125q176 -16 176 -96h16v6l-11 18l6 6h67l-5 6v12l68 -12v6l-6 6v6l6 6
q15 -12 62 -18v18h5l73 -54v12h5l16 -6v6q0 63 176 84zM658 1040v-6h20v6h-20zM1458 1040v-6h57v6h-57zM1349 1022v-6h21v6h-21zM387 1016v-6h21v6h-21zM1754 1016v-6l21 -6q0 12 -16 12h-5zM351 1010v-12l26 6v6h-26zM1411 968v-6h21v6h-21zM829 944l5 -30h6v24l-6 6h-5z
M107 914v-6h10l16 6v6h-11zM1370 920l10 -12h5l-10 12h-5zM1292 902v-18h5l5 18h-10zM185 890v-6h15v12zM1931 896v-6l21 -6h15v6l-31 6h-5zM1141 890l5 -30v-18h-10q0 30 -31 30l15 -60l-5 -6h-5q-5 26 -26 36h-11v-6l21 -30v-12h-5q-10 0 -10 18h-11l11 -36
q0 -33 -115 -48v-6l11 -12h62q20 0 57 30l5 -6v-6q-67 -60 -104 -60l-5 -6v-6q21 -12 21 -37h5v31l16 -19v-18q0 -12 -16 -12l-5 -6v-6q107 0 218 127l31 72l-15 -12l-5 6v6q10 0 15 36l-15 -12v36q-11 0 -11 -18h-10v42h-5q-11 -42 -21 -42l-5 6v6l5 6v6l-5 24h-11v-36
l-10 -12l-5 6v6l5 6v6q-10 32 -26 36zM1588 890v-6l15 -6h6v6l-16 6h-5zM1635 890v-6l26 -6v12h-26zM2009 890l-5 -18h15v12l16 -12h5v12l-26 6h-5zM434 866v-6h5l21 6v12zM1900 872v-6h20v6h-20zM1801 866v-6l26 -12h10v6q-15 0 -15 12h-21zM128 830h5l15 6v12h-5z
M1588 842v-18l31 -6v6zM1531 836v-12l46 -24h6v6q-17 0 -52 30zM1869 836v-6h26v6h-26zM1484 830v-12l26 -12h5v6q-26 0 -26 18h-5zM507 818v-6h16v12zM549 800v-6h5l41 18v6h-15zM632 818q0 -18 -26 -18v-6h15q0 15 21 18v6h-10zM1411 776q0 -14 26 -18v12zM1370 764v-6
l5 -6h10v6zM1390 764q8 -24 16 -24zM746 752q0 -12 -26 -12l-5 -18h5l31 30h-5zM1536 722v-6h26v-12q0 -12 -16 -12v-12h26q-5 42 -15 42h-21zM559 716v-6q31 0 31 -12l-5 -24q21 -9 21 -18l-6 -25h26l-15 67l5 6l-16 12h-41zM756 710v-6h16l5 6v6zM517 704l11 -36h-11l-5 6
h-5v-6l16 -24v-31l26 -12q10 24 25 24v19h-5l-15 -7v7q1 24 10 24q0 18 -21 18v24zM1609 710l5 -6v-6q0 -12 -21 -12v-12l26 -6h5l-5 30l5 6v6h-15zM419 668l10 -12v-6l-5 -6q0 -19 21 -19v-30q0 -12 26 -12v-12q-6 -18 -32 -18h-10l-26 24h-10v-12q0 -12 26 -12v-18
l-32 -18q-8 0 -15 36l-21 6l-10 -18l36 -24l-26 -24h-21l5 6v12l-15 18q0 -18 -11 -18q6 -24 21 -24v-12l-31 -30l-5 6h-5v-6l5 -6v-6l-5 -18v-12h5q0 30 47 60q75 75 202 114l11 12v6l-47 -18l-10 12l10 18q0 18 -21 18v19l5 6v6l-5 6h-5l-16 -12l-20 24q14 15 57 24v6h-5
q-78 -27 -78 -36zM871 698v-12q24 0 36 -12h5v6q-15 0 -15 18l-5 6h-6zM923 704v-12h10v-6l-5 -6v-6q16 0 57 -43h5zM1661 698v-6l36 -12q0 -32 -16 -36h-5q-10 0 -10 18l-5 6h-16l16 -24l-16 -19l-16 6v-24h16l16 12l10 -12q-10 -27 -21 -30l-62 18v18q0 12 15 12l6 6v6
l-11 13h-21v-43q-103 6 -103 18l-6 -18l-15 6v-6l15 -18v12h6q179 0 353 -168h5l-5 6v6l5 6v6q-15 0 -15 18q-30 0 -52 42q1 30 10 30l-5 6v12q0 12 21 12q0 18 10 18h21l31 -36l-5 -24v-6h5q0 18 16 18q-15 46 -125 115h-5l41 -43v-18q0 -24 -36 -24l5 -6v-6l-5 -18l10 -12
v-6l-10 -12l-31 30l10 18v18l-10 12l-11 -18l5 -18l-5 -6h-5q-27 0 -31 18v6q0 12 21 12v12h5l-5 6v12q0 12 15 12l5 6v7l-5 24l11 12l-47 18h-5zM247 535l5 -6v-6h-10v-6h5q8 0 31 48q28 30 47 30v-12h-10v-18h5l26 12v-12h5l5 24l-5 6h-5l-5 -6h-6l-5 6v12q0 16 42 24
l36 -30v30h-21v13l11 18h-5q-61 -32 -146 -127zM1500 662l-6 -18v-13h6q0 19 10 19v12h-10zM1531 662l-5 -31l5 -6q24 8 26 25zM1728 631l-5 -6v-12l31 -12l5 6v6zM658 589v-6l20 24v6zM574 595v-6h6l41 6q0 12 -15 12zM1084 589v-6q10 0 10 -18h5q0 24 32 24q26 -13 26 -48
h5l10 12l-10 18l10 12q47 0 47 -42l-5 -6h10v6l-5 30l15 6v6l-119 12zM762 547v-6h5l21 6l10 -12l-5 -18v-6h5q0 42 21 42l62 12v-12h5q0 18 21 18v6h-21q-77 -10 -124 -30zM1245 577v-6q109 -9 109 -54v-12h5l11 24v12q0 22 -110 36h-15zM1027 571q0 -24 -21 -24
q7 -36 21 -36h5v6h-11v18l11 24v12h-5zM1806 571v-6l5 -24l-20 -18v-12h10l5 -6l11 12v6l-6 18h6l15 18zM985 559v-18l21 12v12zM1120 565l-5 -6v-6l5 -30l-10 -12l5 -18h5l11 12v6l-6 24l6 24l-6 6h-5zM1541 565l-5 -6v-6h5l-5 -6v-12q24 0 73 -66v6q-25 48 -47 48v12l5 6
v6zM1053 559v-12l20 6v6h-20zM590 541l-31 6l-5 -6q-16 0 -16 -36h-15l5 -6l-11 -30l94 84h-5zM938 553v-18h16v-12q0 -12 -16 -12l16 -48h10v30l-5 42l5 6l-21 12h-5zM892 541v-6h25v12zM1245 535v-6l26 6l-11 12h-5zM1390 547v-6l11 -12v6zM824 523v-6h21l5 18l-5 6h-5z
M1286 541v-24h6l5 24h-11zM1484 523l26 -6l-16 18zM1879 535v-6l10 -12v6zM621 523v-6h21l5 6v6h-5zM1318 529q0 -28 -11 -42v-12h11l10 12l-5 18l10 12l-10 12h-5zM767 517q0 -24 -11 -24l-5 6h-5v-12q25 0 31 -48q0 -16 -36 -24v-6h10q31 10 31 42v18q-15 0 -15 12l5 30v6
h-5zM1053 517v-18h15v18h-15zM1151 517l-5 -24q8 0 16 24h-11zM574 433v-6h26l21 6l21 -6h31l-57 60v24q-10 0 -10 -36q-13 0 -32 -42zM819 511l-5 -6v-12l26 -18h5v24zM902 511v-6l5 -24h16v30l-6 -6h-5l-5 6h-5zM990 511v-18h16v18h-16zM1177 511v-12h-5l5 -30h6
q10 0 15 36h-5zM1271 511v-12l5 -18h10v12zM1510 511q0 -31 -57 -66v-12l36 6v-6l5 6h6l26 -6l5 6v6l-16 18v12l5 30l-5 6h-5zM871 499l-5 -18l5 -6v-12l-11 -18h6l36 6v6h-16v30l-10 12h-5zM1827 493v-18l10 12v6h-10zM1073 481v-6h26l-10 12zM1349 481v-12l5 6h5
q11 0 11 -18h5v18l-11 12zM320 415h5q47 48 78 48v6h-16q-25 -5 -67 -54zM1224 463v-6l120 -24v30l-37 -18q-57 12 -57 24zM1739 469v-6q15 0 41 -24h5v6l-36 24h-10zM808 463v-6q11 0 11 -18h10q-8 24 -15 24h-6zM1858 451l-10 -60l5 6h10l6 -30l5 6h5l26 -6l5 6l10 -12h6
v6q-16 0 -16 18l5 6h11l5 -6h5v12q16 0 16 12zM180 391v-12l20 -6l31 12h11q10 0 10 -24h11l26 -6q63 0 119 66l-109 -48q-31 0 -31 72q-77 -35 -83 -48zM834 445v-6h21v6h-21zM1203 445l11 -30h10l5 30h-26zM892 439v-18l10 -12l15 30h-25zM1702 439v-6q77 -72 146 -72v12
l-11 12h-15l-31 12l-11 -12q-1 13 -52 36l-21 18h-5zM1567 433v-6h26v6h-26zM533 427v-6h36v6h-36zM1354 427v-6q47 0 47 -24h10v12l-10 12h-11l-31 6h-5zM1266 409h26v12h-16zM788 403v-6l83 6v6l-21 6zM1234 373v-6h26l16 6v6h-5zM845 373v-6l31 -6h5v6l-26 6h-10z
M969 355v-24l6 -18h10q-10 14 -10 42h-6zM907 349v-12l5 -6h21v6q-21 0 -21 12h-5zM1016 349v-24h5v24h-5zM1151 331v-6l11 12v6zM1084 331q0 -12 -21 -12v-12h5l26 12v12h-10z" />
    <glyph glyph-name="five" unicode="5" horiz-adv-x="1729" 
d="M481 1839h6l381 -373l374 373h6l414 -413v-7l-307 -313l314 -321l-421 -420l-387 380l-374 -373h-6l-414 413v7l307 314l-307 313v7zM681 1126v-40q33 -167 167 -167h20q187 24 187 187q0 161 -194 186q-145 0 -180 -166zM848 1266l6 -7v-60h-40v7q0 33 34 60zM888 1266
q27 -36 27 -60v-7h-40v53zM794 1252l7 -6l-20 -27h-13v13zM935 1252l26 -20v-13h-13q-10 0 -20 27zM748 1206l26 -20q-8 -67 -26 -67h-40v7q8 80 40 80zM995 1206l33 -80l-7 -7h-40q-15 0 -26 73zM808 1179q46 -7 46 -20v-27l-13 -13h-53v7q0 49 20 53zM928 1179l13 -40v-20
h-66v40q0 16 53 20zM721 1092h27q16 0 26 -73l-20 -13h-13q-17 0 -33 66v7zM841 1092l13 -13v-27q-6 -20 -40 -20h-20l-6 54l6 6h47zM888 1092h53v-26l-13 -40q-53 16 -53 26v27zM981 1092h34l6 -6h7q-9 -51 -40 -87l-33 20q13 73 26 73zM841 1012l13 -13v-40l-13 -13
q-27 35 -27 60l7 6h20zM888 1012h13l20 -13q-24 -50 -40 -53l-6 6v47zM781 992l20 -26l-7 -7q-26 10 -26 20zM955 992l6 -6v-7l-26 -20v13zM220 345q134 -22 134 -113q-30 -13 -87 -13h-20q0 19 -27 33q-33 0 -40 -100q10 -73 34 -73h6q14 3 27 33q-47 0 -47 13v60l14 14
h133l13 -14v-166l-13 -14h-53l-20 14q-28 -27 -67 -27h-13q-119 0 -134 160v27q0 166 160 166zM1535 345h14q84 0 120 -46v-7q-45 -53 -67 -53q-34 20 -67 20l-20 -7v-7q0 -11 101 -33q53 -38 53 -73v-47q0 -86 -154 -100q-72 0 -133 53h-7v-40h-233l-14 14v306l14 14h220
l13 -14v-66l-13 -14h-114v-26h87l14 -14v-66l-14 -14h-87v-20l14 -13h100q13 0 13 -33h7q46 46 73 46l74 -26l20 6v7q0 13 -107 40q-53 38 -53 73v40q0 86 146 100zM481 339h106q17 -8 121 -327l-7 -7h-100q-20 0 -27 54h-87q0 -49 -20 -54h-87v7q76 299 101 327zM741 339
h120q19 0 47 -120h7q18 120 40 120h120l13 -14v-306l-13 -14h-87l-13 14v133h-7q-26 -136 -47 -147h-53q-17 0 -47 154h-7v-140l-13 -14h-60l-13 14v306zM521 205l-7 -60h27l-14 60h-6z" />
    <glyph glyph-name="six" unicode="6" horiz-adv-x="2121" 
d="M488 1531q273 0 273 -181v-72q-87 -126 -171 -126v-18q21 -181 69 -181q37 253 188 253q70 -25 102 -90v-91q0 -160 -205 -198q0 -29 325 -126l34 126q-154 0 -154 54l52 253l-17 18l119 36l17 -18v-18l-51 -217h34q33 0 86 199l119 36h18q-103 -321 -103 -524
q167 -72 325 -72q234 0 479 181h34q-213 -343 -599 -343h-68l-274 36v-18q-119 -235 -410 -235h-86q-513 129 -513 397q0 103 103 235q-154 0 -154 180q46 120 103 145h51l51 -54v-36l-51 -55l-51 37h-17l-18 -55l52 -54v-18q79 0 205 397q79 109 171 109v-18
q-103 -141 -103 -199h17q171 0 171 144v19q0 62 -188 108q-171 -31 -171 -72l35 -36v-19q0 -36 -52 -36q-68 18 -68 73q47 144 291 144zM1856 1531h34q51 0 51 -72q0 -164 -205 -506v-18l17 -18l120 72l17 -18v-18l-171 -144h-34l-69 54q-17 -54 -102 -54h-34l-52 36
l-102 -36l-52 72q0 173 154 289h103l68 -72l-51 -181h34q40 0 188 524zM1753 1080q120 173 120 307v18q-48 0 -120 -325zM436 1152q-32 -196 -119 -289h17l51 18l222 -36q-137 120 -137 253v54h-34zM761 935l17 -18h17q52 69 52 163v54q-60 0 -86 -199zM1394 935v-18h34
l69 145l-35 36q-68 -25 -68 -163zM214 592q147 -271 479 -271q178 0 291 163v18q-373 253 -616 253h-34q-120 0 -120 -163z" />
    <glyph glyph-name="seven" unicode="7" horiz-adv-x="1990" 
d="M1660 1096l37 -62v-9q-7 -35 -135 -88l-202 -256q558 -114 558 -142q0 -26 12 -26v-35q0 -34 -270 -89q-24 0 -24 44q-25 0 -25 36q0 44 61 44v18l-36 8q0 -26 -19 -26l-300 71l-12 -18q-13 0 -13 26h-6v-8q31 -151 55 -151l135 36l37 -71q0 -57 -257 -106
q-42 -26 -105 -26l-36 70v9h-7q0 -22 -165 -53h-6l-19 27l13 17q-31 0 -31 27q-67 0 -98 -62q-78 -7 -160 -80l-159 -35l-12 27l18 8v9q-43 0 -43 18q0 21 68 53v18l-105 265h-6l-73 -36l-6 9v-9q52 -185 104 -185q43 0 43 -36q18 0 18 -17q-51 -59 -208 -97l-25 26l12 18
q-30 0 -30 17v9q0 19 67 53l6 9v9l-61 194q0 -24 -147 -44h-18v18q0 17 18 17v9h-6l-6 -9h-6q-25 14 -25 27v9q0 28 166 70l18 27h24l13 -18q73 16 73 27l-61 150q-23 -27 -55 -27h-12l-19 27l12 18q-36 0 -36 17v9q0 33 233 80h6q12 0 12 -45q18 0 18 -17q0 -13 -67 -71
l-6 -26l43 -106l24 8q13 0 43 -61v-9l-12 -18h-12v27h-13v-9q0 -27 25 -27l116 27l-49 168l-43 -9l-24 26l12 18q-37 0 -37 26q0 48 221 71q12 0 12 -35q19 0 19 -18v-18q0 -26 -68 -44l-12 -35q-12 0 -12 26h-6v-8q38 -159 55 -159q25 0 37 -45h12v-8l-12 -62h-13v17h-6v-8
q32 -133 68 -133v9q0 29 49 53l-55 274h-7q0 -36 -18 -36h-6q-32 0 -37 27l19 9v9q-37 0 -37 17v18q0 26 190 62l12 -27l-12 -26l12 -18v-9l-43 -62l-6 9v-9l6 -35h6v18h13l6 -53h-13v-27l7 9h12l6 -53h-12v-18h12v-8l-6 -9v-9l24 -53l31 9h24l19 -27v-9q0 -21 -55 -26v-9
l18 -9q39 14 49 36l-92 335v27l12 17h19l184 -194v9l-80 247l-110 -35l-25 26l6 9v9q-30 0 -30 27v8q0 50 282 106q12 0 12 -44q138 53 178 53l30 -70q0 -24 -85 -62l-7 -9v-9l7 -79h-13q15 -80 25 -80l184 239v26h-12v-18q-37 18 -37 36v17q0 43 257 80zM961 902v-9l25 -9
v9l-6 9h-19zM1139 902l12 -27l-6 -9h-18l-19 18q-36 -6 -36 -18q93 -320 141 -433v-8l-13 -18q-67 0 -153 132q-18 0 -18 18h-13q0 -35 -18 -35l-12 44l18 9v9l-30 26q35 -177 67 -177l55 9h6q13 0 13 -44l18 18h12q-10 -36 -24 -36v-8h6l116 44v26q-69 402 -98 460h-6z
M508 831v-9l18 -9v18h-18zM802 769v-9h6l18 9v9h-6zM1335 716l-6 -9v-17h25zM311 601v-26h7l6 26h-13zM673 584v-36h6v36h-6zM495 531v-9q82 -194 98 -203h13q0 48 49 53v17l-43 168z" />
    <glyph glyph-name="eight" unicode="8" horiz-adv-x="2099" 
d="M1066 1467h51q244 0 508 -140q169 -84 363 -150q51 -38 51 -77q0 -103 -170 -238v-60q0 -121 -190 -182l-48 -3h-16q-55 0 -77 59q0 22 -29 25q-208 -56 -360 -56l-13 -4v4l-3 -4h-48q-170 0 -283 21q-24 0 -32 -73q-48 -63 -151 -63q-102 0 -154 70l-3 14v63
q0 45 -84 45h-119q-34 0 -64 77q-122 212 -135 252q10 88 39 88q121 0 465 203q263 129 502 129zM760 1159q-4 1 -54 161q-7 32 -20 32q-45 -6 -45 -11q81 -250 90 -262q78 0 78 17q27 224 38 224q419 42 456 53l4 3v4q-4 35 -10 35q-491 -49 -505 -56q-24 -200 -32 -200z
M1178 1278v-7q0 -59 100 -59l6 -18q-7 -21 -26 -21h-9l-45 14q-20 -31 -20 -42h4q34 -21 67 -21q67 0 77 70q0 63 -83 63l-20 14v11q6 14 23 14h13l32 -11q16 18 16 32v7q-40 14 -58 14q-77 -10 -77 -60zM1107 1310l4 -77l-4 -4h-3l-48 77q-51 -6 -51 -10q7 -177 19 -182h22
l16 3l-3 70v14q10 -5 55 -77h22q32 0 32 7l-16 182h-29zM837 1093h23q26 0 26 24q0 21 32 21h22q8 0 16 -31h16l33 3q-46 145 -68 182h-3q-68 0 -68 -21zM902 1226h6q16 -16 16 -39l-3 -3h-16l-6 7zM1869 1191q-20 -54 -20 -70l29 -7v3l20 67l-26 7h-3zM1917 1177
q-23 -49 -23 -70l29 -7q20 53 20 70zM1779 1166l19 -220l93 59v18q0 25 -9 31l-36 -17q-9 33 -16 129l-3 4h-16zM1679 1152l19 -262q51 15 84 49v21l-3 17l-26 -7q-10 0 -22 186l-10 3zM1544 1138l-6 -322l48 18q0 59 16 59l19 7h4q7 0 16 -38h6q16 0 39 21q-55 253 -65 266
zM1464 1128l-3 -95v-52l-7 -7h-3q-26 150 -38 150h-4q-45 -2 -45 -10l-6 -172h-7l-32 172l-61 -11l81 -343q64 0 64 28l6 112h7l29 -115q64 14 64 31l3 242v77h-6q-28 0 -42 -7zM1101 1089q30 -353 38 -353l110 7v7h3l-7 38h-51q-16 8 -16 95l45 10l-3 4v24l-3 25h-39
q-11 0 -16 94l58 18v3q-3 39 -10 39zM1014 1079l10 -147l-36 -7q-19 0 -19 98q-6 49 -13 49h-6l-39 -4q22 -322 32 -322l49 -7l3 4l-10 119l39 7q8 -6 22 -130l20 -3h25l3 3h4q-30 347 -36 347h-3zM1066 708q-96 0 -723 70h-65q-9 0 -12 -28l9 -7q205 0 607 -67
q53 -9 216 -14q469 0 854 319q61 62 61 87l-3 11h-3q-395 -371 -941 -371zM748 1047l-4 -3v-4l4 -38h41q11 0 32 -249h4l45 -3l-23 255q7 8 48 11v7l-3 42q-105 -7 -144 -18zM237 1019q24 -54 32 -56q22 9 22 21l-29 56q-25 -10 -25 -21zM580 1026q13 -238 29 -238l45 -3v3
l-6 91v4q0 8 45 14q-3 49 -10 49l-35 -4q-10 14 -10 42q11 7 55 11v38l-7 7h-6q-61 0 -100 -14zM1596 1040h6l13 -80l-10 -7h-6l-7 7v63zM449 1016l19 -210l32 -4h23l-7 67q13 10 45 10v35q0 18 -6 18l-29 -4q-16 5 -16 25v14q0 7 25 7l23 3l6 7q-2 42 -9 42zM195 1002
l29 -63l26 10v7q0 11 -26 60zM291 921q0 -88 52 -115l25 -7q74 0 74 105q0 91 -70 112h-16q-51 0 -65 -95zM356 963q32 0 32 -84q-6 -28 -13 -28h-13q-19 12 -19 70v7q4 35 13 35zM1923 855q32 -5 32 -35q-4 -35 -32 -35q-32 7 -32 35q8 35 32 35zM1901 820v-11
q2 -10 22 -17q17 0 26 28q-6 22 -16 24h-10q-22 0 -22 -24zM1920 841q19 -2 19 -11v-7l-6 -10l3 -14l-16 17v-14h-10v28zM1917 830l6 -7l10 4v3h-16zM1583 673q16 -18 29 -18q55 78 80 84q18 18 61 25h29l35 -7h10l3 17v4q0 17 -16 24h-45q-93 0 -186 -119v-10zM1660 662
q0 -7 22 -14q57 0 106 67v14q-5 14 -22 14h-7q-68 0 -99 -70v-11zM487 645l7 -7q43 14 86 14h7q78 0 148 -63h3l6 21v17q-60 63 -154 63h-29q-74 0 -74 -35v-10zM529 596q25 -39 77 -39h19q58 0 58 32q0 21 -83 38q-71 0 -71 -31z" />
    <glyph glyph-name="nine" unicode="9" horiz-adv-x="2140" 
d="M1013 1861v-2l2 2h77q386 0 691 -262q128 -127 150 -177q147 -225 147 -481v-68l-2 -2l2 -2q-12 -136 -41 -226q-92 -269 -338 -436q-148 -93 -281 -137q-230 -70 -305 -70h-90q-198 21 -332 75q-99 33 -232 112q-197 136 -279 281q-41 57 -85 184q-36 144 -37 213h2
l-2 2v96l2 2l-2 2q0 75 41 228q101 298 360 483q118 78 226 117q118 47 302 64zM1113 1778q-68 0 -135 -24h-2q-10 0 -30 15q0 -34 -21 -34l-79 19q-5 0 -8 -12l8 -28v-8q-6 -9 -16 -9l-41 11h-8l-6 -5v-6q5 -9 16 -9h2l12 1q11 0 17 -15q-4 -7 -7 -49l-6 -3q-56 26 -112 26
q24 -34 59 -34q38 -7 64 -32v-2q18 0 26 74l4 3q6 0 35 -35q11 -8 20 -8q-6 9 -10 34h2l-2 2q0 53 73 77h10q39 0 53 -36v-2q-21 -34 -51 -34h-12q-26 0 -26 21q0 14 47 19l2 2v4h-2l-11 -2v2q-42 0 -42 -25q0 -22 42 -47q15 -13 15 -23h2q42 76 61 102h6q0 -10 112 -19
l10 -7q-5 0 -47 -42h-2l-55 23l2 -9v-6q0 -11 -32 -32l-6 -10v-1l71 13h6l6 -6q-30 -28 -49 -68q-50 29 -106 29l-2 1l-2 -1h-22q-21 0 -45 -10v-2q214 -31 356 -71q395 -109 711 -345v1q-5 66 -53 164q-46 81 -100 153q0 -15 -102 -32q13 -12 13 -21q0 -7 -37 -47l-8 -21
q-47 31 -47 55q12 0 18 30v12l-8 2q-18 0 -18 -34q-7 -12 -10 -12q-22 15 -78 34v4q3 6 37 19v4q-42 -14 -75 -14q-80 8 -80 48v5q0 11 31 62v4q-18 12 -33 12q-41 0 -41 -17l-30 -65h-2q-4 9 -69 21l-6 6q0 10 34 32q51 17 51 39q-3 10 -14 10l-27 -2l-6 8q14 0 31 39l6 4
q9 0 98 -36l40 -7l2 1l15 -1q0 -9 -27 -31v-5q0 -6 8 -6q33 19 61 19q80 -14 80 -83l-2 -13v-2h2q0 6 51 51q69 -44 112 -44q-99 98 -153 127q-95 63 -212 109q-151 51 -254 51v2l-2 -2l-21 2l-24 -2v2zM1243 1671q49 0 75 -32q0 -35 -53 -44h-8q-29 0 -40 17v6q0 22 42 22
q0 3 -14 8q-51 -14 -51 -38q0 -26 43 -30l24 -4q0 -10 -26 -41q-2 -10 -8 -10q-102 7 -102 49q0 67 92 93zM1502 1503v-2q0 -6 26 -10h6q51 4 51 23q0 23 -30 26h-9q-44 -8 -44 -37zM392 1458l6 -2l2 2l8 -2l230 2q129 0 182 -44v-2l-174 10v2l-2 -2l-20 2h-92l-14 -2v2
l-6 -2q-64 0 -142 -23v-2h6l156 11q50 0 76 -20v-2q-165 0 -234 -32v-2h75l12 2l2 -2l10 2h47q69 -3 69 -12q-38 -7 -199 -20q-27 -6 -61 -19v-2h20q53 0 67 -17v-4h-2q-80 0 -140 -20v-2q30 0 30 -19q-56 -15 -81 -49q-43 -64 -43 -153q4 -11 31 -40v-5q-11 -13 -19 -13v-2
q47 0 63 -23v-2l-4 -4l-30 4q-12 -2 -12 -9q18 -7 77 -15q19 -8 27 -19v-2q-43 9 -66 9h-8l-2 2q-39 0 -39 -28h11q142 -3 142 -23v-3h-2q-19 9 -51 9q-60 -3 -67 -17v-2h2q70 0 301 -32q68 -15 121 -34v-4q-226 38 -306 38q-103 0 -148 -45q98 0 423 -49q245 -47 434 -111
q291 -109 415 -202q143 -114 179 -127q46 26 151 144q208 254 208 439h2l-2 2v26q0 137 -118 215q-136 101 -300 174q-169 77 -417 145q-276 57 -361 57q-78 9 -197 15v2l-2 -2l-10 2h-55q-110 0 -159 -49zM1675 1467l10 -2l8 2v-2l2 2h18l3 -2l2 2h4l2 -2l6 2v2
q0 14 -19 15q-19 0 -36 -17zM1139 1384v-2l2 2q74 0 198 -49q252 -131 252 -339q0 -127 -99 -236q-120 -111 -296 -111h-6q-210 0 -362 139q-108 109 -108 247v10q0 248 277 324q62 15 142 15zM811 1046q0 -166 169 -284q96 -55 212 -55q169 0 283 123q51 70 51 160v9
q0 187 -218 289q-84 34 -177 34h-4q-153 0 -255 -104q-61 -70 -61 -172zM1099 1244q108 0 240 -92q46 -41 51 -85l6 -45h-2l2 -2q0 -104 -137 -149q-30 -7 -85 -11l-2 2h-2l-2 -2q-108 0 -181 64q-27 33 -27 60v13q0 31 18 31q23 13 47 13q11 0 33 -13q10 -1 10 -6v-2
q0 -7 -22 -32l-7 -13q26 -55 84 -55h24q60 0 98 57l4 17q-148 30 -191 47q-67 33 -67 90v10q0 72 63 96q15 6 45 7zM1117 1114v-2q0 -41 83 -56h27q45 0 45 17v19l2 2q0 42 -53 69q-22 6 -43 6q-36 0 -55 -30q-6 -9 -6 -25zM972 881q76 -33 230 -85q-11 -30 -42 -30h-13
q-58 0 -183 81v5l8 23v6zM536 617l17 -53q-4 -12 -10 -13q-55 60 -88 60l-4 -6v-7q16 -33 16 -40v-2q0 -10 -10 -15h-4q-24 0 -31 34q-8 19 -24 19h-8v-2q0 -14 16 -45v-8q-4 -17 -10 -17h-2q-10 0 -29 17h-2l-2 -9v-2q0 -21 74 -26q22 -10 22 -25v-2l-18 -21q-19 19 -35 19
t-16 -11v-2q0 -18 43 -24l6 -8q-13 -12 -13 -21v-5q0 -11 35 -68q4 -8 4 -21l-6 -17q91 -83 175 -117q198 -83 418 -83v-2l2 2h2l2 -2l2 2h2l2 -2l2 2l10 -2h41l8 2l2 -2h2l8 2v-2l6 2q240 0 377 102l20 19q-88 96 -156 141q-137 92 -263 142q-146 52 -271 81
q-87 19 -232 39q-9 0 -18 -26l-11 -2h-4q-4 0 -8 17h2q-1 19 -16 19h-18q-7 -2 -7 -11z" />
    <glyph glyph-name="colon" unicode=":" horiz-adv-x="569" 
 />
    <glyph glyph-name="semicolon" unicode=";" horiz-adv-x="569" 
 />
    <glyph glyph-name="semicolon" unicode="&#x37e;" horiz-adv-x="569" 
 />
    <glyph glyph-name="less" unicode="&#x3c;" horiz-adv-x="1196" 
 />
    <glyph glyph-name="equal" unicode="=" horiz-adv-x="1196" 
 />
    <glyph glyph-name="greater" unicode="&#x3e;" horiz-adv-x="1196" 
 />
    <glyph glyph-name="question" unicode="?" 
 />
    <glyph glyph-name="at" unicode="@" horiz-adv-x="2079" 
 />
    <glyph glyph-name="A" unicode="A" horiz-adv-x="1605" 
d="M319 1833h30q273 0 471 -257q29 -31 66 -84q15 24 15 61v8l2 1l-2 2v3q0 50 -53 160q-23 57 -23 85l2 2h2q187 -83 262 -134q94 -65 127 -124l16 -26q42 76 90 128q51 39 87 41v-2q-28 -70 -28 -103l1 -9l-1 -8q0 -70 94 -200q55 -84 55 -170l-2 -7l2 -1q0 -17 -34 -178
q-4 -29 -4 -59q0 -52 36 -188q15 -64 15 -126v-9l-2 -2l2 -1q-11 -116 -41 -196q-41 -112 -143 -223q-106 -96 -160 -118q-50 -31 -156 -64q-127 -29 -184 -29v2l-2 -2h-39q-312 0 -539 210q-126 113 -178 303q-13 49 -18 120h1l-1 1v40l1 1l-1 2l1 7l17 203h2l-2 1l2 8v50
q0 87 -40 231q-5 34 -5 58v15q0 238 206 367l2 -3q0 -180 106 -242h2v20q0 57 35 228l4 41h1l-1 2l1 11v10l-1 7h1l-1 2v4q0 90 -96 127v3zM495 1724q11 -33 11 -59v-24q0 -34 -37 -179q-7 -31 -7 -55v-2l-1 -1l1 -1v-7l-1 -1l1 -1v-4l-1 -2l1 -4q0 -43 25 -90q-5 -2 -45 -6
v2l-1 -2h-15l-2 2l-1 -2q-89 0 -163 72q-43 56 -54 97q-65 -104 -65 -231l2 -6h-2q0 -24 55 -230q10 -53 10 -100v-8q0 -43 -22 -161l2 -2l-2 -7v-48h-1l1 -2v-2l-1 -1l1 -5q0 -177 135 -339q79 -83 117 -102q181 -119 393 -119q269 0 459 189q157 183 157 368v21
q0 54 -27 210q-5 21 -7 75q0 50 34 203q4 10 6 42q0 99 -112 233l-29 48h-1q0 -49 -27 -135q-11 -30 -41 -60q-15 98 -32 138q-66 163 -244 254h-1q18 -61 18 -113q0 -119 -72 -200q-29 -23 -42 -28q-35 103 -103 193q-128 147 -270 192zM1188 984h28l3 -3q-44 -23 -55 -23
v-17q0 -123 -99 -164q-28 -9 -40 -9q-28 26 -92 26q-49 6 -68 19q-16 17 -19 30l2 2q31 -7 49 -7q79 0 160 88q66 58 131 58zM489 925q49 0 145 -69q75 -45 127 -45l1 2h3l9 -2l10 2h5l4 -5v-12q0 -31 -76 -31q-24 0 -73 -32q-12 -5 -21 -5q-82 0 -131 102q-15 54 -26 54
q0 9 -66 16q0 9 66 25h23zM1012 813l25 -4q60 0 79 66v7q0 11 -6 25q-12 -17 -79 -67q-11 -12 -19 -27zM515 856q36 -86 101 -86l28 3v1q-96 82 -129 82zM254 781q92 -93 135 -117q124 -88 304 -118q42 -6 68 -6v-2l1 2l8 -2h33q317 0 578 241h2l3 -3v-12q0 -54 -28 -87
q0 -174 -113 -322q-162 -185 -424 -185q-257 0 -436 190q-111 133 -111 272q0 29 -32 102l-1 17q0 19 13 30zM1254 607q0 -9 46 -54h3q7 22 7 39q0 33 -15 48q-6 -6 -35 -19q-6 -9 -6 -14zM315 634l2 -4l-2 -35q0 -11 10 -17h5q19 25 19 38v6q-24 12 -30 12h-4zM355 595
q-19 -22 -19 -49v-8l-2 -1q0 -41 34 -54h2v0l-2 22h2l-2 1l3 46h2l-2 1v19q-2 23 -16 23zM1234 583q20 -51 20 -119h2q14 0 28 30l2 17l-1 2v9l1 1q-10 62 -42 62h-2q-8 0 -8 -2zM391 584q-12 -24 -12 -50v-14q0 -42 19 -86h2q15 39 59 104v3q-41 42 -66 42zM1163 563v-2
q0 -41 55 -95l16 -26q5 19 5 33v10l2 2l-2 2v3l2 1q0 35 -27 92l-2 1h-8q-8 0 -31 -12q-10 0 -10 -9zM971 500q15 -50 130 -187q23 102 23 142q0 53 -16 83q-104 -13 -137 -38zM1136 532v-2l1 -7l-1 -1l1 -8v-8l-6 -141h-2l2 -1l-2 -8v-32q20 0 52 23q26 29 26 72
q0 64 -55 106zM466 526q-57 -83 -60 -128l78 -75q24 -21 52 -25l6 2q-37 45 -50 132q-13 62 -24 94h-2zM508 520q-8 -26 -8 -50v-14q0 -95 66 -165l15 -10h2q0 65 61 143q22 43 22 63q0 2 -48 12q-59 21 -110 21zM835 488q-29 0 -99 -12v-20q0 -100 102 -231v-2q3 2 51 110
q22 63 22 103v13l-1 34l-44 7l-1 -2h-2l-2 2l-2 -2l-8 2h-3l-8 -2v2l-2 -2h-3zM936 476q0 -41 -52 -181q-10 -32 -10 -63v-10q25 -1 25 -3l2 2h11q86 0 155 59v6q0 101 -131 190zM600 286q4 -33 10 -33q97 -36 144 -36h13l38 5l-110 246h-1q-94 -91 -94 -182z" />
    <glyph glyph-name="B" unicode="B" horiz-adv-x="2104" 
d="M951 1518h3q2 0 2 -4l33 3v-1l1 1h1l95 1v-1l1 1l9 -1h14l101 -1v-2l1 2l14 -2l66 -1v-1l1 1l66 -2l2 -2h1l1 2l6 -2h19l3 -2q-14 -18 -73 -75q-16 -22 -18 -30q24 3 68 48q43 47 62 47l1 -1v-409q0 -4 -4 -4q-18 0 -77 52q-32 21 -50 22v-1q31 -66 109 -110v-2
q-35 -9 -112 -9h-53q-20 0 -50 -6v-1q30 -36 62 -50q45 -25 70 -50q19 0 69 53q36 41 98 91q34 30 44 30h3q29 -2 116 -108q21 -22 28 -22q31 0 87 79q36 46 56 46q18 0 112 -93q105 -69 105 -97q0 -20 -38 -81q-21 -28 -21 -106v-5q0 -123 51 -236q-10 -26 -111 -131
q-2 0 -60 -60h-184l-1 -43v-35l1 -25h-1l1 -1v-30l2 -6h-2l2 -1v-20l1 -6h-1l1 -1v-19l1 -6h-1l1 -1v-16l1 -6h-1l1 -2v-16l1 -6h-1l1 -1v-24q-60 29 -100 29q0 2 -43 2h-7l-6 -1v1l-3 -1q-74 0 -229 -53l-2 2q2 27 87 88q9 75 20 210q-11 19 -86 53l-12 8h-1
q-51 -49 -94 -105l-32 -36q-20 4 -60 46q-101 112 -116 112q-28 0 -79 -70q-69 -69 -113 -87q-73 77 -148 133q-40 36 -70 70q25 119 25 179l-1 1l1 6v32l-1 57l-1 4h1l-1 1v1q0 31 -10 106h-1q-77 -56 -158 -56v1l-1 -1l-12 1h-15l-1 1h-1v-2q0 -29 -14 -157v-13
q0 -80 52 -112q46 -34 63 -54l3 -8q-104 -107 -183 -175q-19 -16 -23 -16q-28 0 -110 101q-34 32 -95 78q-14 12 -29 30v2q55 71 55 182h1l-1 1v25l1 1l-1 4q0 100 -50 190l-26 31q71 82 71 201q0 73 -25 137q87 23 121 43q48 26 154 92l15 7q139 -69 186 -107q22 6 51 33h1
q40 -22 83 -22h2q67 0 171 69v195h1q47 -60 77 -79q18 -14 40 -26v1l2 5q0 24 -48 71q-19 20 -19 28v3zM1004 1481v-1q39 -36 59 -65q29 -44 50 -91l-1 -1h-1q-61 23 -115 54l-72 46l1 -36l-3 -173v-2l2 -9h-2l2 -1v-1q0 -25 5 -65q65 62 135 86q14 5 42 9l1 -1
q-17 -40 -104 -155v-2l17 2h70l1 -2l1 2h11l1 -2l1 2l6 -2h54l1 -1l2 1h55l2 -1l1 1h28l8 2v-2l3 2q20 0 53 5v1q-84 71 -111 155h1q41 -5 179 -90l10 -3l1 1l-1 1v264l1 6l-1 2h-2q-132 -84 -187 -94l-1 1q21 47 111 161v1l-18 -1h-16l-93 1v1l-1 -1l-11 1l-95 1
q-38 0 -80 -7zM1100 1476v-1l1 1h4l128 -1v-1l1 1h31l1 -1l2 1h23v-3q-94 -119 -109 -171h1q28 3 103 39q63 36 98 50l1 -2v-7l-1 -1l1 -2l-1 -30v-15l-1 -2l1 -1l-1 -8v-18l-1 -1l1 -1q-4 -42 -4 -82h-1l1 -1l-1 -25v-22l-2 -2q-124 65 -196 95v-1q0 -49 105 -177v-3h-256
v3q108 151 108 172q-44 0 -176 -78l-25 -11l-1 1v222l1 1v2q107 -63 198 -99l5 -1q-18 64 -96 164l-8 9q17 4 65 7zM388 1310q-151 -105 -233 -127l-9 -2q22 -56 22 -119v-8q0 -100 -67 -183v-1q34 -37 51 -84q24 -77 24 -154v-5q0 -118 -50 -187q113 -116 170 -149
q25 -19 29 -19q33 37 91 85q52 49 52 56q-100 59 -100 214v52l1 2l-1 1q7 108 10 108h9l4 -1l1 1l6 -1h23q123 0 155 58l6 23l-1 1v2l1 1q-7 48 -25 54q-21 19 -187 32v58l-1 6h1l-1 1v10l-1 33q0 41 9 62q23 -9 82 -43q15 -9 37 -14q22 23 78 68q36 38 39 51l-176 97
q-31 16 -49 21zM390 1299l203 -113q-16 -28 -53 -55q-22 -15 -45 -45h-1q-33 10 -131 66q-7 -27 -7 -63v-29l-1 -1l1 -2v-29l2 -8l-2 -1l2 -9v-66l119 -7q67 -11 67 -18q27 -16 27 -46v-5q0 -52 -108 -65l-30 -1h-2l-5 -2l-1 2l-14 -2h-12l-1 2l-1 -2l-26 2h-8
q-9 -98 -9 -154v-9q0 -173 84 -222q10 -3 10 -6q-48 -55 -99 -94l-32 -28q-60 43 -171 147q41 112 41 179h1l-1 1l1 7v4q0 135 -75 243q42 38 62 127l6 41l-1 1l1 6v21q0 53 -15 104q111 44 215 122zM710 1215q-38 0 -70 16v-1l14 -173v-15q0 -72 -23 -106q-11 -19 -11 -33
t26 -73q10 -58 10 -95l1 -1v-2l-1 -1l1 -8v-23l-3 -95h-1l1 -1q-8 -87 -21 -180q29 -24 123 -109q31 -26 69 -49q35 44 71 70q41 31 73 65q-35 30 -66 70q-36 52 -40 97l-8 90h1l-1 2v19l-1 21h1l-1 2v39l1 1l-1 2l1 27v17l1 1l-1 1l1 8l2 62h2l-2 1q11 129 14 214l2 1v1
l-2 1l2 6v20l1 1l-1 2v1l1 1l-1 1l1 7v58l-1 56l-2 4h2l-2 4q0 38 -7 38q-86 -62 -155 -62zM843 1249q14 -55 14 -156q0 -51 -5 -168h-2l2 -1q-6 -78 -6 -108h-1l1 -1l-1 -6v-20l-2 -1l2 -1l-2 -13v-44l-1 -1l1 -1v-17l2 -54l1 -4h-1l2 -16h-1q8 -69 19 -110q14 -55 64 -113
l13 -13v-2q-17 -28 -67 -68q-39 -43 -57 -49q-33 0 -113 98q-45 49 -58 49q21 134 21 221h1l-1 1v68l-1 6h1l-1 4q0 81 -34 176q33 58 33 140v36l1 1l-1 1v6q0 44 -13 119l1 1h1q24 -5 49 -6l5 1v-1l1 1h3q69 0 130 45zM898 1017v-7l-1 -1l1 -1v-1l-1 -2l1 -6v-5l-1 -3l1 -7
v-21l1 -8h-1l1 -1v-2l4 -74l1 -4h-1l1 -1l1 -45l-1 -66h-1l1 -1l-1 -9v-16l-2 -1l2 -1l-2 -6v-14l-1 -5l1 -1l-1 -6v-18l-1 -1l1 -1l-1 -15v-38q0 -139 77 -177q26 14 38 53q13 49 13 127l-1 5h1l-1 4q0 85 -44 194q-19 43 -58 81l-6 3v4q32 36 67 54q31 18 55 48l8 14h-1
q-19 -5 -44 -5h-3l-6 -1v1l-1 -1l-8 1h-59l-2 2q12 24 98 119l6 9v1q-1 5 -11 5q-53 -39 -114 -98q-5 -35 -5 -55zM494 1029q-5 0 -60 31q-7 3 -18 3l-6 -1v-84l27 3l1 -2l8 2h6l4 -2l1 2q36 0 142 -31h1q13 26 13 63v2l1 2l-1 1v33l1 1l-1 2v64q-23 -3 -86 -67
q-24 -21 -33 -22zM1673 933q-88 82 -137 118q-34 -15 -122 -99l-42 -37q66 -55 66 -221v-8l-1 -118h-1l1 -1v-10l-1 -1l1 -1l-1 -7v-9l1 -31h-1l1 -2v-8q-23 -30 -123 -85l-14 -12v-1l137 -67v-69l-1 -1l1 -1q-7 -111 -24 -188l-1 -1l1 -4q54 20 117 20h12q67 0 106 -21
l1 21v7l1 2l-1 1v12l1 1l-1 2v1l1 1l-1 4l-8 147q1 62 10 62h209q0 2 77 80q48 57 52 73q-24 75 -24 111l-5 42h1l-1 1v8l-1 18h1l-1 1v18q0 145 44 223q-133 126 -162 147l-13 5h-3q-12 0 -109 -98q-25 -23 -43 -25zM957 926l19 -13q0 19 43 44q78 50 85 66q2 0 2 3l1 2h1
q34 -7 111 -81l46 -43v-1q-30 -135 -30 -211h-1l1 -2l-1 -6v-53q0 -139 58 -201l-113 -129q-3 -7 -7 -7q-24 7 -92 75q-25 29 -53 51v5q0 8 29 44l5 10l-3 66v33l2 1l-2 2l2 6l2 66h1l-1 2l1 6v13l1 8l-1 1l1 9v40l-1 7h1l-1 3q0 69 -36 121l-35 34h-1q30 -37 48 -110
q16 -68 16 -136v-46l-1 -1l1 -1q-5 -64 -18 -114q-13 -44 -34 -70v-2q26 -11 129 -112q32 -29 43 -33v1q7 14 84 96q46 57 46 67q-59 62 -59 232v18l1 1l-1 1q0 63 25 170q9 28 21 52q-13 2 -116 94q-40 31 -68 41q-84 -77 -151 -119zM1523 1034q37 -12 77 -51
q55 -58 73 -68q23 5 133 105l19 14q14 -4 80 -57l77 -73q-40 -105 -40 -197h-1l1 -2l-1 -8v-23q0 -122 36 -194q-4 -15 -126 -142h-220l-1 2h-1l-1 -2v-128l1 -5l-1 -1l1 -10q0 -34 2 -54h-1l1 -2v-1l4 -44l-4 -2q-44 9 -90 9h-18l-1 1l-3 -1q-39 0 -82 -9v2q0 25 19 226v11
h1q0 16 -122 65q-8 4 -8 6q17 14 88 58l35 31l-2 53l1 51v4l1 1l-1 1v2l1 1v1l-1 1l1 5l1 74h1l-1 2v54l-1 6h1l-1 4q0 73 -37 132q-13 15 -27 27v1q65 54 137 124zM1673 904q-42 -47 -42 -174v-16l2 -6h-2l2 -1v-2l-2 -1l2 -1v-21l1 -9h-1l1 -1v-1l1 -44l1 -1v-1l-1 -1
l1 -6v-13l1 -12h-1l1 -1v-47l-2 -53h138l-1 1v1l-1 61v5l1 1l-1 1l1 6v30l1 1l-1 1l1 9l1 74h2l-2 1v10l2 1l-2 2v12q0 142 -69 182q-13 7 -32 13zM1318 892q-38 -87 -38 -221q0 -131 38 -208q40 0 86 46l-2 30l2 42v1l1 5l-1 1l1 5l2 67h1l-1 1l1 8v46q0 146 -87 177h-3z
M1674 887q42 -16 64 -58q20 -41 20 -74l2 -18l-1 -1l1 -6v-28l-1 -8l1 -1l-1 -6l-9 -145q0 -17 3 -38l-1 -1h-102l-1 1h-1l1 33v66l-1 8h1l-1 2v26l-1 5l1 1l-1 3l-2 70v37l2 1l-2 1q0 58 24 121zM1693 835q0 -3 -12 -14v-2h-1l1 -9v-133l-4 -98q0 -48 35 -48h8v10l1 1l-1 1
l1 7q9 127 9 149l1 5l-1 6v8l1 1l-1 1v4q0 79 -35 111h-2z" />
    <glyph glyph-name="C" unicode="C" horiz-adv-x="2061" 
d="M1044 1862l6 -1h32l1 -2l2 2q122 -5 256 -60q223 -95 324 -318q44 -111 44 -216q0 -268 -222 -440l-1 -2h-2l-1 2q4 18 4 42h2l-2 1l2 6v36l-2 6h2l-2 4q0 86 -59 188q-79 120 -245 173q-76 19 -137 19q-216 0 -354 -156q-80 -108 -80 -240v-1l-1 -2l1 -1l-1 -15l1 -63
l-8 -2h-4q-15 0 -42 36q-117 112 -163 276q-17 70 -17 112l-1 4h1l-1 1v36l1 1l-1 2q0 72 40 183q84 202 290 310q154 78 328 78h4zM1050 1090q131 0 206 -101q33 -53 33 -104v-19q0 -81 -70 -142q-74 -59 -171 -59h-8q-115 0 -187 80q-43 56 -43 114l-2 1v1h2l-2 1v8
q0 152 147 205q57 15 95 15zM739 442v-2l4 2q134 0 172 -94q7 -20 7 -46v-4l-2 -3h-100q-14 0 -20 29q-16 23 -56 23q-56 0 -65 -35v-1q0 -27 134 -47q60 -16 77 -34q43 -43 43 -87q0 -100 -134 -137q-31 -6 -53 -6h-18q-86 0 -142 58q-30 37 -30 85v10l2 1h96q17 0 28 -37
q23 -25 67 -25q49 0 68 31l3 9q0 35 -131 62q-80 22 -99 43q-23 34 -23 77q0 79 108 117q23 7 64 11zM1827 442v-2l2 2q69 0 122 -44q33 -39 33 -80v-20l-2 -3h-97q-13 0 -27 36q-15 19 -47 19q-47 0 -67 -33l-1 -7q35 -27 109 -45q67 -14 91 -28q36 -18 54 -72q4 -15 4 -27
v-13q0 -61 -92 -104q-52 -21 -107 -21h-11q-105 0 -154 74q-15 34 -15 60l1 10v9l3 1h103q2 0 6 -22q23 -37 76 -37h5q55 0 71 38v1q-22 30 -91 48q-99 19 -123 37q-50 44 -50 96q0 72 111 112q46 15 93 15zM311 440l4 -1l2 1l7 -1h2q110 0 188 -89q43 -60 43 -132
q0 -119 -108 -181q-66 -33 -128 -33v1l-1 -1h-10l-2 1l-1 -1q-87 0 -169 55q-52 47 -60 79q-12 21 -18 68h1l-1 1v1q0 137 114 196q63 35 130 35h2zM981 439v-1l1 1l65 -4h1l13 2l2 -2v-426q0 -7 -73 -8l-1 2l-2 -2q-44 4 -44 8v409q3 20 31 20zM1125 438v-1l1 1h3l1 -1l2 1
h66q196 0 234 -68q22 -31 22 -77q0 -78 -63 -123l-24 -12l87 -138l7 -16l-1 -1h-121q-24 19 -49 80q-18 36 -47 53q-12 4 -29 8q-13 -16 -13 -40v-2l-1 -2l1 -1v-1l-1 -2l1 -1v-3l2 -50l1 -1v-1l-1 -2l1 -5v-9q0 -21 -4 -21h-3l-1 1l-2 -1h-3l-1 1l-1 -1h-13l-1 1l-1 -1h-24
l-17 -2v2l-1 -2q-42 3 -42 8v425l3 3h3zM1491 437h109l3 -3v-428l-5 -3h-107l-2 2v429zM181 224q0 -63 60 -107q32 -18 65 -18h9q50 0 88 35q35 38 35 85v3q0 82 -84 112l-32 4h-12q-84 0 -119 -66q-10 -22 -10 -48zM1201 334l2 -2v-2h-2l2 -2v-86l-2 -6q8 -4 34 -4h6
q86 3 102 45l1 9q0 37 -34 44q-11 4 -46 6l-2 -1l-6 1h-15l-6 -1v1l-2 -1h-10l-5 1l-4 -1v1z" />
    <glyph glyph-name="D" unicode="D" horiz-adv-x="1983" 
d="M949 1834v-1l1 1h60q227 0 447 -117q73 -37 181 -131q97 -95 139 -164q146 -232 146 -462v-37l-1 -37h-2l2 -1q-13 -122 -47 -223q-41 -119 -71 -139q-15 -12 -21 -12h-3v2l1 1l-1 1v2q0 15 36 84q80 179 80 349v7q0 267 -175 505q-29 42 -113 121q-60 51 -107 80
q-93 56 -162 82q-165 57 -280 59v2l-2 -2l-3 2l-80 1l-4 -1l-2 1q-73 0 -206 -28q-100 -27 -173 -62q-64 -30 -161 -101q-116 -97 -162 -159q-50 -64 -77 -114q-37 -61 -69 -163q-31 -120 -31 -192h-2l2 -1l-2 -9v-88l2 -8h-2l2 -4q0 -102 78 -295l13 -41l-1 -1
q-13 0 -35 29q-41 111 -60 182q-22 106 -23 164l-1 4h1l-1 2v76l1 1l-1 2l1 6v12l2 1l-2 2q8 80 26 152q28 95 65 166q41 80 113 167q89 97 144 135q92 66 139 86q44 26 131 57q131 39 171 39q23 5 99 10zM972 1725v-1l1 1h33q246 0 468 -146q32 -24 53 -42
q-211 -154 -285 -366h1q136 32 270 136q30 22 127 116h1q66 -64 98 -139q26 -56 49 -152q13 -63 18 -148h-1l1 -2v-68l-1 -1l1 -1l-1 -6q0 -124 -58 -279q-32 -72 -77 -127q-48 -52 -66 -61h-3q-129 186 -365 265v0q21 -106 110 -220q31 -40 135 -137q4 0 14 -12
q-63 -60 -122 -88q-164 -80 -384 -80v1l-2 -1l-6 1h-30l-1 2l-1 -2q-41 0 -159 20q-93 21 -158 49q-56 23 -111 61q-30 21 -59 52q111 95 170 164q87 110 110 202h-1q-141 -32 -258 -124q-56 -42 -134 -127h-1q-58 54 -85 107q-85 154 -85 362v32l1 1l-1 1q1 74 28 190
q14 59 44 126q30 63 81 128q30 36 39 43q17 -3 58 -60q18 -28 91 -86q123 -92 229 -126v1q-30 131 -113 228q-22 28 -69 72q-32 31 -82 69q94 83 204 119q55 23 186 45zM947 1630q-119 0 -247 -54q-34 -15 -58 -34q117 -127 148 -196q29 -48 54 -121q35 -115 35 -167l-2 -1
q-79 14 -150 37q-108 38 -205 100q-56 36 -147 115q-101 -145 -101 -362v-41l1 -7h-1l1 -3q0 -99 50 -227q23 -47 31 -55q92 74 156 110q155 90 288 104q24 6 73 8v-1v-1q-10 -77 -36 -148q-30 -84 -90 -173q-37 -53 -132 -157v-1q144 -95 388 -95h9l15 1v-1l5 1
q115 0 245 49q41 18 65 36q-101 121 -134 181q-39 64 -62 133q-36 112 -36 175l2 1q84 -16 150 -37q165 -56 311 -182l36 -34q42 57 69 138q32 115 32 213l1 6l-1 4h1l-1 1v47l-1 6h1l-1 4q0 77 -39 197q-16 38 -39 79h-1q-202 -160 -381 -201q-109 -26 -137 -26l-2 2v1
q21 111 42 157q38 108 159 256l58 65q-44 32 -100 54q-134 45 -279 45h-33l-6 -1v1zM992 1563q156 0 259 -51v-2q-64 -78 -96 -136q-40 -66 -70 -144q-19 -47 -43 -142q-3 -37 -10 -37q-43 -5 -64 -5v1l-1 -1q-13 0 -13 7q-9 97 -34 172q-36 98 -84 183q-70 114 -70 119v1
q98 35 226 35zM944 1535q-64 0 -136 -29v-2q49 -59 90 -141q69 -163 69 -210q15 -64 23 -64q0 -3 12 -10h1q14 71 44 150q52 124 139 259l10 18q-104 29 -206 29h-33h-7v0h-1h-5zM402 1229q17 0 44 -29l6 -4q-59 -101 -59 -241v-1l-1 -1l1 -2v-3l-1 -1h1v-12l-1 -1l1 -4
q0 -114 43 -204q-18 -24 -49 -35q-56 98 -56 236v20q0 161 67 280zM1620 1227q17 0 30 -48l2 -2v-2q-17 -20 -35 -28l-8 -3q21 -46 31 -156v-2h-2l2 -1v-25q0 -172 -63 -285h-3q-20 0 -42 28q56 115 56 255q0 86 -24 151l-6 3q-10 -1 -26 -13q-16 16 -21 51q43 17 100 70z
M482 1171q6 0 30 -15q-6 -19 -6 -43v-2l-1 -5l1 -5v-19l-1 -1l1 -1v-65h2q11 21 28 98q5 15 9 17h4q9 0 30 -14q8 -1 8 -4q-32 -71 -32 -155v-26q0 -67 21 -131q-9 0 -19 -12h-6q-31 27 -53 104l-13 42h-2l-2 -28q0 -40 31 -138q-32 -21 -44 -21q-34 74 -39 152v3h2l-2 1v50
q0 119 49 217zM1490 1134q51 -58 51 -200v-3v-1v-1q0 -58 -28 -150q-20 -48 -28 -48q-4 0 -14 11l-6 2l-1 -2l-2 2v0l9 82v0v1v7v23l-2 41h-3l-30 -129l-7 -3q-4 0 -22 13h-9v1q28 101 28 168v29l2 1l-2 4q0 56 -18 110q15 4 23 11q33 -24 56 -111l1 -8q4 0 4 19v6
q0 18 -23 100l-1 13q0 3 16 7zM617 1094q64 0 88 -87q3 -20 3 -43q0 -73 -44 -126q-27 -23 -46 -23h-6q-21 48 -21 115v37l1 1l-1 2q0 41 21 122l2 2h3zM1396 1084l8 -35v-10q0 -2 -18 -5q-7 -6 -20 -10l6 -40v-16q0 -3 13 -3v-1l1 1h8l13 1l2 -4v-42l-2 -3h-36l-12 -51
l-4 -5q0 -10 41 -24l2 -1v-1q-12 -36 -17 -41l-79 31l-2 1v1q21 56 21 110h1h-1l1 10v10q0 58 -11 100q28 7 66 23zM734 1053q43 -13 85 -21v-2l-5 -28v-10l-3 -3h-7l-30 7h-8v-11l-4 -6q7 -9 35 -9h4l3 -3v-37l-3 -3h-39l-2 -1v-10q0 -8 6 -10h4l32 2q13 -3 13 -8v-1l-1 -1
l1 -2v-15q0 -12 -13 -12q-54 -13 -64 -13h-8q-9 0 -13 71v20q0 62 17 106zM1242 1039q44 0 63 -55l6 -36q0 -64 -49 -94q-17 -7 -34 -7q-12 0 -36 9q11 67 11 115v7q0 19 -5 49q14 9 44 12zM857 1029h2q49 0 70 -53q3 -6 3 -16v-6q0 -37 -45 -51q-14 0 -14 -10q0 -17 -7 -17
l-22 1l-4 -4q-16 35 -16 75q5 80 16 80zM641 1020l-10 -98l1 -5h-1q3 -19 9 -34q22 35 22 77v5l2 1l-2 1v4q0 35 -21 49zM1153 1019q23 0 26 -43v-9l2 -5l-2 -5v-2q0 -34 -14 -89h-2q-32 0 -46 47q-9 20 -13 20q-4 -6 -4 -16h-1l1 -1v0l-1 -2l1 -4l2 -29q-2 -5 -4 -5h-22
l-9 1l1 6v39l-1 5h1l-1 2v35q1 48 9 48q34 0 48 -40q10 -20 14 -22h1l6 14l-8 42v9q0 3 16 4zM974 1012l77 -6h4l4 -5l-8 -23v-3h-70q0 -14 23 -17l2 2h4v-2l9 2h15q5 0 5 -13v-4q0 -16 -45 -16q0 -3 -7 -3v-4q0 -7 22 -8l3 1v-1q8 2 34 2h4l3 -2v-30l-10 -1h-92q-6 0 -8 42
v4v0v4l1 54l-1 21q5 3 31 6zM1241 995l-3 -24l1 -42l-4 -36h4q33 9 33 54q0 30 -16 49l-1 -1h-14zM868 985v-41h5q23 3 23 20l-2 1v2l2 1v2q-18 15 -28 15zM1027 846q4 0 13 -71q31 -195 183 -407v-4q-107 -35 -173 -35l-23 -1v0h-1h-63h-1h-2q-45 0 -143 19q-61 17 -83 30
v1q75 98 116 170q39 69 70 161q16 50 29 136l1 1h77zM981 820q0 -30 -40 -155q-45 -116 -131 -246l-22 -31q13 -9 82 -22q63 -11 109 -11h2l2 -2l1 2h35q82 0 157 32v1q-46 54 -84 129q-40 73 -80 224l-14 79h-17zM1711 525q13 -12 30 -87q12 -30 33 -39l6 -1v-1
q0 -8 -22 -35q-39 35 -138 35q7 -20 54 -54q29 -24 31 -39q-8 -17 -40 -17h-3l-1 1l-1 -1q-13 1 -42 1h-15l-2 -3q0 -5 33 -33l3 -6q0 -13 -26 -23q0 -4 -4 -6q-36 33 -85 93q10 23 46 23l52 -4q0 13 -24 24q-9 6 -9 14v3q15 13 44 49q21 16 49 16l14 -1l-3 28q0 39 20 63z
M248 524h9q22 0 61 -79l8 -10v-4q-5 0 -21 -13q-3 0 -29 24h-2v1q-19 -6 -68 -45h-4q-25 11 -25 31q19 10 63 40l10 4v1q-3 13 -18 36l-2 5q11 9 18 9zM339 422q30 -6 56 -58q6 -23 6 -31q0 -39 -39 -39h-7q-9 0 -17 -40l-2 -1q-33 15 -33 32v5l2 10q0 8 -52 25
q-10 9 -11 12v2q2 17 71 61q4 0 26 22zM306 341v-2l40 -10h3q10 0 16 7q-6 31 -25 31h-8q-20 0 -26 -26zM444 322q12 0 24 -14q0 -7 -52 -65l-1 -6q17 -25 31 -25q21 0 53 61l7 5h3q8 0 33 -21q-37 -61 -76 -96l-4 -1q-47 18 -97 66v1q36 95 79 95zM1472 274h5q26 0 78 -42
q21 -15 37 -21q-13 -25 -28 -25q-51 -15 -53 -25q-6 -3 -11 -22q-13 0 -32 -14q-20 31 -20 59l-7 79q16 11 31 11zM575 236h6q31 0 66 -30q-15 -30 -19 -31q-13 0 -40 15l-12 1h-10q-6 -1 -17 -26q0 -17 46 -39l3 -4v-6l-6 -18l-7 -1h-3q-51 0 -67 42q-3 13 -3 22
q0 46 45 71q10 4 18 4zM1485 227v-8q0 -20 10 -28q0 7 19 14l1 6v1q-21 15 -30 15zM1392 225q37 -4 39 -19l1 -15v-9q0 -50 -72 -105q-21 11 -34 51q-8 31 -20 58q40 39 86 39zM674 195l31 -14v-1l-10 -19l-1 -10l4 -4h2q9 0 38 23h7q31 -10 38 -10h2v-3q-20 -18 -45 -31
q-12 -9 -19 -18q0 -13 23 -65l-2 -2h-8q-20 0 -45 17q-10 33 -10 45q-14 0 -22 -37h-6q-5 0 -27 11l-5 1q12 44 38 92zM1355 173q6 -23 16 -27h1q20 25 20 29l-4 3v7l-6 1q-10 0 -27 -12v-1zM1255 176h5q4 -2 48 -75l14 -39l-37 -11q-3 14 -21 36h-2q-6 -12 -10 -44
q-13 -2 -23 -8q-18 0 -30 35l-7 7q-11 -26 -11 -51h-4l-27 -6h-4l-3 3v2l2 1l-2 1l2 6q0 123 21 123h24q3 0 17 -30l6 -7q8 0 8 46q0 5 14 5q13 6 20 6zM913 144q26 0 43 -12v-27l-2 -8h-11l-41 6q-18 0 -18 -28v-15q0 -14 27 -14h30l2 -2v-31q0 -3 -6 -4q-35 0 -82 13
q-15 23 -15 44v9q0 42 47 65q14 4 26 4zM1072 140v-1l1 1h8q29 0 29 -14q13 -19 13 -58q0 -52 -14 -52q-34 -7 -77 -7l-39 1q-13 0 -23 50v2h1l-1 2v10l1 1h-1q0 25 17 55l6 4h17q16 0 62 6zM1013 93v-25q0 -28 21 -28l38 6h7l3 24q0 13 -9 33q-35 -4 -60 -10z" />
    <glyph glyph-name="E" unicode="E" horiz-adv-x="2113" 
d="M1054 1602v-1l4 1q196 0 346 -179q51 -56 85 -115q109 -194 224 -194l1 -2l1 2h1l10 -2l8 2v-2l1 2h3q59 0 149 72q39 26 65 26q63 0 86 -68q5 -23 5 -44q0 -96 -115 -202q-57 -57 -92 -102l-6 -11l1 -1l1 1q65 0 133 -50q51 -50 66 -97q21 -54 21 -158l1 -4h-1l1 -1v-68
q0 -170 -61 -271q-55 -88 -177 -88l-3 -1v1l-1 -1h-60l-1 1l-1 -1l-5 1h-20l-1 2l-1 -2l-6 2l-198 16q-37 -19 -103 -19h-57l-1 1l-1 -1l-7 1h-20l-1 2l-1 -2h-1l-1 2l-1 -2l-5 2h-26l-1 1l-1 -1h-2l-1 1l-1 -1h-1l-1 1l-1 -1l-6 1l-52 -1l-3 -2v2l-12 -3q-10 3 -10 12v11
h-1q-33 -22 -73 -22l-31 -4v1l-1 -1h-1l-43 -3v2l-1 -2h-27l-9 -1l-1 1l-13 -1h-87l-1 1l-2 -1l-31 1h-25l-1 2l-1 -2h-1l-1 2l-1 -2l-6 2h-35l-1 1l-1 -1l-7 1h-26l-1 1l-1 -1l-13 1l-75 2v1l-1 -1h-2l-1 1l-1 -1l-11 1h-604q-3 2 -3 8q0 26 33 80l270 648l1 1h59l1 -1l5 1
q-6 37 -9 84h1l-1 1v4q0 120 50 215q21 52 87 161q26 47 116 161q117 126 251 168q73 22 126 22zM466 883v-2q0 -96 50 -145v-4h-122l-266 -632h581l1 -1l1 1l22 -1h18l1 -2l1 2l10 -2h20l1 -1l1 1l5 -1h22l2 -1l1 1l6 -1l52 -2v-1l1 1l6 -1h23l1 -1l1 1l13 -1h24l2 -2l1 2
l26 -2h27l81 2l4 1v-1l3 1q101 6 114 18q39 19 44 19q3 -3 4 -27l1 -2v-1l22 1h196q6 0 7 7l-2 25q2 8 4 8h1q39 -19 123 -36q55 -8 77 -8v-1l1 1l5 -1h11l9 -2l1 2l6 -2h46l4 2l1 -2l7 2h12l5 1v-1l4 1q63 0 141 36q39 22 58 71q30 92 30 191v2l1 1l-1 1v45q0 120 -41 211
q-47 77 -141 77v1l-1 -1l-6 1h-40q-62 0 -109 6v1l49 30q71 42 144 116q134 143 134 218v1q-5 55 -37 55h-2q-27 0 -115 -60q-63 -35 -124 -35q-130 0 -264 212q-90 128 -127 158q-43 40 -85 65q-92 50 -165 50v1l-1 -1l-10 1h-6q-264 0 -441 -267q-164 -239 -164 -400z
M1034 1487v-1l1 1h27q191 0 316 -194l98 -146q108 -145 244 -145h7l1 -2l1 2h10q100 0 206 87h1v-1q-119 -210 -282 -290q-60 -28 -114 -28h-6q-147 0 -294 229l-118 183q-117 167 -223 167h-11q-97 0 -204 -140q-92 -138 -92 -231v-7q0 -80 75 -112q35 -12 69 -12h4l1 -1
l1 1h2l1 -1l1 1h27l1 -1l1 1h16l5 1v-1l3 1q75 0 314 84l38 11v-3q-327 -175 -525 -175v1l-2 -1q-59 0 -98 37q-24 31 -24 81q0 81 76 217q34 73 106 174q69 88 109 116q74 67 188 92zM891 1286h14q110 0 211 -187l50 -87q-265 -97 -347 -97l-42 -4v2l-1 -2h-21l-7 2l-1 -2
q-40 0 -81 24l-10 10q0 76 55 188q15 30 51 75q69 78 129 78zM1230 919q28 -27 103 -112q45 -46 79 -67l2 -1v-1q-28 -6 -48 -6l-110 1q-10 0 -10 -8l1 -22v-1l-1 -1v-2q-63 33 -129 33v1l-1 -1l-3 1l-67 2l-27 -2v2l-1 -2h-1l-122 -2l-48 1v1q0 4 105 46q200 72 268 120z
M705 709q10 -17 10 -63l-2 -114v-12l1 -7h-1q-43 76 -83 190l8 3l24 -1h5l2 -2l1 2l6 -2q16 0 29 6zM1683 680v-1l1 1h35q171 0 223 -68q26 -47 26 -167v-2q0 -157 -29 -225q-31 -39 -71 -48l-60 -8v1l-1 -1h-72l-4 1l-1 -1l-27 1h-78l-2 1l-1 -1q-67 0 -120 30
q-32 23 -44 70q-15 56 -15 156v30l1 1l-1 2q1 51 15 128q14 43 49 66q53 23 82 23q19 6 94 11zM1033 676v-1l1 1h61q135 -3 162 -82q15 -56 15 -129l1 -5h-1l1 -1v-3l-1 -2l1 -1v-44l-1 -1l1 -1l-1 -7q0 -106 -23 -179q-15 -33 -66 -54q-59 -13 -105 -13v1l-1 -1h-16l-68 1
l-2 1h-1l-1 -1l-4 1l-59 3v1l-1 -1l-5 1h-11l-1 2l-1 -2q-70 7 -108 7l-1 2l-2 -2l-18 2h-49l-5 -2v2l-1 -2h-1l-1 2l-3 -2l-53 -4l-160 382h-1q-31 -68 -91 -221v-2l36 -6l96 2l54 -129l8 -26h-394v1q26 70 103 254l110 253h150q46 -80 103 -221l65 -156h218l1 -1l1 1l7 -1
l61 -3v-1l1 1l8 -1h9q75 0 85 27q20 47 20 114q0 81 -29 102q-19 14 -51 14h-4l-129 -12h-6l-4 -2q-29 2 -45 7v-191l-2 -3h-121l-2 3l1 1l-1 1v318l1 1v2q29 -6 57 -6h20l5 -1l7 1h27l7 1v-1l1 1h18l5 2v-2l2 2h12l6 1v-1l1 1h1l52 3l3 1v-1l1 1h12l7 2v-2l2 2h19z
M1418 671l2 -3v-502l-2 -3h-117v19l1 2l-1 1l1 7v116l-1 6l1 1l-1 8l-2 56l-1 4h1l-1 2v17l-1 14h1l-1 2v16l-1 16h1l-1 2v1l-1 82h1l-1 2q3 103 10 134h113zM1667 549q-47 0 -80 -28q-17 -31 -17 -87v-3l-1 -1l1 -2v-15l-1 -1l1 -1v-4q0 -92 35 -110q26 -9 63 -9h17l8 1v-1
l3 1q117 10 133 25q10 32 10 88q0 115 -12 115q-41 33 -135 33h-16l-6 -1v1zM1686 483h28q76 -2 76 -9l3 -82q-2 -36 -5 -36h-163l-2 92q0 30 10 30q23 5 53 5zM942 476h152l2 -2v-48l1 -7h-1l1 -1v-2l-1 -1l1 -2v-19l-1 -1l1 -1q-3 -36 -7 -36h-148l-2 3v115zM500 407h1
q11 0 14 -22q-2 -6 -3 -6h-17l-2 3v1q7 14 7 19v5z" />
    <glyph glyph-name="F" unicode="F" horiz-adv-x="2106" 
d="M1048 1949h7l52 -312v-4q-19 -32 -42 -32h-17q-49 6 -49 44l49 292v12zM661 1893v-4q-49 -107 -49 -196q0 -130 116 -213h7q28 25 63 25h18q48 94 158 172l3 -4v-4l-3 -24q0 -59 81 -72q77 12 77 68l-3 36h3q51 -26 151 -148q0 -24 39 -24q20 0 53 -29q123 85 123 209
l-4 4v8l4 4q-2 71 -50 192q159 -193 159 -352v-24q0 -151 -204 -241q-26 -45 -71 -64l7 -332q-180 -184 -281 -184q-114 0 -291 184l3 40v52l4 136l-4 28l4 64v16q-31 6 -78 68q-197 81 -197 253v4q0 157 162 352zM577 1669l-4 -40v-20q0 -116 123 -197h4l10 36h-3
q-127 75 -127 221h-3zM1529 1665q0 -140 -130 -221q6 -32 11 -32q126 70 126 213l-3 40h-4zM1016 1517q0 -11 -21 -41l11 -156l-4 -4l-151 32q29 -144 81 -144l81 -40l24 -416h18l7 8l21 412q130 49 130 68q13 21 35 112l-151 -32l-4 4v4l7 148l-17 45h-67zM745 1368h-7v16
l7 60q-28 -40 -28 -100q0 -52 46 -92l-4 20v36h8l7 -40h3v40q0 107 25 164h-7q-23 0 -50 -96v-8zM1308 1472q24 -80 24 -204h4l7 40h7l-3 -40v-12h3q39 33 39 80v8q0 54 -25 104h-3v-4q10 -41 10 -84h-7q0 55 -46 108l-3 4h-7zM879 1320l151 -32h35q29 0 151 32l4 -12
q-25 -88 -81 -88q-51 -24 -81 -24h-28q-137 32 -137 80q-6 0 -14 40v4zM475 1120h3q5 0 78 -208q14 -28 14 -48v-8q0 -22 -53 -32q-28 0 -42 24v272zM1624 1116h4l-4 -4v-4l4 -4v-4l-4 -4l4 -20l-4 -16l4 -28v-184q-17 -28 -39 -28h-3q-46 0 -53 40v8q56 175 91 248z
M187 1000h7l112 -220q-15 -48 -46 -48h-14q-38 0 -38 96zM1912 992h4q-29 -256 -35 -256l-14 -8h-25q-46 9 -46 52zM643 904h4q5 0 25 -76q19 -61 49 -92v-4q-403 -104 -591 -104h-28l-7 8v4q76 100 102 112q18 -31 35 -40h25q63 13 63 60v12l-10 40q114 52 151 52v-20
q0 -37 45 -48h18q63 14 63 56v8l-7 24q18 8 63 8zM1455 904l36 -4h21l10 -8l-7 -32q16 -56 74 -56q51 0 56 72h4q147 -45 147 -64q-9 0 -14 -32v-8q0 -54 78 -64q21 0 49 44q88 -90 102 -120l-35 -8q-186 0 -594 108v8q24 0 73 164zM752 872q174 -196 306 -196
q122 0 303 196h59l7 -8q-28 -99 -70 -120l-3 -16q0 -26 154 -52q303 -72 454 -72h38l39 -73l-4 -4h-1968l-7 8l49 69q218 0 629 104l11 16q0 14 -53 80l-17 64l3 4h70zM591 491l3 -4v-236q14 0 14 -8v-52l-7 -8h-214l-7 8v128q0 37 67 44l59 12v40l-17 4h-21q-4 -32 -14 -32
h-64l-7 8v92h190zM826 491l4 -4v-108l-4 -4l4 -4v-16l-7 -8h-49q-11 0 -11 52l-4 4q0 12 -7 12h-21v-160q14 0 14 -8v-56l-7 -8h-98l-7 8v56q0 8 18 8v160q-15 0 -15 8v64h173zM995 491l4 -4h70l7 -8v-56q0 -6 -21 -12l-21 -60q31 0 35 -64v-32q14 0 14 -8v-56l-7 -8h-85
l-7 8v100q-5 16 -24 16h-18v-116l-7 -8h-84l-7 8v56q0 8 14 8v232h84v-116h7q6 3 46 120zM2032 491l14 -4v-120q0 -42 -46 -60v-8q26 -6 46 -36v-136l-7 -8h-84l-7 8v108q0 28 -32 28h-21v-136l-7 -8h-106l-7 8v56q0 8 18 8v216h-18l-7 8v64l7 8h243zM71 487h263l7 -8v-356
l-7 -8h-256l-7 8v72q0 8 14 8v204q-14 0 -14 8v72zM1111 487h197v-92l-7 -8h-53q-7 0 -7 20l-3 12l-15 4q-24 0 -24 -28q0 -15 98 -44q21 -12 21 -32v-128l-7 -8h-196l-8 8v88l8 8h66q6 0 14 -36h28l11 12v20q0 11 -116 48q-11 19 -11 72v64zM1336 487h155v-60l-7 -8h-46
v-148q0 -17 49 -20l4 4l3 -4v-60l-7 -8h-123l-7 8v228q-21 0 -21 8v60zM1526 487h204v-228q0 -8 14 -8l3 -4v-56l-7 -8h-214l-7 8v120q0 52 74 52q52 14 52 20v12q0 24 -21 24h-14l-17 -32h-60l-7 8v92zM183 407v-204h32q21 0 21 24v164q-6 16 -25 16h-28zM1895 407v-64
q0 -8 10 -8l11 4v-4q28 0 28 28v28l-14 16h-35zM464 295v-32q5 -16 32 -16h3l7 8v60q-42 -9 -42 -20zM1600 283v-8q0 -28 31 -28h7l7 8v60q-45 0 -45 -32z" />
    <glyph glyph-name="G" unicode="G" horiz-adv-x="2134" 
d="M80 1856h1974l20 -20v-1120l-20 -20h-1974l-20 20v1120zM251 1594v-626q14 -101 101 -101h614v11q-382 143 -382 292v10q165 464 272 464h30q59 0 1007 -393v302q0 162 -101 162l-10 -10l-876 10h-534q-121 0 -121 -121zM1037 1099v-161q0 -71 70 -71h705q63 0 81 71
l-10 10v71l10 40l-10 30h10q0 91 -101 91h-665q-90 0 -90 -81zM80 686h1974l20 -20v-646l-20 -20h-1974l-20 20v646zM594 595v-383h100l21 20v10l-11 51h11l-11 10v10l11 10l-11 10v10l11 60l-11 11v10l11 10v10l-11 111v10l11 10v10l-11 10h-110zM1168 595v-383h70l51 10
l60 -10h70q121 24 121 121v40q0 111 -161 131l-80 -20l-10 10v101h-121zM745 343q0 -131 211 -131v-10q171 27 171 151q0 135 -191 151q-191 0 -191 -161zM1571 353q0 -132 181 -151q123 0 181 91v10h-81l-10 10l-80 -31h-40l-31 31v20h252v10q0 161 -201 161
q-171 -27 -171 -151zM171 363v-10q13 -141 131 -141h50l60 20l11 -10v-10q-16 -41 -31 -41h-70l-20 21l-31 -10l-70 10l-10 -10q0 -69 141 -91q211 16 211 141l-10 10v242h-80l-41 -10l-80 20q-161 -23 -161 -131zM906 424h60l41 -41v-60l-41 -41h-30q-54 0 -70 41v60z
M1329 424h50l40 -41v-60l-40 -41h-50l-40 41v60zM1722 424h70l30 -31v-10l-50 -10h-40l-10 10h-11l-10 -10l-10 10v10zM332 414h50l41 -41v-50l-31 -30h-70q-30 10 -30 60v20zM1913 212l-10 -10v-20l20 -21l20 31v10z" />
    <glyph glyph-name="H" unicode="H" horiz-adv-x="2126" 
d="M89 1712h278q30 0 30 -45h14q0 45 30 45h175q56 0 103 -387h15v357l29 30h88l29 -30v-342h117q29 0 29 -45h15v387l29 30h88l29 -30v-342h118q29 0 29 -45h15v387l29 30h424q35 0 103 -208h15v178l29 30h88l29 -30v-446l-29 -30h-117q-44 0 -103 208h-15v-178l-29 -30
h-1142q-44 9 -44 119l-88 15q-51 -134 -73 -134h-102v15l58 372h-176v-30l44 -45l15 15h15l58 -15v-104l-58 -15l-59 15v-178l-29 -30h-103l-29 30v446zM1495 1593v-30l29 -45l73 15l30 -29v-90l-59 -15l-58 15v-74h102q29 0 29 -60h15v313h-161zM514 1548v-89h44l-15 89
h-29zM280 1131h688l58 -59v-238q0 -30 44 -30l44 15l-14 104q0 208 58 208h688l30 -29v-15l-161 -164h-396l-14 -45l29 -74l15 15h205l43 -45q-116 -179 -292 -179l14 -148v-268l-175 -179l-44 45v416l14 149h-88v-565l-44 -45l-161 164v446h-131l-147 149v30l29 30l15 -15
l15 15h14l15 -15l15 15h102l15 -15l58 15v104h-410l-161 164v15z" />
    <glyph glyph-name="I" unicode="I" horiz-adv-x="2117" 
d="M74 1337v1h6l284 -32q89 -10 89 -12v-156l-1 -1l1 -1l-1 -5v-81l-1 -1l1 -1l-1 -5v-3l-1 -62h-1l1 -1l-1 -9v-14v-1v-1v-6v-13l-1 -1l1 -1l-1 -5q0 -19 -5 -71v0q0 31 -28 54q-19 13 -60 33v2q23 0 49 21q38 38 38 124v2q-2 120 -52 151q-53 38 -156 38v0h-1h-7l-97 1v1
l-1 -1l-17 1h-8l-1 1v-1l-6 1h-9l-1 1h-1q-7 -32 -7 -111v-52q4 -10 23 -10v-1l1 1q22 -3 22 -6v-11l-1 -6h1l-1 -7v-22l-1 -1l1 -1v-1l-1 -1v-1l1 -1l-1 -4v-27l-1 -1l1 -1l-1 -14l-1 -120h-1l1 -1v-44l-1 -1l1 -1v-2l-1 -1l1 -1v-41q0 -1 -25 -6q-5 -3 -17 -3v-162
q130 -30 189 -30v-1l1 1l4 -1h13l8 1v-1l1 1h1q108 3 137 74q6 20 6 27h1v-1l4 -34l-1 -1l1 -5v-26l-1 -5l1 -1l-1 -16v-21l-1 -1l1 -1v-15l-1 -1l1 -1v-1l-1 -1h1v-12l-1 -1v0q-91 13 -311 36q-68 9 -70 11v60l1 79h1l-1 1l2 78v0v1v3v0v1v5v30l1 1l-1 1l1 4l1 69l1 4l-1 2
h1l-1 1l1 5v28l1 1l-1 1v2l1 1l-1 1l1 7l1 67v0v1v7v31l1 1l-1 1v3l1 1l-1 1l1 5l1 71h1l-1 1v1l1 1l-1 1v1l1 1h-1l1 5v28l1 8l-1 1l1 5v30h1l-1 1l1 18zM2028 1319l3 -25h-1l1 -1v0l3 -81l1 -3h-1l1 -1v-1l2 -54v-2v0v-1v-15l1 -5h-1l1 -1v-15l1 -5h-1l1 -3l2 -41h-1l1 -1
v-14l1 -7h-1l1 -1v-15l1 -6h-1l1 -1v-16v-5v0v-2l1 -37l1 -5h-1l1 -1v-15l1 -6h-1l1 -1v-1l3 -97l1 -1v-1h-1l1 -5v-10l1 -5h-1l1 -1v-11l1 -7h-1h1v-1l1 -30l1 -3h-1l1 -1v-1l3 -81v-17q0 -3 -121 -20q-82 -12 -253 -32l-1 1v1l-1 59l-1 1v1l1 1v1l-1 3h1l-1 1v16l-1 10h1
l-1 1v14v10v0v1v17l-1 5h1l-1 1v15l-1 6h1l-1 3l-1 35l-1 3h1l-1 1v1l-1 53l-1 2h1l-1 1v13l-1 5h1l-1 1v1l-3 69l-1 2h1l-1 1v1v33l-1 2h1l-1 1v1l-1 34l-1 2h1l-1 1v14l-1 5h1l-1 1v15l-1 4h1l-1 1v1v36l-1 5h1l-1 1v1l-2 46h1l-1 1v17l-1 9h1l-1 1v1l-2 74l4 2
q94 10 345 44zM506 1292l23 -1h4l1 -1l1 1l44 -2v-1l1 1l4 -1h21v-1l1 1l9 -1h18v-1l1 1l8 -1l58 -1v-1l1 1h4l1 -1v1l4 -1l114 -2v-1l1 1l15 -1h23l1 -1l1 1h3v-1l1 1l6 -1h25h1h1l-1 -12v-14l-1 -1l1 -1l-1 -5v-16l-1 -1l1 -1l-1 -4v-16l-1 -1l1 -1l-1 -4v-15l-1 -1l1 -1
l-1 -4l-1 -36v0v-1l-3 -79h-1l1 -1l-1 -4v-12l-1 -1l1 -1l-1 -4l-1 -50h-1l1 -1l-1 -4l-2 -49h-1l1 -1l-1 -4l-1 -46h-1l1 -1q-4 -44 -4 -64h-1l1 -1l-1 -3l-14 -257h-11l-1 1l-1 -1l-28 1v1l-1 -1l-2 1l-103 3v1l-1 -1l-20 1l-87 1v1v-1l-114 5v1l-1 -1l-30 3l5 89v0v1
l1 37h1h-1l1 4l2 53l1 1v1l-1 1l1 4l1 35v0v1v4v13l1 1l-1 1q2 16 2 40h1l-1 1l1 4l2 73h1l-1 1l1 5v12l1 1h-1l1 5v12l1 1l-1 1l1 5v11l1 1l-1 1l1 4q8 181 19 290zM1632 1292l2 -3l-1 -1l2 -36v-5v0v-1v-15l1 -4h-1l1 -1v-14l1 -5h-1l1 -1v-13l1 -6h-1l1 -1v-1l2 -55v-3v0
v0v-13l1 -7h-1l1 -1v-13l1 -5h-1h1v-15l1 -5h-1l1 -3l1 -32l1 -3h-1l1 -1v-14l1 -4h-1l1 -3l2 -70l1 -3h-1l1 -2l1 -31l1 -3h-1l1 -3v-30l1 -1v-1l-1 -1l1 -4l3 -63l1 -3h-1h1v-12l1 -4h-1l1 -1v-1l8 -159q0 -3 -114 -14v1l-1 -1h-1q-124 -9 -210 -21v1l-12 160h1h-1v1v25
l-1 3h1l-1 1v11l-1 5h1l-1 1v10l-1 5h1l-1 1v1l-3 85l-1 3h1l-1 1v13l-1 4h1l-1 1v13l-1 7h1l-1 1v13l-1 6h1l-1 3l-1 55l-1 5h1l-1 1v15l-1 5h1h-1v16l-1 5h1l-1 1v14l-1 6h1l-1 1v1l-1 34l-1 4h1l-1 1v14v5v0v0v1l-1 34l-1 3h1l-1 2l-1 31l-1 3h1l-1 3l-1 44l64 7v-1l11 2
v-1l1 1h1q75 5 250 24zM1279 1284v-1l1 1h5l2 -2v-106l-1 -6l1 -1v-1l-4 -204l-1 -1v-1l1 -1l-1 -11v-24v-1v-1v-14v-21l-1 -1l1 -1l-1 -16v-17l-1 -6l1 -3h-1h1l-1 -5v-27l-1 -1l1 -1l-1 -18v-21l-1 -1l1 -1v-1l-1 -3l1 -1l-1 -5v-31l-1 -1l1 -1v-1l-1 -1l1 -1l-1 -16v-27
v-10v-1v-20v-48l-1 -3l1 -4v-13l-2 -2l-91 -2l-2 -1v1l-1 -1h-1l-1 1l-4 -1h-17l-5 -1l-1 1l-4 -1h-17h-6v0h-1h-21l-4 -1v1l-1 -1v0l-48 -2v1l-1 -1h-18l-4 -1v1l-1 -1h-1l-116 -3l-1 1v27l1 1l-1 1l1 18v28l1 1l-1 1l1 23v18l1 1l-1 1v1h1v3h-1l1 7l2 102v0v1v1v1v0v1v5
v23l1 4l-1 3h1l-1 1l1 4v24l1 1l-1 1l2 70h1l-1 1v1l1 1l-1 1l1 6v24l1 1l-1 1v1l1 1l-1 1l1 4v28l1 1l-1 1v1l1 1l-1 1l1 9v25v1v1v1v1v1v5v31l1 1l-1 1l1 18v25l1 1l-1 1v6l1 1l-1 1l1 4v40l1 1l-1 1l1 25v49l2 8l6 -1h83l27 1v-1l1 1h26l14 1v-1l1 1h19l13 1v-1v1h21l6 1
v-1l1 1h23h4v0h1h17l8 1v-1l1 1h19l5 1v-1l1 1h22l3 1l1 -1l8 1h11zM1225 1260v1l-1 -1h-1q-97 -6 -97 -18q-25 -129 -50 -202h-1v205q-16 -5 -113 -12l-29 -7v-1l1 -3h-1l1 -1v-18l1 -6h-1l1 -1v-1l1 -103l1 -4h-1l1 -1v-8l-1 -3l1 -4v-217l-1 -1l1 -1v-1l-1 -1v-2h1
l-1 -76v-171l1 -6q134 13 134 21q3 17 3 29h1l-1 1l1 5v12l-2 105q0 41 8 76h1v-1q0 -16 29 -147q9 -50 9 -74h3l6 1v-1l2 1q13 0 109 14l23 1h2q-52 232 -81 325q26 90 74 301zM1729 1245l-3 -1v1l-1 -1h-1v1l-5 -1h-7l-1 1l-1 -1h-1l-1 1l-1 -1l-4 1h-2l-1 -4l1 -1l1 -107
v-25l-1 -1l1 -1l-1 -5v-62l-1 -1l1 -1l-1 -32v-39l-1 -1l1 -1v-1l-1 -1v-2h1l-1 -43v-3l1 -121l1 -6h-1l1 -1v-18l1 -7h-1l1 -1v-1q0 -31 5 -97l19 1h3l4 1v-1l1 1h9l4 1v-1l3 1q35 0 95 13q3 21 3 50v34l-1 6h1l-1 1v14v7v0v1v11l-1 6h1l-1 1v1l-1 52v4l1 1l-1 1
q0 32 11 68h1q5 0 27 -8v-51l1 -5h-1l1 -1v-1h-1l1 -3q0 -27 1 -44v0v-1v-13l1 -9h-1l1 -1v-24l1 -4l-1 -1l1 -5l-1 -48h-1l1 -1l-3 -35q15 4 38 4h32l1 -1l1 1h22q34 0 47 12l-3 55l2 98q0 107 -47 134l-13 5v2q20 0 44 38q18 45 18 87v1v1v1v9v8v4v0v1v3q0 83 -55 110
q-25 10 -57 10h-12q-23 0 -154 -18zM1519 1253l-1 -1h-1v1l-4 -1l-29 -1l-3 -1v1l-1 -1h-1q-37 0 -139 -12v-18l1 -4h-1l1 -1v-16l1 -5h-1l1 -1v-1l2 -62v-4v0v-1v-19l1 -4l-1 -1l1 -4v-12l1 -10h-1l1 -2l1 -44l1 -5h-1h1v-19l1 -5h-1l1 -1v-1h-1l1 -1v-15v-9v0v-1v-18l1 -4
l-1 -1l1 -6v-14l1 -7h-1h1v-17l1 -7h-1l1 -1v-1l1 -40l1 -4h-1l1 -1v-17l1 -4h-1l1 -1v-14v-7v0v-1v-1l2 -53l1 -1v-1l-1 -1l1 -4l2 -47l1 -3h-1l1 -3l3 -73l1 -1l40 5v-1v1h10l6 1v-1l1 1h15l6 1v-1l1 1v0l1 -1l1 1h1l65 1h11v0v0h18l4 1v-1l3 1q36 0 85 11q2 10 2 26v9
q0 21 -9 84h-10l-6 -1v1l-3 -1l-84 -6q-6 22 -10 68h1l-1 5v17l1 1l-1 1q4 47 8 47h84q2 16 2 30l-3 72v19l1 1v1h-9l-1 1l-1 -1h-8l-1 1l-1 -1v0l-1 1l-1 -1h-20l-6 -1v1l-1 -1h-8q-39 0 -41 7v56l-1 5h1l-1 1v2l-3 38q9 5 55 5h5l6 1v-1l2 1q17 0 35 6v43l-1 4h1l-1 1v4
q-4 71 -8 71zM594 1253q-24 -147 -96 -538l-17 -107l15 1q16 0 81 -14h12q26 0 26 15q8 23 25 84q7 17 10 22q6 -4 33 -7q6 -3 6 -8l1 -7h-1l1 -1v-8l-1 -1l1 -1l-12 -80l1 -1l-1 -4v-1q22 -17 56 -17q43 0 114 27q-10 140 -40 449q-7 75 -12 181q-22 6 -42 6v1l-1 -1l-4 1
h-15v1l-1 -1h-68l-1 1l-1 -1h-1l-1 1v-1l-5 1q-34 0 -62 8zM1858 1157q23 -7 23 -13v0v-1v-1l3 -36h-1l1 -1v-12q0 -47 -22 -58l-7 -2q-8 14 -8 33v16l1 34h1l-1 1l1 5v25l-1 9l1 1h9zM256 1094q25 0 48 -23v-31l-1 -1l1 -1q-5 -52 -38 -52h-3q-4 0 -6 48h1l-1 1v21l-1 9h1
l-1 1v4l-2 23l1 1h1zM686 1050l1 -1v-1l2 -33v0v-1v-18l1 -5h-1l1 -1v-3l-1 -1h1v-37l-1 -1l1 -1v0l-1 -1l1 -1v-8l-1 -1l1 -1l-1 -4v-41v-1v-1v-1v-1v-1v-36v-1v-1v-14l-1 -1h-32l-2 1l31 217h1zM264 903h6q31 0 43 -40l2 -18q0 -45 -35 -64q-6 -3 -14 -3t-11 102l-4 21
q4 2 13 2zM1500 542h125l1 -1h1l-1 -16v-3l3 -4l1 1h30l4 1v-1l1 1h1l50 4v-1l1 1h22q12 0 12 -6l1 -39l1 -1v-1l-1 -1l1 -4v-14l1 -7h-1l1 -1v-1l1 -55l1 -7h-1l1 -1v-15l1 -7h-1l1 -1v-1l2 -60l-68 -4l-3 -1v1l-1 -1h-23q-29 0 -35 7v31v0q-7 -16 -31 -16v0h-1h-7v0h-1
q-44 4 -60 4q-19 0 -19 -6q-1 -19 -4 -19h-11q-56 0 -152 -30q-38 -9 -57 -9h-20v1q0 4 38 8q12 5 12 20v2q0 7 -17 18l-2 10v2q0 5 25 10h8q9 -2 9 -5l-8 -29v-4q1 -16 2 -16q52 4 52 8q0 22 -25 47q-42 104 -52 133h-3q-43 0 -50 -12q5 -30 20 -30h7v0h1q-3 -17 -3 -38v-7
l-1 -1l1 -1q0 -63 -15 -77q-11 10 -11 28l-5 36v0v-3l3 -52h-1l1 -1v-1l1 -30h-1l1 -1l-1 -5v-8l-1 -1v-1l-13 1h-16l-4 -1v1l-3 -1q-16 0 -123 -18l-27 -2h-10q-29 0 -55 9l-1 3l1 6v7l1 1l-1 1v2h1l-2 6h-2v-3v-1v-4v-1v-1v-1v-1v-3q0 -7 -1 -7q-24 0 -111 18
q-3 -11 -5 -12l-9 1l-18 -1l-97 5q-8 49 -31 127q-8 26 -11 55h-53v-36l2 -2h2l13 1q4 -2 5 -4l-22 -100q0 -9 -5 -9q-14 -9 -14 -27q0 -16 9 -16l31 1q7 -2 7 -4v-2l-7 -1l-32 3q-14 0 -14 -13h-4l-116 18q-18 0 -18 3v6l4 20v3l-3 1v-1h-1l-9 1l-8 -1v1l-1 -1h-11l-4 -1v1
l-1 -1h-1l-44 -4v1l-1 -1h-20q-11 0 -11 7l-3 34h1l-1 1v1l-2 34h1l-1 1v16v21v0v2l-1 62l-1 1v1l1 1l-1 5l-2 34l1 1h47l10 1v-1l1 1h12l6 1v-1l3 1l44 2l3 1l1 -3v-37l1 -7h-1l1 -2q0 -22 5 -66h1q6 19 12 84q4 15 6 15q14 0 136 -22q14 -1 14 -2l1 1l4 -1h19q36 0 68 17
h16l68 -4v-1v1l6 -1h28v-5v-24v-1v-1v-1v-11q3 0 9 41l5 10q46 -5 137 -24l41 -4l7 1l3 -1l4 1l1 -1v0l1 1h1l8 -1h1l2 13h13h21q107 0 270 36l73 14l1 -1v-4l-1 -1l1 -1v-8l-1 -1l1 -1v-2l-1 -1l1 -1v-3q0 -30 8 -61h2l-1 5v4l1 1l-1 1v8l1 1l-1 1v78h1l-1 1v2zM1510 523
v-32q8 0 14 -23l1 -13v-1l-2 -47v0v-1v-5v-18v-14v-1l-5 1q-9 0 -9 -10l1 -29h74q20 16 27 38q12 27 12 57v2v1v1v3v1v1v1q0 66 -49 90q-12 4 -26 5l-4 -1v1q-16 -2 -34 -7zM1368 494l4 -27v-5v-1q0 -3 5 -3l8 2h2q3 0 6 -42q10 -74 10 -86h-16v0l4 -34l2 -3q30 4 46 4h6v2
l-4 30v4l1 1v1h-1l-15 -1l-2 3v6l-4 26q0 6 5 9h5q22 0 42 -69v-1q0 -4 6 -4v0q19 5 24 5l3 -1q0 6 -32 59q-7 13 -10 27q7 10 10 37l-1 1l1 4v2l-1 5h1q0 24 -15 52l-6 6h-15q-37 0 -69 -8v-1zM1652 448v-2l-1 -1l1 -1v-4q5 -47 32 -47q20 0 35 -10l3 -4v-7q-3 -18 -11 -18
q-4 -2 -14 -2h-1q-22 0 -22 9q-4 25 -13 25h-1q-10 0 -12 -15l4 -39h-1h1v-4l-1 -1l1 -1l-1 -5v-3l24 -3l1 1h1l1 -1q55 3 68 37q3 10 3 21q0 36 -25 46q-43 11 -50 20v6q0 19 15 25l6 1h4q18 0 18 -14q2 0 2 -11v-12h5l18 3q-2 12 -3 27l3 39l-65 -1v1q-25 -16 -25 -55z
M466 489h-4q-41 0 -54 -38q-3 -11 -3 -20v-5q0 -32 17 -39q5 -3 46 -16q9 -6 9 -8v-4q0 -23 -15 -23h-19l-5 1l-3 -1q-7 8 -14 34l-4 -3l-13 1l-1 -3q5 -44 5 -57l-1 -10h8v-1q9 0 17 12v0q12 -9 23 -9h4q29 0 41 50l1 12q-2 37 -20 45q-49 4 -49 15q-3 3 -3 10v2
q0 18 25 21h1q16 0 16 -14q0 -22 10 -22h2l11 3v65l-22 2l-3 1zM1550 488h10q29 -2 29 -7q8 -27 8 -51v-13l-1 -1l1 -1q0 -19 -13 -44l-5 -3h-29l-2 2v116zM533 472q-3 -14 -3 -30l1 -8h8q5 0 5 -4q-5 -81 -14 -111q-2 -13 -4 -13h-1q-5 0 -12 2v-1l1 -4l-3 -31l1 -4h9
l38 -8h6v5l4 27v6h-8q-5 0 -6 4q4 44 10 44l7 3q22 -39 22 -79v-14q20 -4 28 -4h6v6l5 27v6q-22 0 -31 64q-4 12 -11 20v1q17 27 27 36q10 6 18 7v38l-42 7v-11v-1v-1v-4v-3q0 -18 6 -22q-8 -5 -23 -29q-8 -6 -11 -6l-1 2v7q1 30 5 30h13v8l4 26v4h-1l-46 8h-7zM912 472
q-4 -11 -4 -33v-5h11l4 -4l-18 -112l-1 -1h-10l-1 1q-4 0 -8 -31v-1v-3l104 -15v11l8 53v4h-4l-13 5h-5q-2 -35 -6 -35l-16 4l-1 -1l-4 1h-6q-11 0 -16 7l7 35q4 5 9 5q6 0 6 -5l-4 -13v-2l1 1h2q3 0 14 -6q6 1 6 11q4 12 8 63h-6l-11 3h-4l1 -14q-2 -5 -3 -5q-12 0 -12 13
v1q0 15 7 26q4 -2 13 -4l3 1h6v-1l1 1h1l1 -1l1 1q13 -1 13 -6l-4 -30q0 -3 4 -3v-1l1 1h4v-1l1 1l11 -4v2v7v0v1v1l4 52v6q-19 8 -95 19zM1444 465q8 -7 8 -19v-4q0 -16 -26 -23l-8 -1q-3 0 -7 39l-1 7l1 1h33zM778 460q-10 -44 -10 -83v-1q13 -5 20 -5h2q2 0 5 42l4 13
q16 -6 16 -42v-10l-1 -1l1 -1q-5 -45 -5 -57l-1 -1l1 -1v-2l-2 -2h-22l-1 -1h-1l1 -1v-28l-1 -7l1 -1h70v35h-15q-10 0 -10 7q4 16 4 31v1l1 1l-1 1l1 10v26v1v1q2 34 7 37h12l2 -1v-52l2 -1l1 1h15v-1l1 1h2l1 -1h1v1v84l-41 3l-1 1l-1 -1l-4 1h-17l-1 1l-1 -1l-4 1
q-18 0 -31 2zM1014 440v-6l1 -7h-1l1 -1v-3l-1 -1l1 -4l10 1h5l2 -3v-9l-2 -56h-1l1 -1l-1 -5v-10l-1 -1l1 -1l-1 -14v-1l1 -7h-1l1 -1v-8q0 -4 -17 -5l-1 -1v-35q0 -3 30 -6h7q54 0 71 46q2 7 2 16q0 24 -15 47q12 21 12 39q0 45 -70 56l-1 -1l-4 1q-27 0 -27 -6zM1131 375
v-1q0 -64 32 -98q12 -12 30 -12q36 0 48 60q2 13 2 34v0v5v0q-3 34 -12 58q-19 38 -44 38h-4q-34 0 -48 -48q-4 -20 -4 -36zM1183 425h2q27 0 35 -65v-6q0 -40 -19 -53q-4 -3 -11 -3h-2q-26 0 -34 62v10q0 44 22 53zM1057 418q35 -4 35 -9v-22q-5 -8 -20 -8h-18l-1 1v0v4v8
v0v1v6q0 19 4 19zM1305 402q5 0 11 -25l6 -7q0 -5 -17 -7l-1 -2q-3 1 -5 12q5 29 6 29zM1627 400l-1 -9v-20l3 -13v0v32q0 10 -2 10zM700 386h1q7 0 12 -41h-18l-2 1zM1051 345q10 -4 41 -7q4 -6 4 -17q-2 -23 -5 -23h-40l-2 2v43zM723 310q1 0 2 -10q2 0 3 -7l-1 -2h-13
v-35l38 -1l11 3v-2q0 -3 -13 -5l-50 2l-3 -1l-1 1v19l1 1l-1 1v1l1 1q0 16 -8 16h-5l-5 -1l-1 1v2l6 16h39z" />
    <glyph glyph-name="J" unicode="J" horiz-adv-x="2133" 
d="M1385 1941h3l3 -3v-8q0 -56 57 -115h3q3 0 3 10h2l-3 23h3q20 -67 35 -67q7 0 13 19h2q7 0 7 -35q4 -7 10 -7h9q6 0 6 4h3v-7q0 -15 35 -59q6 -12 8 -31q8 -5 27 -5h21v-2q-30 -5 -55 -14v-3q0 -4 25 -8l1 -2v-1q-6 -5 -17 -5h-10q19 -67 62 -155q30 -82 30 -111
q-51 -18 -192 -49q-37 110 -120 203q-68 67 -131 99q-87 40 -129 45q-62 12 -94 12l-1 -1l-6 1h-30l-13 -1v1l-1 -1h-6q-23 0 -74 -8q-30 119 -50 183q40 16 112 29q67 9 94 9l4 1v-1l1 1h13l25 1v-1l1 1h40l1 -1l1 1h3l1 -1l1 1q110 0 252 -35l13 -5q5 9 5 20l-8 58h1l-1 1
q2 19 5 19zM777 1829q15 -74 44 -183q-118 -42 -212 -129q-73 -75 -103 -144q-42 -102 -42 -190v-14l-2 -1l2 -1v-4l-2 -1l2 -1v-10q0 -40 8 -92h-2l-5 1q-9 0 -15 -9v-2q0 -4 5 -4v-3h-1q-50 0 -202 -34q-8 22 -12 80h1l-1 1v1q0 125 -36 156v1q30 0 33 37q0 21 22 40
q-33 21 -69 25l-46 10l-2 -1h-2l-1 1l-2 -1h-7l-3 3l30 2h9l1 -1l2 1q30 0 62 -17q48 10 48 42q0 16 -18 33v1l20 8h4q9 -6 9 -14q36 69 71 121q26 42 107 125q131 115 283 161zM1686 1653h3q19 0 29 -14q0 -13 -29 -15v1l-1 -1q-27 4 -27 10q6 19 25 19zM942 1623v-2l1 2
h40l2 -2l1 2l6 -2q100 0 225 -55q41 -21 83 -59q10 -10 10 -14h-2q-61 6 -92 6v1l-1 -1l-19 1h-23l-5 -1l-1 1l-7 -1q-118 0 -205 -55q-37 -28 -53 -58q-25 -48 -25 -97q0 -42 55 -186q13 -45 13 -76q0 -76 -94 -107q-28 -6 -45 -6h-16q-107 0 -214 87q-61 60 -61 116h2
q44 -93 174 -146q46 -17 85 -17h9q73 0 121 62l1 7v12l1 1l-1 1l1 7v10l-1 5l1 1q0 52 -36 111q-30 39 -85 83q-7 8 -30 11q-4 0 -6 -9h-3q0 17 -48 41q-38 12 -68 12h-12q-58 0 -90 -33l-1 2q3 47 37 110q29 51 105 126q89 76 157 91q72 17 114 18zM1381 1380h1
q66 -75 66 -216v-15l-1 -1l1 -1q-7 -84 -27 -145q-50 -136 -130 -184l2 -24v-1q0 -8 -10 -15q-11 9 -13 20q-63 -58 -182 -86q-27 -5 -73 -8v1l-2 -1h-37l-1 1l-2 -1q-89 7 -145 25q-109 35 -193 111q-70 74 -79 115q-11 27 -11 36q39 -49 75 -75q57 -41 109 -64
q140 -59 233 -59v-1l1 1l7 -1h20q161 0 245 92q48 65 48 131v1l2 1l-2 1l2 8l-2 11h2l-2 4q0 44 -23 89l-5 2q-3 0 -19 -28q-7 -5 -11 -5h-3l-2 2v2q0 3 8 5q0 4 19 27v7q0 27 -44 61l-5 10q14 88 14 111q84 56 169 56zM1679 1309h2q8 -10 15 -106v-66l-2 -2l2 -1l-2 -6
q0 -62 -20 -183q5 0 5 -3l-3 -3h-4q-3 0 -4 5h-1l-13 -48v-1q2 -11 12 -11h2q7 0 14 5h1l3 -3v-1q-6 -9 -23 -9q-4 0 -10 5q-22 -22 -22 -41v-9q0 -11 10 -18v-1q-20 0 -34 -48q-12 -21 -18 -21q0 -20 35 -29v-2q-10 -6 -10 -10q2 -16 5 -16q18 14 43 14q31 0 65 -35l4 -7
q8 0 8 9l-1 39q6 3 16 3h2q28 0 47 -29q8 28 13 29q5 -6 5 -36v-5l1 -5l-1 -1l3 -38h-1q-8 2 -34 57q-15 19 -36 19q-6 -16 -6 -37v-2l14 -96l1 -19l-1 -1v-1l1 -1l-1 -7v-5h17q13 0 16 20l-1 2v2q0 10 -11 63v1l2 3q14 -10 38 -61q18 -22 37 -22q3 16 3 44v12q0 86 -30 119
q10 10 34 10q42 0 60 -29l3 -10q-2 -19 -6 -19q-10 6 -24 39q-11 15 -23 15h-4l-11 -8q0 -9 43 -80q14 -30 14 -64v-3l-1 -12h29q0 81 23 166q2 0 4 9h-16l-6 1v2q17 8 27 8h6q48 0 82 -61q7 -19 7 -32v-2q-6 -7 -16 -7h-6q-13 0 -20 6h-2q-23 -33 -23 -117v-1l-2 -1l2 -2
l-2 -7q0 -46 -15 -87h-1q-8 8 -26 76q-17 33 -36 33l-2 2v-7l9 -40q0 -10 -6 -10l-9 -1h-11q-23 0 -54 29v-17q0 -16 -6 -23l-21 1h-4l-46 -7q-16 0 -30 18h-2q-6 -11 -6 -23l3 -56q-4 -25 -9 -25h-3q-13 0 -13 21l3 47l-1 8q-16 -10 -16 -36v-15l2 -56l2 -3l-2 -2l2 -8v-5
l-2 -2l2 -1q-3 -20 -8 -31h-4q-13 31 -13 65h1l-1 1v54l-2 9h2l-2 4q0 61 -40 74l-8 2v-2l-2 -5l4 -41q0 -9 -9 -15h-7q-10 0 -30 5q-18 -2 -18 -17l-3 -2l-34 20q-15 -17 -36 -17l-13 2q-25 0 -42 -13l-2 -7v-53l2 -15h-2l2 -2v-21l1 -28q-3 -70 -10 -75h-1q-15 30 -15 72
l1 1v1l-1 1l1 7l2 76h2l-2 2v1l2 15l-2 13h2l-2 1v11l-1 6q-29 -12 -60 -12q-38 0 -46 26q-33 -37 -40 -40l-6 -1q-60 0 -113 69q-7 11 -7 19v1l2 3q44 -33 70 -33h2q23 0 28 40l-1 1v17q-5 10 -17 10h-14q-4 0 -4 -8h-1q2 -6 2 -25l-3 -2h-5q-23 0 -32 35l-3 29q3 49 10 49
q15 0 27 -26q6 -4 14 -4q14 3 14 14v7q-15 37 -30 37h-23q-30 0 -41 -31q-4 -13 -4 -26v-4l4 -55l-1 -4h-4l-8 58h2l-2 1l3 64q0 17 -4 37q94 34 168 87q92 73 136 150l2 2q0 6 -15 18v9q0 2 16 5q29 18 44 74l4 29q0 15 -6 26q20 54 20 112v13q0 27 -7 72q31 0 165 37z
M1723 1023l1 -1l-3 -10q0 -2 3 -2l2 -2v-1q0 -10 -20 -14q-1 -6 -4 -6l-4 4q0 3 5 3v3q0 3 -6 4q7 22 24 22h2zM486 1016q30 -93 61 -137q45 -53 83 -67q42 -81 168 -128q92 -28 165 -28v-1l2 1l12 -1h40l6 1v-1l4 1l43 2l1 -1v-1l-1 -1l1 -2v-9q0 -25 46 -80q6 -15 6 -20
v-4q0 -13 -16 -29v-1q11 -14 20 -54q3 -29 21 -57v-2q-4 -11 -21 -17q-16 -5 -37 -5h-2q-34 0 -53 15q-29 -26 -35 -26l-10 -1h-5v-79l1 -5l-1 -1v-1l1 -4h-1l1 -1v-55q0 -43 -8 -70h-1q-16 19 -16 62v39l1 1l-1 1l1 7v14l1 1l-1 1l1 6v14l2 2l-2 1l2 6v23q0 36 -8 36
q-25 18 -31 30q-6 -2 -6 -7l2 -23q-2 -5 -4 -5h-8q-5 0 -13 -7h-4q-14 0 -30 25l-7 2q-3 0 -5 -26l-6 -8l-25 2h-4l-74 -5q-55 0 -77 50h-1q-25 -57 -70 -76l-2 -12l2 -1v-13l-2 -1l2 -2v-1l1 -63q-3 -44 -10 -46q-15 12 -15 39l2 61h2l-2 2v1l2 1v1l-2 5h2q0 17 -7 17
q-38 8 -100 70q-37 38 -47 44h-1q36 -55 36 -89q0 -26 -30 -36q-13 -4 -26 -4h-4q-25 0 -54 35l-16 13h-1v-9l1 -5q-3 -22 -9 -41q-11 -5 -26 -5q-17 0 -51 32h-3q-6 -12 -6 -27l2 -51h-1l1 -1q-1 -12 -3 -12h-8q-6 3 -6 10v4q0 20 2 27l-1 3h1q-1 13 -8 13v-1
q-8 -25 -8 -60v-15l1 -58l2 -3h-2l2 -2v-13l1 -16h-1l1 -1v-35l-1 -1l1 -2q-5 -47 -15 -65h-3v263l-2 3h-5l-25 -9h-4q-32 0 -75 65q-12 24 -16 67q1 14 5 14q6 -7 17 -72v-1l-1 -9l25 -4h9q46 0 60 66l1 21q0 66 -51 91l-13 1h-8l-3 2v3q0 2 8 5l53 -19l2 1h2
q15 -18 40 -108q19 -44 26 -44q11 0 28 27q9 25 9 54v8l1 2l-1 1v19q0 52 3 68l-7 -1l-11 2l2 3h5l1 -2l2 2h1l1 -2l4 2l5 -3q48 18 61 18q34 0 76 -62l10 -10q20 8 33 8q40 0 46 -33v-10q-7 -9 -24 -9q-14 0 -46 14v-2q2 -16 23 -39q24 -17 46 -17l1 1h9q44 0 81 45
q11 18 11 38q0 25 -23 52l-5 1q-7 0 -18 -14l-5 -1v-9q0 -10 15 -48l1 -11q0 -17 -10 -23q-20 -7 -38 -7h-5q-22 0 -55 6v4q0 4 17 6l6 -1l2 1h1l6 -1q18 0 18 16q2 0 2 7v3l-16 33l-3 10v10q0 13 35 29q13 5 37 5h5q-19 19 -47 19h-12q-47 0 -74 -39l-6 -20h-1l-2 1v4
q0 33 47 60q14 5 33 5q49 0 114 -70q35 -30 43 -30v2q0 8 -39 57q-8 13 -11 24q-170 63 -305 308l-25 -7h-2l-1 1h-1q5 9 5 21q0 34 -26 91q24 15 101 34q89 17 126 29zM237 819l2 -1v-1q-44 -27 -58 -28l-1 1v2q24 21 57 27zM1987 735q-6 -6 -6 -20l3 -15h5q4 0 4 5l1 1
l-1 1q-5 0 -5 3v4h1l15 -12h7q6 3 6 9v6q0 15 -30 18zM1944 729v-1l-6 -7l-1 2v1zM1936 719l2 -3v-4l-2 -2h-2q-2 0 -2 4q2 5 4 5zM1647 686l1 -15v-8l-11 -109v-8q0 -20 9 -35q18 0 23 33q6 16 19 16h8q6 -2 21 -31l12 -5h13l2 2v1q-9 19 -30 110q-17 50 -50 50h-5z
M1526 672q3 -18 5 -44h-2l2 -1v-40l1 -7h-1l1 -3q0 -60 36 -72q8 4 8 15l-10 44q0 10 3 10h7l1 -1l1 1h1l2 -1q41 11 41 25q5 12 6 26l-1 4h1q0 30 -35 48q-11 5 -24 5h-3q-19 0 -40 -9zM1489 668q0 -5 -7 -5q-21 1 -21 3l-7 -1v-22q0 -33 -12 -61h-1q-3 0 -13 39l-16 36
h-42l2 -20h-1l1 -1v-2l1 -34l2 -1v-1l-2 -1q6 -96 33 -114q13 6 13 21q0 9 -8 50q0 14 7 20q10 -42 18 -64q13 -19 23 -19h2q7 0 16 86q2 0 4 10h2l3 -18h-2l2 -1v-17q0 -53 26 -53q7 14 7 42q0 64 -28 128h-2zM1256 623v-39q0 -84 31 -109q17 -5 29 -5q35 0 47 44l3 23v4
q0 66 -43 102q-13 8 -23 8q-19 0 -44 -28zM1563 652h6q22 0 28 -35q-4 0 -18 -15l-5 -2h-5q-8 7 -8 19v31zM1676 636q13 -11 13 -41v-6l-2 -2h-3q-11 0 -11 13zM1300 617h1q21 -5 21 -22q9 -44 9 -69q-1 -22 -6 -22h-3q-27 0 -31 50l-1 9h1l-1 1q3 49 10 53zM978 602
q10 -45 22 -168q42 0 91 14v3l-8 24v1h-8l-37 -9h-7l-4 4v40q0 4 33 9q5 5 5 9q0 17 -12 17l-25 -2q-8 0 -8 9v26l2 3h20q21 0 28 13q-6 19 -24 19h-6q-15 0 -62 -12zM867 534v-12q0 -40 19 -89q18 -9 30 -9h7l2 -1q26 0 52 25v15l-1 5l1 2l-1 6v17l-1 7h1l-1 4q0 53 -27 90
q-17 6 -31 6q-37 0 -47 -41zM808 577v-3l8 -45q0 -12 -10 -19h-10q-18 0 -18 51q-2 19 -18 19h-2q-11 -12 -11 -41v-2l-1 -1l1 -1v-1l-1 -2l1 -1v-9l-1 -1l1 -1v-1q0 -59 30 -112l4 -2q16 0 16 17l-5 39v7q3 15 15 15h13q2 0 6 -53q7 -17 17 -17q17 12 17 41q0 22 -25 128
q0 4 -3 6l-1 -1h-10l-1 1q-12 -1 -12 -11zM630 524v-4q0 -22 62 -54q14 -14 14 -20v-5q0 -10 -14 -22q-12 5 -20 17v1l4 4h1q9 -13 15 -13v5q0 15 -23 15q-32 -4 -32 -15v-1q17 -38 58 -38h5q43 6 43 39l2 9q0 29 -25 38q-44 25 -49 37q-3 0 -7 22q4 2 13 2q10 0 32 -20h3
q7 0 9 5q0 30 -27 39l-14 1h-1q-49 -7 -49 -42zM915 568l13 -2v-1q15 -66 15 -80q0 -20 -15 -31q-20 0 -26 55v20q0 37 6 37zM287 480v-5q0 -31 53 -47q26 -15 26 -43l-17 -9h-4q-12 0 -23 24q-5 5 -10 5h-8q-3 0 -8 -15l1 -1v-1l-1 -2q0 -23 39 -34l11 -1h4l1 -1
q44 7 44 26l1 17v2q0 36 -57 63q-22 19 -23 30v2q6 7 16 7q6 0 25 -17l8 -3q14 2 14 8q-7 24 -27 36q-12 5 -22 5q-30 0 -41 -35zM176 511q54 -11 54 -28h1q4 0 6 14l-1 4h1l-1 1v2l1 1l-1 1v1l4 4q4 -5 4 -11q-8 -67 -8 -85v-2l1 -13h-2q-21 38 -34 104l-1 -2l-25 2h-4
q-5 0 -5 -11h-2v11q0 4 12 7zM104 468h1l24 -7l1 1l1 -1v-2l10 -71v-7q-2 -31 -29 -31h-3v1l1 1l-1 2v2l-10 88v4q1 20 5 20zM1631 422q19 0 35 -39q2 -5 2 -14v-4l-2 -2h-5q-18 0 -22 31q0 19 -13 24v2z" />
    <glyph glyph-name="K" unicode="K" horiz-adv-x="2149" 
d="M64 2166h2021l4 -3v-2160l-4 -3h-2021l-4 3v2160zM1050 1837q-272 0 -477 -135q-214 -125 -254 -243v-9l7 -24q0 -18 -24 -36q-6 -8 -6 -18l7 -17q-45 -53 -45 -194q0 -122 33 -185q-66 -28 -86 -77v-7q91 -30 300 -79q167 -51 210 -132v-5h-13l-7 2l-2 -2l-8 2h-9
q-25 0 -25 -13l-2 -8l2 -2l-2 -35v-8l-1 -2l1 -2q-16 -158 -16 -223h-1l1 -2v-17l-1 -2l1 -2v-2l-1 -1l1 -12v-28q53 5 127 52q65 49 120 62q9 -90 25 -114q11 -17 32 -17q48 0 92 90q12 19 19 24q13 0 34 -63l3 -12h28q43 0 66 14v28q0 48 44 92h1q13 -9 50 -64l21 -16
q27 0 58 43q36 64 53 73l5 4q25 -19 60 -66l27 -16q16 0 39 66q-16 28 -16 68v12l-2 8h2l-2 2l2 9v54q0 54 -11 91q45 34 205 77q134 42 134 98q0 25 -28 61v2q48 50 74 177l3 38v7l2 1l-2 2v21q0 67 -51 95v14l2 2l-2 1v2l2 2l-2 2v3l2 2l-2 2v3l2 2q0 62 -78 180
q-46 90 -91 140q-59 50 -237 116q-79 28 -143 28h-3l-13 -2v2l-1 -2l-62 -1h-9q-23 0 -76 17l-23 2h-9l-1 2l-2 -2l-12 2h-13l-21 -2v2zM939 1544h1l37 -7h9v-2q-16 -22 -16 -26q10 -19 13 -19h2q14 0 21 14q9 -10 9 -21v-7l-4 -3l-30 10q-7 -8 -11 -24q4 -21 39 -21
q23 0 50 16v-2q0 -11 -13 -28q-19 6 -31 6h-69l-2 1h-2q5 20 5 51v10q0 34 -19 43v4q2 5 11 5zM1119 1544h1q53 0 76 -24q0 -13 -26 -35v-2q0 -9 35 -52l2 -7q-9 -5 -20 -5q-16 0 -35 64l-3 4q19 5 19 10v16q0 19 -30 19h-9q-9 -23 -9 -37v-3l4 -61v-7h-34l-1 2h-2
q9 17 9 43q0 21 -11 68q14 7 34 7zM1295 1544q35 0 58 -45l4 -21q0 -36 -37 -52v2q10 31 10 59v10q-6 37 -30 37h-14q-24 0 -28 -61q0 -36 26 -47v-3q-54 5 -54 45l-2 10q10 66 67 66zM813 1539h39v-2q0 -3 -28 -14l-11 -12l-3 3v21zM872 1539h7q24 0 24 -9l-40 -62
q-7 -15 -9 -28l18 -7q10 0 35 28l7 1l2 -1v-9q-6 -22 -9 -22h-95q0 11 49 62l5 19v3l-5 21zM1015 1539h5q28 0 28 -5v-25l-3 -3q-18 28 -36 28v1zM1486 1315v-2l1 2h44q114 0 161 -48q14 -41 14 -89q0 -147 -192 -227q-65 -19 -113 -19q-94 0 -141 70q-46 54 -46 110
q0 62 53 84q51 30 129 88q45 28 60 28zM660 1313q40 0 69 -26q10 -12 148 -15l12 -2l11 -3q14 -23 79 -75q26 -27 30 -47q0 -43 -69 -109q-21 -22 -26 -52q-64 -34 -184 -34v1l-1 -1q-159 15 -240 48q-32 43 -32 99v10q0 96 56 172q100 34 147 34zM1075 894h24q9 0 27 -104
l1 -40v-3q0 -37 -7 -37q-23 8 -56 65q-16 15 -37 15h-7q-15 0 -69 -38l-19 -5l-2 2v1q0 20 63 68q68 76 82 76z" />
    <glyph glyph-name="L" unicode="L" horiz-adv-x="2166" 
d="M399 2038l5 -2l2 2l9 -2h84l2 -1l1 1l27 -1h35l1 -2l2 2h2l2 -2l1 2l13 -2h45l7 -2l2 2l44 -2h269l2 -2l1 2l425 -3v-2l2 2l178 -2h102l44 2v-2l1 2h128q187 0 231 -55q37 -60 37 -209l1 -7h-1l1 -2v-84l-1 -24l1 -2l-1 -51v-1093l-2 -2l2 -2v-61l1 -9h-1l1 -2v-3l-1 -2
l1 -1v-40l2 -10l-2 -2v-2l2 -5h-2l2 -1v-121l-2 -1l2 -2l-2 -9v-15l-1 -2l1 -1q-5 -60 -21 -109q-20 -50 -57 -66q-74 -28 -170 -28l-5 -2v2l-2 -2h-161l-2 2l-5 -2l-2 2h-1l-2 -2l-9 2h-17q-146 0 -231 -3v1l-2 -1h-26l-152 -2v2l-2 -2h-124l-2 2l-2 -2h-2l-1 2l-2 -2
l-149 2h-29l-2 1l-2 -1h-16l-1 1l-2 -1l-9 1h-72l-1 2l-2 -2h-4l-1 2l-2 -2l-11 2l-134 2v2l-2 -2l-26 2h-35l-2 1l-2 -1l-8 1h-49l-2 2l-2 -2l-21 2h-33l-2 2l-2 -2l-17 2h-28l-11 1l-1 -1l-6 1l-141 2v2l-2 -2l-10 2q-133 0 -172 98q-30 78 -30 214h2l-2 2v147l-1 9h1
l-1 2l-2 240v101l2 2l-2 1v26l2 2l-2 2v1l2 2l-2 2l2 8v98l1 7l-1 2l1 55v48l2 1l-2 2v2l2 1l-2 2l2 38v60l2 2l-2 1v4l2 2l-2 1l2 38v81l2 1l-2 2l2 62l-2 291h2l-2 2l3 91h2l-2 2l2 8q0 145 63 208q40 29 89 38q74 8 153 8h15zM1134 1769v-151l-2 -2v-2q90 -17 145 -37
q73 -29 142 -78l14 -10q35 18 115 110q-142 117 -348 161zM978 1764q-132 0 -297 -86q-58 -33 -117 -86q70 -74 110 -108h2q124 99 290 127q19 0 19 5v146l-2 2v1zM490 1034h-2l2 -1l-2 -12v-16q0 -313 268 -490q137 -79 297 -79q252 0 437 188q133 163 133 338v4h2l-2 8v31
l2 2l-2 2v3q0 168 -119 331q-113 144 -290 198q-74 17 -117 17v1l-2 -1l-12 1h-3q-301 0 -487 -231q-103 -150 -103 -294zM1548 1378q58 -81 89 -157q37 -103 37 -149l2 -2h154l1 2h2q-17 140 -61 240q-29 73 -115 174l-2 1h-2q-92 -80 -105 -109zM446 1482
q-73 -100 -106 -177q-58 -150 -60 -235h158q21 136 77 232q30 48 49 70q-66 89 -114 110h-4zM1062 1403q230 0 357 -211q45 -94 45 -190v-14q0 -290 -323 -391l-7 -2l-2 2v173l2 2v2q118 -47 173 -62q5 38 5 74v15l-2 7l2 2q-3 58 -16 58q-32 15 -157 62l-7 7v39h2
q35 -8 164 -60h4l5 28l-2 121q-32 23 -133 55q-31 15 -40 24v38l3 3l170 -67v157q-65 30 -248 103q-182 -73 -256 -98v-156q66 13 147 53l32 8l2 -1v-9q0 -59 -130 -82q-47 -15 -51 -24v-153h2q91 29 172 65l1 -1q4 -7 4 -19v-2q0 -45 -135 -74l-44 -17v-156h2q48 12 149 53
l31 9l2 -2v-62l2 -8h-2l2 -2v-2l-2 -2l2 -1v-36q0 -43 -7 -64q-170 46 -252 156q-66 88 -79 193l-3 39h2l-2 5q0 224 201 357q107 58 215 58zM366 925q-40 0 -80 -5q0 -56 49 -208q60 -156 176 -276q121 -112 207 -146q63 -31 141 -52q120 -24 182 -24l5 2v-2l2 2h18l14 -2
q110 0 258 52q85 30 196 111q131 102 189 208q42 63 77 166q30 103 30 169l-42 3h-2l-2 2l-2 -2l-8 2h-16q-84 0 -84 -11q0 -38 -51 -175q-40 -98 -140 -200q-102 -94 -216 -132q-116 -33 -181 -33v2l-1 -2h-44l-7 2l-2 -2q-83 0 -204 39q-204 80 -319 295q-42 85 -71 186
q0 27 -16 27q-15 4 -38 4h-4l-2 1l-1 -1h-11z" />
    <glyph glyph-name="M" unicode="M" horiz-adv-x="2110" 
d="M1049 1520q17 0 136 -128l760 -749l105 -100v-1h-1q-45 0 -141 47q-43 17 -74 17q-40 0 -181 -63q-435 -168 -539 -212q-29 -11 -67 -17q-35 0 -115 36q-32 11 -47 11v3q169 76 488 189q105 40 129 54q-23 0 -163 63q-39 11 -64 11q-39 0 -164 -57l-476 -180h-2l-182 57
v1q195 79 774 295v1q-26 0 -176 69q-44 12 -74 12q-52 0 -218 -75q-505 -190 -619 -236q-58 -31 -77 -31l-1 2v3q0 23 498 502q2 0 163 155q246 239 295 293q29 28 33 28z" />
    <glyph glyph-name="N" unicode="N" horiz-adv-x="2091" 
d="M981 1411v-1l1 1h23l1 -1l1 1q58 0 161 -43q69 -33 121 -73q34 -23 109 -109q85 -111 117 -134q58 -39 118 -39h1l4 -1l4 1v-1l1 1h1l1 -1q78 0 213 79q35 19 73 34q43 -29 43 -75v-9q0 -70 -68 -155q-58 -54 -124 -91l-89 -47q26 -33 116 -33h50l7 -1l1 1l6 -1
q77 0 105 -63q18 -28 36 -96q17 -78 17 -152q0 -140 -71 -184q-41 -32 -132 -49q-87 -13 -140 -13v1l-1 -1h-35l-94 1v2l-1 -2l-16 2h-18l-7 1l-1 -1l-5 1h-11q-16 0 -25 -33l-5 -6l-31 2h-1l-2 2l-1 -2h-17l-1 2l-1 -2h-16l-6 -1v1l-3 -1l-99 -9q-60 0 -83 38
q-120 -43 -153 -43q-70 -15 -238 -27v1l-3 -1l-36 -3v1l-1 -1h-13l-5 -1v1l-1 -1h-14l-5 -2v2l-2 -2h-14l-4 -1l-1 1q-15 -2 -37 -2l-3 -1v1l-1 -1h-1l-123 -8l-3 -1v1l-1 -1h-18l-7 -1v1l-1 -1h-22l-4 -2l-1 2l-8 -2h-23l-6 -1v1l-1 -1h-2l-1 1l-1 -1h-34l-13 -1v1l-1 -1
h-1l-1 1l-1 -1h-31l-27 -1v1l-1 -1h-1l-92 -2l-5 -1v1l-2 -1h-1l-1 1l-1 -1h-26l-4 -1l-1 1l-8 -1h-16l-5 -1v1l-3 -1q-30 0 -117 -8l-1 1v2q27 97 63 186q46 110 144 315q37 89 40 90l49 -4l3 2v-2l1 2l5 -2h1l6 2v-2l1 2h1l1 -2l1 2h3q20 0 49 10q-59 73 -59 124v4
q0 102 160 338l66 105q21 0 51 24q13 16 32 57q34 42 107 69q55 22 119 34zM703 1241q94 -17 143 -38q93 -38 182 -107q67 -55 122 -111q139 -154 189 -185q87 -56 154 -56v-2l1 2l5 -2h13q35 0 57 6q-35 109 -98 225q-41 75 -115 167q-80 89 -131 122q-92 67 -192 87
q-43 8 -67 8h-21q-129 0 -223 -90zM400 753q12 -24 56 -61q7 -6 15 -6l1 -1l1 1h29l1 -1l1 1h25l6 1v-1l1 1h1q109 0 348 86q110 27 159 58q41 27 56 63q-42 0 -288 -85q-119 -34 -180 -34h-13q-77 0 -103 57q-9 24 -9 51h1l-1 2q0 101 143 243q71 79 71 92q2 0 2 5h-63
q-145 -197 -184 -279q-44 -81 -73 -178zM577 902v-2l-1 -1l1 -2v-3h-1q5 -62 15 -62q38 -5 84 -5l5 1v-1l1 1h4q139 0 378 112q-5 37 -42 87q-50 59 -96 86q-71 43 -123 47q-90 0 -173 -113q-52 -80 -52 -145zM815 1119q53 0 119 -73q31 -32 65 -53q-37 -61 -127 -91
q-76 -20 -118 -20l-20 -2v1l-1 -1h-17l-5 -2v2l-4 -2l-75 -1l-1 1v2q66 239 184 239zM1713 975q-60 0 -187 37l-26 5l-1 -1l-5 1h-11v-5q0 -32 41 -100q10 -17 40 -89q13 -31 42 -53q210 101 266 164q53 56 71 101l2 5h-20q-2 0 -3 7h-6q-89 -72 -203 -72zM790 671v-2
q43 -8 86 -8l46 1l5 1v-1l1 1h14l6 1v-1l1 1h1l84 7v-2l1 2h1l75 2h21l65 -2q11 21 14 22h2v2q25 0 105 -9l4 -1q27 0 44 16v1q-99 71 -160 131l-20 22q-32 -36 -98 -70q-74 -32 -221 -80zM1185 766q36 0 88 -32v-3q-109 -23 -186 -23v3q42 55 98 55zM1720 663l2 -70
q0 -21 -8 -31q-9 17 -16 90q-3 0 -3 10q-1 0 -2 6l-4 3l-1 -2l-11 2h-16l-4 -2l-1 2q-55 0 -143 -33q-40 -18 -88 -52v2q-8 59 -14 59q-63 -20 -104 -20l-18 -3v1l-1 -1h-16l-6 -1l2 -43v-59l-1 -1l1 -2l-4 -85h-1l1 -1q-8 -101 -8 -141l-1 -8l1 -1l-1 -15v-26l1 -15h-1
l1 -1v-9q0 -40 6 -40l16 -1h9q21 0 127 22q26 2 26 5v19l-1 9h1l-1 4q-13 134 -13 152q0 23 5 48h2v-1q7 -65 34 -198q0 -16 15 -23q56 -39 119 -39h3l1 -1l1 1h2l1 -1l1 1h5q63 0 91 43l1 7l-2 13h1q33 -36 93 -36v-1l1 1h12q81 0 132 50q30 56 30 165v32l-1 6h1l-1 4
q0 87 -37 166q-20 34 -70 49l-32 5l-2 -1l-5 1h-15l-1 1l-1 -1q-38 3 -70 8q-20 -15 -20 -22zM537 617q36 -83 52 -102q29 -29 48 -29v1q-6 19 -6 41l6 86l1 1q-17 17 -50 17t-51 -15zM966 623h-27l-16 -1v1l-3 -1l-45 -2l-2 -1h-1l-1 1l-20 -2v1l-1 -1h-1q-115 -9 -154 -18
q-7 -55 -7 -92h-1l1 -1l-1 -9v-17q0 -35 2 -49h-1l1 -4q0 -47 20 -112h3l23 1v-1l1 1l4 -1l74 -2l5 2v-2l35 8v138q25 32 98 32l1 1h1l1 -1l6 1h30l1 -1l1 1l29 -1h51q8 0 8 18q0 16 -22 91l-2 22h-11l-1 1l-1 -1l-8 1h-16l-43 -1v1l-1 -1h-1l-1 1zM1078 600q28 -82 28 -145
h-1l1 -1v-1q0 -115 -44 -154q-118 -20 -179 -20l-3 -1v1l-1 -1h-23l-5 -1v1l-1 -1h-24l-22 -2v2l-1 -2h-1l-1 2l-1 -2h-78l-1 2l-1 -2h-11l-1 2l-1 -2l-7 2h-11q-43 52 -64 93q-63 126 -102 185q-13 20 -30 38q-19 -31 -46 -158l-4 -11l139 -234l35 -52h73l1 -1l1 1l33 -1
h32l16 1v-1l1 1h1l43 1l5 2v-2l1 2h15l5 1v-1l1 1h1q64 2 74 5v-1l1 1h10l5 1v-1l1 1h1q56 0 205 27q46 12 59 32q36 58 36 139h1l-1 1l1 6v52l-1 6h1l-1 4q0 76 -32 171q-16 33 -27 37q-101 -14 -101 -23zM355 583v1l-2 -1l-19 2q-19 -54 -92 -208q-19 -42 -37 -100l20 -3
h3l1 -1l1 1h4l90 8l1 -2h1l2 2l29 -5q0 19 81 205q27 86 27 103q-13 5 -31 5zM1625 523h175q16 -31 16 -80v-10q0 -70 -30 -102h-27l-1 1l-1 -1l-11 1h-22l-2 1l-1 -1h-2l-1 1l-1 -1l-7 1h-71l-4 -1l-1 1l-5 -1l-46 -1q-14 23 -14 56v9q0 64 37 116q11 11 19 11zM1672 491
q-32 0 -52 -15v-18l-1 -1l1 -2v-5q0 -36 14 -73h2l24 2v-2l1 2l5 -2h21l6 -1l1 1l6 -1h27q56 0 67 27v18q0 14 -15 63l-81 7l-1 1l-2 -1l-9 1l-11 -1v1zM1720 462q34 0 43 -30l2 -8q-12 -6 -99 -14q0 -2 -9 -2l-1 1l1 1v9l-9 20v5q0 6 60 18h12zM884 424q8 -67 13 -93h83
l1 -1l1 1l62 -8q20 16 20 67v34l-1 6h1l-1 2v1l1 5q-20 14 -56 14q-32 0 -124 -28zM981 418h12q22 0 42 -10l-1 -7v-3l9 -21v-6q0 -8 -53 -11h-19q-43 0 -59 17q24 41 69 41zM1690 291h2v-16l1 -8h-2l-3 13v2zM324 250l-3 -1v1l-1 -1h-1l-48 -1l-42 1v1l-1 -1q-9 2 -39 2
q0 -17 -53 -88q-16 -25 -16 -47v-6q0 -10 5 -26q83 16 363 38l63 9q-34 104 -50 123q-14 18 -22 23q-90 -27 -155 -27z" />
    <glyph glyph-name="O" unicode="O" horiz-adv-x="2117" 
d="M68 2133h1981l4 -4v-1702l-4 -4l-244 -6v2l-2 -2l-699 -3h-39l-2 2l-2 -2h-2l-3 2l-2 -2l-10 2h-91l-666 1l-153 -1v1l-2 -1h-68l-4 3v1701q0 10 8 13zM1100 1934l-15 -2v2l-6 -2q-93 0 -192 -17q-27 -73 -27 -148l-2 -2l2 -1l-2 -23v-27l2 -41h-2l2 -2v-38l2 -19h-2
l2 -2v-495l10 -2l3 2l6 -2l188 4q73 -2 120 -9v209l2 1v2q176 -122 176 -203q0 -43 -54 -87l-64 4l-7 -2v2l-2 -2h-4l-2 2l-6 -2l-269 -22h-16q-148 0 -172 83q-12 51 -12 94l-2 8h2l-2 2v51l2 11l-2 2l2 9v32l2 7l-2 2l2 9l4 94h2l-2 2l2 10v504h-465l2 -2v-4q0 -57 4 -92
h-2l2 -2v-175l-2 -2l2 -2v-2l-2 -2l2 -2l-2 -9v-42l-2 -8l2 -2l-2 -13v-33l-2 -2l2 -2l-2 -12v-28l-2 -2l2 -2l-2 -18v-24l-2 -8l2 -2l-2 -7l-2 -92l-2 -8l2 -5h-2l2 -2l-2 -9v-146l2 -11l-2 -2l2 -9q0 -262 184 -412q100 -81 177 -96q169 -33 356 -33h14l9 -2l2 2l10 -2h29
l8 2l2 -2l11 2h12l2 -2l2 2h44l14 1v-1l6 1q146 0 294 43q204 81 302 286q39 91 39 192v33l-2 10h2q0 45 -37 142q-24 65 -172 210q-52 51 -95 106l2 2h2l9 -2l2 2l10 -2h31l10 2v-2l2 2h2l3 -2l2 2h62q48 0 86 -8v307l-97 -2h-120l-2 2l-2 -2h-18l-2 2l-3 -2l-10 2h-78
l-2 2l-3 -2l-51 2h-75l-2 1l-2 -1h-165zM1892 345q104 0 153 -83q12 -32 12 -63v-11l-8 -138l2 -41l-2 -2h-89q-5 0 -6 17h2l-2 2v44l2 2l-2 2l2 18v30l2 2l-2 2l2 13v16q0 104 -33 104l-42 3q-58 0 -58 -96l3 -70l2 -6h-2l2 -1v-76l-7 -6h-86l-5 4v17l3 2l-3 1l3 11l-5 161
q0 103 93 133q36 9 69 9zM844 343q121 0 196 -57q23 -23 23 -50q0 -30 -52 -73q52 -31 52 -104h-2l2 -2v-27l-2 -23h-83l-4 4v28q0 88 -85 88l-43 -3v-107q-3 -8 -34 -10h-33l-2 2l-2 -2h-2l-2 2l-2 -2h-4l-2 2l-2 -2h-2l-2 2h-2l-2 -2l-3 2v320q0 9 94 14zM118 340v-2l2 2
h33q159 0 205 -65l4 -16q0 -31 -42 -67q0 -12 38 -33q18 -15 18 -56q0 -65 -70 -86q-43 -11 -122 -11v1l-2 -1l-15 1h-57l-2 2l-3 -2h-41l-4 4v318q0 6 58 11zM1540 336q133 0 170 -118l8 -46q0 -112 -132 -155q-33 -11 -75 -11v1l-2 -1q-91 0 -145 77q-18 40 -18 80
q0 128 120 164q31 9 74 9zM490 332l4 -3v-80l-2 -2l2 -1l-2 -13v-28l-2 -2l2 -2v-35l-2 -2l2 -1v-4q6 -83 39 -83h19q72 0 72 81v20l2 8l-2 5l-4 113v9q0 20 6 20h79l2 -1h2l-2 -37v-11l-2 -2l2 -2v-2l-2 -2l2 -2v-7l8 -140q0 -89 -72 -113q-36 -13 -70 -13h-23
q-155 0 -155 148l2 53h2l-2 2l2 6l2 72v22l-2 28l2 1h91zM1081 332h269l4 -3v-72l-4 -4h-81l-2 -9l2 -2v-224q0 -9 -37 -11h-31l-2 2l-2 -2h-21l-4 4v235q-4 9 -20 9h-19l-31 -2v2l-2 -2q-13 0 -23 9v67zM157 262v-53l8 2l25 -2h37q31 2 31 9v39q-15 5 -28 5h-11l-2 2l-2 -2
h-58zM846 262v-68h41l2 -2l2 2h2l6 -2l2 2l7 -2q60 0 60 35t-54 35h-68zM1447 181v-13q0 -67 73 -92l14 -2q47 0 66 40q8 20 13 52q0 82 -62 94l-15 2q-60 0 -85 -55zM157 148v-70l6 1l54 -1h10q50 4 50 16v37q0 13 -56 17h-22l-11 -2v2l-2 -2h-2l-2 2l-2 -2h-8z" />
    <glyph glyph-name="P" unicode="P" horiz-adv-x="2117" 
d="M615 2068q218 0 373 -157l47 -46q-92 -147 -293 -445v-1h333q-9 -21 -158 -244l-161 -245l40 -5l2 1l8 -1h15l2 -2l2 2l8 -2h88l42 2v-2l1 2h115l1 -2h2q143 194 361 541l59 87q-35 5 -70 5l-2 2l-2 -2l-8 2l-237 -2l-2 2q39 78 135 216q48 67 89 139h-256l-5 4v6
q0 17 99 74q121 70 246 70h20q214 0 388 -157q153 -162 153 -355v-22q0 -276 -346 -563q-266 -231 -545 -450q-5 -1 -97 -79h-2q-22 0 -154 129l-439 352q-187 164 -242 234q-158 188 -158 403h1l-1 2q0 101 60 226q32 65 123 152l54 39q140 90 311 90zM1568 293h17
q98 0 148 -64q8 -14 10 -33q0 -37 -49 -76q7 -17 77 -90q14 -19 14 -24q-20 -6 -46 -6q-66 0 -112 72q-27 26 -39 29q-7 -9 -7 -21v-45l2 -7h-2l2 -2v-9l-2 -1l2 -2v-1q-2 -9 -5 -9h-79l-3 3v274q0 8 72 12zM840 287q29 -2 34 -4q-10 -30 -51 -86l-5 -10h82q0 -27 -112 -183
h-83l-1 2h-2l-2 -2l-1 5q20 40 82 130q-8 4 -23 6l-63 -2l-3 3q16 11 52 87q33 54 96 54zM440 285l23 -1h7l2 -1l2 1l11 -1h5l12 1l45 -64l12 -8q27 30 47 71l2 1h94l2 -1h1q0 -5 -75 -113q-32 -56 -32 -106v-21l-2 -1l2 -4l3 -32l-1 -2h-81l-2 2h-1l1 22v21l2 2l-2 1v3
q0 83 -89 184q-23 34 -23 39q12 7 35 7zM63 284h94l22 -48q26 -45 36 -72h1q22 33 63 120h97l2 -10v-268l-17 -2h-57l-2 2l-2 -2h-5l-3 3v142q-15 0 -40 -74l-10 -10h-53q-5 4 -33 68l-4 15h-1q-7 -24 -7 -55v-9l2 -6l-2 -1l2 -7l1 -45q-1 -21 -6 -21h-71l-2 2l-1 -2h-4
l-3 3v274zM926 284h260l4 -3v-58l-12 -1h-67l-2 1l-2 -1h-1l-7 1v-216l-4 -3h-79l-3 3v209q-7 7 -20 7l-69 -1l-2 1v58zM1227 284h211l4 -3v-33q0 -26 -17 -26l-13 -2l-6 2l-1 -2l-56 5q-40 0 -40 -19v-2q0 -17 34 -19l74 3h6l5 -4v-51l-1 -7h-111q-6 0 -9 -27l2 -6l-2 -2
l2 -7v-10q0 -5 35 -9l2 2h3v-2l46 2h43l4 -3v-57l-4 -3l-1 2l-9 -2h-201l-4 3v274zM1852 284q14 -12 45 -62l14 -10q27 25 47 71l2 1h94l3 -3q-16 -29 -77 -116q-31 -55 -31 -100v-17l-1 -2l1 -4l4 -36l-2 -2h-67l-17 2l3 36v15q0 74 -80 172q-21 36 -27 54l2 1h87z
M1581 223v-61h14l1 -1l2 1h3l2 -1q49 0 49 38q0 16 -12 20q-15 4 -34 4h-25z" />
    <glyph glyph-name="Q" unicode="Q" horiz-adv-x="2104" 
d="M317 1308l74 -1v-2l1 2l6 -2l67 -1v-2l1 2l15 -2h152l2 -1l1 1l74 -1h49l1 -2l2 2l51 -2h42l1 -1l2 1l40 -1h44l1 -2l2 2l44 -2h43l2 -1l1 1l47 -1h74l2 -2l1 2l7 -2h153l1 -1l2 1h35l6 -1l10 1h130l8 2v-2l1 2h62l6 1l2 -1h1l5 1v-1l1 1h31l18 2v-2l4 2q48 0 73 3v-2
l4 2l137 6v-2l2 2q113 0 151 -58q25 -44 25 -146h-2l2 -1l-2 -156v-350l2 -15h-2l2 -4l1 -55l2 -4h-2l2 -5l3 -73l1 -5h-1l1 -2v-19l2 -8h-2l2 -1v-22l1 -11h-1l1 -1v-125q0 -131 -46 -196q-45 -49 -173 -49h-1l-10 -1v1l-2 -1h-78l-9 1l-2 -1l-7 1h-31l-9 2l-1 -2l-8 2h-23
l-6 1l-2 -1l-10 1h-25l-2 2l-1 -2l-10 2h-36l-1 1l-2 -1h-1229q-187 0 -208 38q-29 22 -43 79l-8 64h2l-2 1v749l-1 92h1l-1 5q0 201 47 237q49 37 210 37zM1675 1283l-9 -2l-2 2h-1l-5 -2v2l-1 -2h-41l-8 -1v1l-1 -1h-5l-1 1l-2 -1h-328l-44 -2v2l-1 -2h-40l-22 -1v1l-2 -1
h-1l-68 -2l-5 -1v1l-1 -1h-2l-59 -2l-6 -1l-1 1l-8 -1l-93 -2l-134 2v1l-2 -1h-3l-1 1l-2 -1l-7 1h-58l-1 2l-1 -2l-45 2h-50l-165 4v2l-2 -2l-7 2h-21l-6 1l-1 -1l-8 1h-31l-1 2l-2 -2h-3l-1 2l-2 -2l-10 2h-72l-8 -2v2l-1 -2h-22l-8 -1v1l-4 -1q-63 0 -117 -28
q-38 -26 -38 -132v-54l1 -6l-1 -1l1 -11v-25l2 -9l-2 -1l2 -10v-413l-2 -6l2 -1l-2 -8v-29l-1 -2l1 -1l-1 -9l-2 -68h-1l1 -2l-1 -15v-23l-2 -9l2 -2l-2 -7v-141l2 -15h-2l2 -4q0 -118 35 -181q29 -33 115 -33h12l2 -1l1 1h1333l1 -1l2 1l17 -1h17l1 -2l2 2l10 -2l57 -1v-2
l2 2l18 -2h90l1 -1l2 1h1q148 0 185 49q25 43 25 117h1l-1 2l1 7v154l-1 126h1l-1 2v1l-3 365l-1 8h1l-1 1v59l4 189q0 130 -50 151q-57 21 -101 21v1l-1 -1l-8 1h-11l-2 2l-1 -2l-11 2h-26l-2 1l-1 -1h-11l-19 1l-20 -1h-21l-2 1l-1 -1h-47zM1788 1225v-2l2 2h32
q102 0 129 -31v-2q-135 -53 -446 -123l-1362 -353l-2 2l2 47v79l-2 25h2l-2 2v37l-1 10h1l-1 1v18l-2 67h2l-2 1v18l2 2l-2 1v2q7 178 22 178l73 3l4 1v-1l2 1h22l7 2v-2l2 2h25l10 1v-1l2 1h31l10 2v-2l2 2h42l6 1l2 -1l10 1h30l44 2v-2l1 2h216l254 -2v-1l2 1l62 -1h57
l2 -2l1 2l70 -2h94l2 -1l1 1h3l2 -1l1 1h247l10 2v-2l2 2h59l10 1v-1l2 1h1l2 -1l1 1h31l15 2v-2l1 2h2l65 1l6 2v-2l4 2zM1883 1108l1 -2l11 2q11 0 13 -22q5 -20 5 -45v-1l-3 -3h-2q-10 4 -10 34v6l-2 7q-9 -7 -9 -19v-31q0 -3 -4 -3q-12 0 -24 40l-1 1h-2q-4 -1 -4 -9v-3
l6 -29v-3l-2 -2v-1q-19 0 -19 71l2 1h6q17 0 26 -32h2q8 9 8 40l2 1v2zM1825 1090v-1q-11 -17 -11 -39l2 -36h-4q-9 0 -15 48q-4 7 -12 7h-8v2q0 14 48 19zM1691 1074q4 0 6 -20h-2l2 -1l-15 -79l2 -1v-5l-3 -3h-11l-22 -6l-1 2v99q0 4 34 8zM1870 973h3q5 0 16 -62v-6
l-5 -5h-1l-2 2l-22 -6q-26 29 -44 29q-10 -3 -18 -13q7 -30 82 -40q15 0 34 -28q13 -27 13 -48q0 -64 -68 -92l-25 -3q-14 0 -42 9v-1q-9 -21 -34 -21v2l-1 -2h-2q-2 0 -8 42q-9 26 -9 41q8 8 23 11q13 0 43 -27q6 -5 11 -5q20 0 28 20q-15 26 -31 26q-12 4 -60 11
q-41 19 -41 68q0 52 58 82q16 5 34 5l35 -5q11 16 33 16zM1277 922h2q17 -23 17 -59l8 -27q18 6 26 6h6q6 0 17 -72l-24 -6h-4l-2 -6l2 -2v-1q0 -27 20 -102l2 -2h1l19 7h3q8 0 18 -71v-4q0 -3 -43 -9q-64 -19 -96 -25q-12 32 -16 61q4 20 15 20q-19 77 -19 100v1l-6 6h-2
l-18 -4h-4v8l-12 52v2q0 10 16 15v7q0 18 -10 56q35 16 84 49zM1633 922q6 -7 17 -60l3 -3v-2q-36 -23 -55 -188l-13 -57l11 -4q12 0 37 10h2q7 -15 18 -69q-96 -23 -139 -39l-5 15q0 13 18 99v2q-18 18 -75 98q-51 51 -80 58q0 19 -13 60q24 20 138 42h2v-2l-2 -1l2 -2v-1
l-2 -2q14 -47 14 -54q0 -8 -12 -15q22 -28 53 -57q10 43 10 63q0 9 -20 9q-10 0 -11 4l2 6l-10 49v7q8 7 91 27zM1150 804q16 -13 24 -58l4 -46h-12q-45 0 -45 -58q0 -28 10 -44h7l20 6q16 -40 16 -70v-5q0 -3 -43 -10l-96 -25l-16 62q3 15 15 15q-6 12 -15 82
q-11 25 -28 25q-3 29 -17 66q28 19 116 33q6 -11 6 -24q35 51 54 51zM519 771l12 -56q17 -56 25 -110q13 8 31 40q15 18 49 18q66 0 89 -162l3 -9h3l13 3l16 -69v-2q-88 -27 -109 -27q-10 0 -25 115q-17 46 -39 46l-1 1q-10 -19 -10 -37q0 -21 35 -85q10 -21 10 -45v-3
q0 -4 -60 -17q-3 -2 -64 -18h-3v2l2 1l-13 58v3q0 9 11 18q-32 149 -54 234l-8 3l-1 -1h-2l-1 1l-2 -1h-1l-5 4v6l-10 58v1q0 4 109 30zM366 733q14 -13 32 -118q3 0 3 -7l-56 -15q-36 37 -56 37q-19 0 -27 -22q19 -18 59 -28q77 -10 98 -28q43 -40 43 -106q0 -78 -61 -115
q-18 -9 -37 -9q-22 0 -53 15q0 -26 -43 -34l-26 -3q-27 101 -27 124q17 13 30 13h6q14 0 69 -26l10 -2q18 0 30 23q-26 29 -104 29q-27 3 -53 28q-34 44 -34 98v14q0 76 58 106q15 5 28 5q18 0 47 -11q19 22 64 32zM862 712h12q79 0 115 -85q6 -26 6 -41q0 -81 -57 -120
q-31 -17 -63 -17q-84 0 -131 80q-12 30 -12 54q0 50 36 96q40 33 94 33zM834 580q7 -59 39 -59h5q17 3 17 29v2q-6 66 -27 66l-9 2q-25 -5 -25 -39v-1zM1945 610q6 0 13 -76h-1l1 -2v-40l2 -7h-2l2 -2v-1l-2 -2l2 -1l-2 -7v-60l-1 -9l1 -1l-1 -22v-51l1 -9l-1 -4l1 -5h-1
l1 -1v-33l2 -22h-2l2 -1v-43l-2 -6l2 -2l-2 -7v-2q0 -48 -16 -89l-1 -1h-2l-136 -3v1l-1 -1h-40l-37 -2v2l-2 -2h-56l-10 -1v1l-2 -1h-7l-1 1l-2 -1h-65l-7 -2v2l-2 -2h-1l-2 2l-1 -2h-2l-1 2l-2 -2h-1l-137 -1l-30 -2v2l-1 -2h-2l-1 2l-2 -2h-53l-36 -1l-1 1h-2l-4 -1v1
l-1 -1h-2l-245 -3v1l-5 -1l-271 -2l-2 2h-1l-5 -2v2l-1 -2h-52l-1 2l-2 -2h-3l-1 2l-2 -2h-1l-432 5l-1 1h-2l-4 -1l-2 1h-1l-1 -1l-9 1l-55 -1q-31 0 -43 30l-1 6q30 25 81 32l422 110z" />
    <glyph glyph-name="R" unicode="R" horiz-adv-x="2113" 
d="M225 950v-1l1 1h20l5 -1l1 1l6 -1h11q177 0 224 -91q8 -14 14 -35h2q6 3 6 14l-2 36l2 7l30 -1h33l15 1v-1l1 1h20l26 2v-2l2 2h50l7 -2l1 2h1q12 0 16 -28l1 -15h-1l1 -4l-1 -58h-1l1 -2v-16l-1 -1l1 -10h1q34 74 134 113q83 28 181 28v-2l1 2h6l91 -2l1 -1h2l1 1l7 -1
l132 -6l2 -1h1l1 1l6 -1h20l1 -2l2 2l12 -2h20l1 -1l1 1l18 -1h83l1 -2l1 2h1l1 -2l4 2q43 0 98 4l1 -1v-149h1q36 84 48 149l1 1h201l30 -90q39 -121 162 -462q31 -89 61 -190l-1 -1h-695l-1 1h-2q0 16 42 131l-1 5q-29 10 -55 10l-60 -2l-1 -1h-1l-1 1l-9 -1h-50
q-6 0 -7 4v383q-4 10 -20 10h-6l-1 1l-2 -1h-1l-39 -3l-17 2q-14 -3 -14 -32l1 -5h-1l1 -1v-28h-1q-73 61 -130 61l-2 2l-1 -2h-6l-1 2q-42 0 -64 -44q-8 -25 -8 -45v-6q0 -61 66 -77l16 -1h7q66 0 116 61q9 -31 9 -80v-41l-1 -1l1 -2l-1 -10v-23l-1 -2l1 -1l-1 -18v-52
l1 -10q-61 -45 -142 -45q-135 0 -228 117l-18 31l-1 -25v-10l1 -7h-1l1 -2v-14l1 -7h-1l1 -2l1 -46v-14q0 -16 -3 -16h-384l-2 3v12l-1 7h1l-1 2v1l2 79h1l-1 1l1 22l-1 9h1l-1 1v2q0 44 -18 64h-56q-9 -7 -11 -61v-8l2 -74l1 -6h-1l1 -1v-19q0 -34 -4 -34h-190l-2 3v659
l2 5l17 -2l141 2zM188 927q-48 0 -110 -9v-231l-1 -2l1 -1v-169l-1 -1l1 -2v-64l1 -6l-1 -1l1 -7q0 -69 7 -131h133l1 -2l1 2h1l2 -2q6 0 6 16v5l-2 81l-1 6h1l-1 1v21q0 84 17 84v-1l1 1h1l1 -1l2 1h15q74 0 86 -39q6 -24 6 -55v-25l-1 -2l1 -1l-1 -7v-25l-1 -1l1 -2
l-1 -22q0 -27 6 -27q17 -8 33 -8h5l1 -1l1 1h11l1 -1l1 1h2l57 5v-2l1 2h9l23 -3l-2 36v2l7 110l1 2l-1 1v20q0 56 -33 95q-22 29 -22 42q35 41 46 76q10 40 10 65v3l2 2l-2 1v4q0 122 -187 157q-51 8 -88 8h-2l-1 1l-1 -1h-39l-2 1zM218 915h22l2 -1l1 1q44 -1 124 -29
q122 -58 122 -148q0 -62 -74 -128q28 -14 53 -60q24 -61 24 -134v-27l-1 -47h-1l1 -1q-1 -11 -4 -11h-105l-2 3l4 47h1l-1 1l1 8q0 106 -59 136q-27 13 -63 13q-18 0 -50 -5v-200l-3 -3h-106l-2 3v565q0 4 60 14zM939 874q-84 0 -158 -91q-62 -94 -62 -210q0 -160 110 -241
q56 -35 118 -35q66 0 147 44v171h-1q-50 -40 -105 -40q-83 0 -110 82l-2 24v11q0 79 82 104l31 4q50 0 97 -38h1l1 32v31l-1 5l1 2l-1 7v16l-1 7h1l-1 2v26l-1 7h1l-1 5l1 43h-1q-71 32 -115 32h-1l-1 2l-2 -2l-8 2h-10l-6 -2v2l-1 -2h-2zM1777 860h-146q-45 -100 -78 -194
q-42 -123 -114 -354h529v1q-44 148 -134 391q-31 90 -51 157zM540 851v-548l4 -2l1 2h154v539l1 8l-1 1h-159zM954 853q57 0 116 -31v-122l-2 -3q-50 29 -97 29q-62 0 -93 -77q-10 -31 -10 -61q0 -94 70 -137q22 -7 32 -7h12q38 0 87 32l1 -2v-122q0 -6 -100 -30l-28 -2h-2
q-100 0 -166 105q-36 70 -36 147q0 133 85 225q56 56 131 56zM1104 851l-2 -6l2 -1v-138l-2 -8l14 -3l41 2l4 1v-1l1 1h31q25 0 36 -11v-28l-1 -1l1 -2v-17l-1 -8l1 -10q0 -52 8 -173h-1l1 -1v-21l2 -7h-2l2 -1v-95l-2 -1l2 -2l-2 -7v-1h160v23l2 1l-2 2v4l2 2l-2 1l2 10v21
l-2 39h2l-2 1v47l-1 7h1l-1 2v1l1 1l-1 2v9l-1 68q4 147 14 147q8 6 42 9l20 -2h15l1 -1l1 1l9 -1h20l6 1v144h-419zM558 832h115l1 -1h1l5 -163l1 -2v-1l-1 -2l1 -10v-20l1 -18h-1l1 -1v-39l1 -10h-1l1 -2v-3l-1 -1l1 -2v-11l2 -86l-2 -2v-1l2 -9v-43l-2 -2l2 -1v-2l-2 -64
v-3l-2 -3h-123l-2 3v496zM1122 832h383l2 -3v-100l-3 -4h-123q-9 -54 -9 -95v-1l-1 -2l1 -1l-1 -15v-84l1 -7h-1l1 -2v-3l-1 -1l1 -2v-45l2 -6l-2 -1v-2l2 -5h-2l2 -2v-106l-2 -1l2 -2q-2 -12 -4 -12h-113l-3 3v381q-13 12 -39 12l-95 -1l-1 1v103zM1634 832h132
q8 -13 110 -305l67 -195v-2h-476l-2 2h-1q50 158 156 462q9 32 14 38zM213 803v-147l-1 -1q1 -12 31 -12l12 -1l1 -2l1 2h11l1 -2l1 2h3l1 -2q29 0 64 23q32 30 32 67q0 51 -56 76q-20 6 -39 6h-7q-25 0 -55 -9zM242 786v-2l1 2h26q72 0 92 -41l2 -10v-5q0 -53 -77 -53h-55
l-3 2v102q0 4 14 5zM255 754v-50l-2 -1l2 -6h25q48 0 55 22q3 7 3 19v5q-6 12 -34 12h-17l-12 -1v1l-1 -1h-19zM1700 735l-78 -234q-10 -29 -23 -83h201q-48 202 -99 317h-1zM1414 677v-2l1 -12h-1l1 -1v-16l-2 -192q0 -56 8 -110h3q23 78 89 270l18 64l-1 -1h-106l-1 1
l-2 -1h-7zM1698 666h3q21 -32 57 -165l17 -45v-2q-12 -6 -40 -10l-1 1l-6 -1h-9l-11 1l-1 -1l-4 1l-64 2h-11l-1 -2h-1l-2 2v1q29 76 74 218zM505 647q-9 -27 -12 -45q0 -24 21 -39v4l1 47h1l-1 1l1 5q-2 27 -8 27h-3zM1700 599q-42 -124 -42 -133h83v1q-11 80 -41 132z
M1430 282q-33 -54 -41 -125h631v2q0 37 -31 106l-3 17h-556zM1660 265v-1l1 1h11l1 -1l1 1h175l1 -1l1 1l6 -1h25l1 -2l2 2l6 -2h15l1 -1l2 1q69 -6 69 -10l-1 -9q0 -11 15 -39l2 -12v-6l-17 -1h-556l-1 1l-1 -1h-1l-4 1q18 78 34 78l92 -2l47 2v-2l1 2h64z" />
    <glyph glyph-name="S" unicode="S" horiz-adv-x="1801" 
d="M912 1829q217 0 417 -104v-3q-69 -18 -204 -76q-81 -31 -135 -31l-131 11q-129 0 -289 -76q-47 -23 -124 -95q-152 -165 -152 -407v-61h2q300 87 931 293l115 34q72 -118 72 -185q0 -6 -140 -44l-908 -289q-150 -47 -217 -63q-89 172 -89 325v24q0 305 279 547
q266 200 573 200zM1435 1650q103 -76 160 -148q56 -75 85 -143q29 -71 42 -134q-52 -10 -159 -47l-48 -12q-32 107 -67 162q-18 33 -67 99l-569 -182q-377 -119 -401 -119v3q20 123 74 214q0 14 76 32q667 214 874 275zM1739 1132l2 -6q0 -499 -414 -729q-159 -71 -204 -71
q-105 -23 -187 -23l-2 1h-2l-14 -1h-10l-2 1l-2 -1h-2q-260 0 -482 137q-129 98 -174 161l-32 47q112 34 197 66q107 -100 161 -123q157 -80 301 -80h44l1 -2l8 2q190 0 371 122q88 69 131 134l40 70h-3l-691 -220q-209 88 -209 147q317 95 987 312q82 27 187 56zM336 214
h17q32 0 50 -8q0 -33 -70 -33l-21 1q-34 -36 -53 -78q-14 -37 -56 -77h-2l-91 -2q-32 4 -32 12v9q7 14 27 14l57 -1q22 0 78 110q39 53 96 53zM1333 214q55 -4 55 -8q-22 -42 -80 -120q-23 -41 -23 -69h-11q-22 0 -30 53q-7 6 -15 6h-6q-29 0 -48 -45q-15 -14 -31 -14h-13
l-4 4q68 121 87 146q43 47 119 47zM772 210l95 -4h17l2 2h3l2 -2q-8 -33 -53 -33l-19 1q-29 -10 -55 -64q-35 -91 -93 -91h-1l-2 2h-3l78 122l11 25v2l-4 4h-35l-4 5q0 28 61 31zM1167 210h25q24 0 24 -6q0 -31 -56 -31v1l-3 -1l-14 1h-7q-44 -37 -83 -117l13 -6l48 1l3 -1
v-5q0 -24 -53 -29h-17q-19 0 -46 8v1q56 139 87 156q35 28 79 28zM1630 210l87 -4h11v-2q0 -5 -130 -123l-19 -21v-2q0 -5 14 -7l55 1l2 -1v-2q-13 -30 -48 -30l-23 -2h-29l-2 2l-2 -2l-11 2h-54v2q16 24 158 146v1q0 6 -17 6v2l-37 -3l-9 3q0 34 54 34zM705 208l3 -4
q-10 -11 -74 -130q-34 -44 -77 -55l-3 2v2h3l-3 2v1l3 3l-3 14v72q-11 0 -51 -80q-21 -18 -53 -18v6l66 120q47 63 86 63v-87q27 26 61 87l2 2h40zM1557 208l1 -2q-21 -54 -114 -185l-3 -2h-43l-13 -2l-2 2l-11 -2h-2q-54 2 -54 12q56 130 88 153q38 24 55 24v-2
q-23 -42 -87 -138l-2 -6q9 -3 24 -3h7q44 0 86 104q33 47 70 47zM480 206l3 -2q-36 -132 -61 -183h-4q-22 19 -50 19h-15l-109 -21v2q151 152 187 161q3 5 49 24zM969 206l2 -2q-30 -150 -54 -172q-17 -15 -26 -15h-2l-6 6q0 10 6 17q0 6 -29 6q-25 0 -84 -25l-31 -4l-2 2
l-2 -2l-2 2v2l130 128q61 45 100 57zM1225 101l2 -1l2 1h37l2 -1q15 0 30 37q15 19 16 36v1h-22q-42 0 -67 -73zM411 125q0 -14 -41 -31l-4 -18h37l15 36v7zM899 125q0 -7 -32 -33l-5 -14l3 -2h34l-2 5q0 8 13 34q0 5 -11 10z" />
    <glyph glyph-name="T" unicode="T" horiz-adv-x="1991" 
d="M899 1832v-2l5 2l141 -2v-1l1 1l15 -1h30l1 -2l2 2l11 -2h22h2h1h8q151 -1 502 -49q164 -28 291 -60v-1l-7 -119l-2 -1l2 -2l-2 -5l-2 -110v-28l-1 -1l1 -2v-125l2 -6h-2l2 -2v-50l2 -63h-2l2 -2v-167l-2 -2l2 -1l-2 -31v-16l-2 -9l2 -1l-2 -7v-22l-1 -2l1 -1l-3 -45h-1
l1 -1q-10 -109 -26 -181q-19 -80 -47 -140q-20 -44 -138 -152q-108 -85 -290 -202q-24 -37 -51 -37q-5 0 -154 -78q-204 -100 -228 -100l-14 -2q-53 0 -376 182q-108 65 -263 195q-119 101 -154 147q-98 125 -105 216q-11 56 -11 141v45l2 2l-2 1l2 21v18l1 2l-1 1l1 7l2 44
h1h-1l1 8v15l1 1l-1 2l1 6l5 88h2l-2 2v3h2q3 104 3 287v151l2 1l-2 2v12l2 1l-2 2l2 6v47v1v1v8v27l2 2l-2 1l2 7v25q0 6 118 30q105 24 280 45q202 20 292 20l4 2v-2l2 2l94 1h17zM938 1717q19 0 23 -57v-3h-2l2 -2q-6 -81 -14 -81q-24 20 -106 98q-53 43 -66 43
q-12 -15 -12 -45v-33l2 -6h-2l2 -2v-14l2 -14h-2l2 -1v-18l-2 -2l2 -1q-9 -47 -21 -47v-2h2l45 -1l8 3v1q-21 16 -21 51v11q0 38 11 83h2q36 -25 97 -88q67 -58 86 -58l2 8v25l-5 89q0 52 28 66h1v2h-7l-38 1q-19 -3 -19 -6zM1056 1676v-8q0 -36 65 -57q44 -22 44 -46
q-11 -25 -41 -25h-4q-40 0 -62 31v0v-37q28 -10 51 -10h15q51 0 62 45v5q0 27 -12 27q-88 50 -88 79q0 19 57 27h1q11 0 28 -32l2 -2h3l-1 2v1l1 2l-1 1v38q-18 3 -42 3h-5q-55 0 -71 -34zM600 1711v1l-1 -1h-3q-35 0 -61 -9v-1q21 0 21 -11l-1 -33l1 -5h-1l1 -3l3 -72
q0 -46 -27 -63h1l142 10l2 26h-2l-5 1v-1q0 -16 -31 -18v1l-2 -1h-2q-44 2 -53 10v65l3 3h40q21 0 31 -10v32q-1 9 -5 9q0 -16 -21 -16l-48 1v62q22 13 52 13q34 -3 34 -13h2l7 17v12q-21 -5 -77 -6zM297 1681l-1 -31q2 -6 5 -6h1q4 27 29 27l9 1h20l1 -1h2l-2 -29v-10l2 -7
h-2l2 -2v-1l3 -66q0 -41 -24 -58l-7 -2v-1h4v-1l1 1h2l1 -1l48 9v-2l1 2l8 -2h1q-10 25 -10 46v6l7 94l-2 31q14 6 28 6q20 0 44 -21q1 25 3 25l-2 1v1l2 1q-3 14 -7 14h-2q-69 -19 -132 -19q0 -2 -33 -3v-2zM1238 1629v-4q0 -40 47 -83q49 -41 100 -41h2q68 0 97 79l1 18
q0 72 -96 103l-37 4q-89 -5 -111 -56zM1360 1691v-1l1 1q62 0 87 -66l3 -24q0 -55 -47 -74q-15 -5 -31 -5q-63 0 -101 73l-5 23v14q0 33 54 52q19 6 39 7zM1538 1678q15 -18 15 -63v-18l-1 -2l1 -1l-1 -7v-16l-2 -2l2 -1l-2 -7v-14l-2 -12l2 -11v-12l2 -7q-3 -3 -32 -7
l-1 -2v-1h5l67 -10l18 2v1q-23 0 -31 24l-4 15h2l-2 5q3 38 16 42l47 -60q34 -35 60 -44l12 -3v2q-6 13 -67 71q-10 13 -19 33l2 1h13q29 0 35 20q4 13 4 24q0 46 -81 63l-18 2zM1587 1667h13q36 0 49 -46v-2h-1l1 -1q0 -31 -44 -35q-22 0 -22 9l-2 6l3 49h2l-2 2v1l2 1
l-2 7v5zM891 1454l-123 -2l-1 -1h-2l-2 1l-38 -3v2l-5 -2l-48 -1l-4 -2v2l-2 -2h-15h-7v0h-2h-2q-63 -3 -176 -15l4 -57h-1l1 -1v-125l-1 -2l1 -1l-1 -7l-2 -55h-1l1 -1l-1 -5l-9 -133h-2l2 -2q-10 -91 -10 -125h-2l2 -2l-2 -7v-22v-1v-2v-7v-33l-2 -2l2 -1v-1l-2 -1l2 -2
v-55l-2 -2l2 -1v-31v-7v0v-1v-2q0 -192 153 -360q22 -36 167 -157l213 -158q106 54 231 145q132 108 202 189q108 131 127 229q19 89 19 146h2h-2l2 8v34l1 2l-1 2l1 9v42l-1 38h1l-1 1v39l-2 7h2l-2 1v35l-2 7h2l-2 4l-1 63l-2 4h2l-2 1v24l-2 14h2l-2 1v32v14v0v1v146v2v1
v7v21l2 1l-2 2l9 81h-2q-175 25 -409 34v2l-2 -2l-81 3l-5 2l-2 -2l-8 2h-72l-1 1l-2 -1h-82zM264 1397h-14q-20 -104 -20 -326v-50l-1 -2l1 -1l-1 -41v-9l-1 -5l1 -2l-1 -10v-21l-2 -1l2 -1l-3 -61h-2l2 -2l-2 -6l-2 -102v-6l2 -17h-2l2 -1v-1q0 -140 87 -230
q80 -89 164 -148l203 -137h5l4 4q-19 4 -52 38q-86 65 -198 170q-107 112 -126 201q-13 63 -13 107v76l2 2l-2 2l2 5l9 181l2 5l-2 5h2l-2 1v2l2 84v10l1 2l-1 1v1l1 1l-1 2l1 8l3 125l2 6l-2 2l2 16v127l-3 3h-5zM1704 1370l-5 -78v0v-2v-6v-26l-2 -6l2 -6h-2l2 -1l-2 -7
v-96l2 -28h-2l2 -1v-1v-88l2 -6l-2 -2l2 -9v-28l1 -7h-1l1 -1v-2l-1 -1l1 -1l2 -118v-26l-2 -1l2 -2q0 -103 -27 -215q-15 -47 -66 -119q-26 -40 -135 -135l-189 -144v-2q60 41 218 136q69 44 147 114q91 98 107 175q15 61 15 132h1l-1 1l1 8v21l2 2l-2 2l2 6l2 140v157
l3 232h2l-2 1l2 10v21h-2l-61 14h-6q-11 -1 -11 -7zM857 1359v-1v1h69l97 -1l5 -1l2 1l7 -1h26l2 -2l1 2l8 -2h31l1 -2l2 2l9 -2l121 -1h11v-3q-44 -15 -144 -40q-30 -8 -30 -36q-4 0 -5 -75v-8l-2 -2l2 -2l-5 -44h3v-1l2 1h26q24 0 182 -17h14q69 0 91 50q18 26 38 34l3 -3
l-2 -47v-2l-1 -1l1 -2l-1 -10v-26l-1 -1l1 -2l-1 -6l-5 -174h-2l2 -2l-2 -6l-1 -42h-3q-18 42 -44 125q-21 42 -42 42q-40 8 -92 8h-166l-2 -34v-20l-2 -1l2 -2l-2 -14v-33l-1 -2l1 -1l-1 -17v-28l-2 -1l2 -1l-2 -17v-28v-2v0v-21v-28l-2 -5l2 -4h-2l2 -1l-2 -8v-41l-2 -1
l2 -2l-2 -30v-35l-1 -9l1 -3h-1l1 -2l-1 -31v-131l1 -42h-1l1 -2v-34l2 -18h-2l2 -1v-28l2 -7h-2l2 -1v-21q22 -29 118 -50l46 -11v-3l-62 -3l-7 -1v1l-2 -1h-1l-2 1l-1 -1h-81l-8 1l-2 -1l-8 1l-82 2l-7 1l-1 -1l-7 1h-34l-1 2l-2 -2l-15 2h-127l-15 -2v2l-1 -2h-11v2
q17 14 79 28q61 10 85 32q24 20 24 75q4 13 5 133l-1 141l-2 19h2l-2 2v41l-2 30h2l-2 2v144l2 5l-2 2l2 8q0 48 8 102q-148 18 -174 18h-12l-9 1q-87 0 -114 -55q-15 -34 -40 -118q-2 0 -2 -5h-4v1q-6 45 -6 89v17l1 62h2l-2 2l2 7v14l2 1l-2 2l2 5l1 47h2l-2 1l2 10v66h2
q27 -18 54 -58q20 -21 29 -21h9l8 1v-1l2 1l175 -1h68q14 50 14 75q0 89 -104 121q-17 7 -73 13v3h1l77 5z" />
    <glyph glyph-name="U" unicode="U" horiz-adv-x="2058" 
d="M1866 945q16 0 39 -30q93 -91 93 -140v-10q0 -41 -48 -98l-57 -62l43 -192q-4 -24 -24 -24l-2 -1q-11 0 -43 23q-25 17 -85 46q-9 13 -10 25h-3q-6 -6 -18 -6q-11 0 -85 32l-6 10l-15 -2l-116 34q-61 10 -61 21q-2 0 -4 13h-1q-8 -13 -23 -13q-86 12 -86 21v1
q-4 -3 -17 -4q-85 9 -85 20l-5 14l1 11v1h-1q-21 -34 -41 -34q-92 6 -92 9l-19 -1h-9q-72 0 -72 7q-8 5 -21 61h-26q-6 -60 -24 -60q-14 -3 -75 -7q-7 -15 -26 -15l-88 -3q-16 0 -28 20v1h-1q-4 -29 -23 -29l-65 -8q-15 3 -21 9q0 -17 -47 -24q-20 -7 -50 -13q-21 0 -25 25
h-2q-2 -38 -21 -38l-86 -27q-22 0 -26 25l18 249l-1 -1h-3l-40 1q-47 -300 -53 -317q-5 -8 -61 -34q-58 -40 -74 -40q-23 0 -26 26l25 365h-52q-32 0 -32 25q0 8 40 111q9 11 23 11l283 -1q28 -2 28 -24v-1l-6 -21h88q0 44 20 44q0 2 12 2h86q32 0 32 -24l-2 -21h15
q0 17 36 31q45 29 60 29q17 0 46 -34q53 -49 53 -72l1 -5l1 -1h2q6 44 15 44q0 8 63 8h8v1l-2 20q4 24 27 24l4 1l85 -1h1q31 0 31 -36l1 -18h1q43 55 62 55h114q33 0 33 -25q0 -6 -7 -20l15 -1h19l25 -1q0 45 20 45q0 2 10 2l85 -1q7 0 18 -5q11 6 25 6h168q31 -2 31 -24
q-4 -13 -4 -22h1l20 1h14q0 14 41 31q51 30 64 30zM1786 880l13 -17v-3q-94 0 -94 -2l-21 -331l-1 -1l69 -27v2l11 82h2q2 0 34 -107l72 -38l38 -25h1q-44 194 -44 201q97 98 99 122q7 16 7 33v1q0 43 -72 114l-34 38zM704 882l19 -23v-1l-69 1v-1l-18 -257h1q60 4 60 6
l11 80h3q28 -50 43 -71h1l89 3v1q-45 76 -47 82v1q56 55 56 92v12q0 44 -43 78q0 3 -36 34zM122 906l-36 -100h131v-2q-47 -20 -47 -22l-25 -367h1q64 39 112 62l53 328l1 1h64l32 99h-49zM1401 906l-16 -176l-3 -1q-25 0 -25 3l18 126l-86 2l-15 -239h1l65 -9q10 85 13 85
h5q22 0 22 -4q-3 -51 -3 -88l64 -11l49 311h-14zM1500 838h1l36 -2v-2q-29 -6 -29 -10l-18 -242q73 -16 156 -42v1l9 88l-74 19q6 49 9 49h79l12 70l-78 2l-1 1v1q9 66 12 66q78 1 78 2l11 67h-173q-9 0 -9 -11zM543 905q-11 -174 -14 -174q-33 2 -33 5l17 122h-103v-1
l-25 -325l79 25l23 137l2 1h35l3 -2l-8 -121l72 19l50 314h-98zM989 905v-1l5 -44l-1 -1h-14l-70 -1l-50 -224h1l75 5v1q9 60 12 60h12l52 1l20 -68l73 -1l-2 3l-19 270h-94zM1119 822v-10q0 -24 38 -61q20 -18 20 -27v-12q0 -35 -54 -81l84 -7q49 56 49 84l1 8q0 35 -33 65
q-28 30 -28 46t15 28l1 1h2l-3 -28l37 -1h10l37 78h-121q-55 -51 -55 -83zM1808 851h1q52 -57 52 -88q0 -38 -78 -101l-5 -4h-1zM736 850q28 -22 28 -55q0 -32 -49 -66h-2v1l21 120h2zM998 847q3 0 8 -57l9 -60l-1 -1h-2l-45 1l-2 1l29 115l1 1h3zM1637 814h-1q-3 0 -5 -22
l1 -1h4l40 -1v8l1 17zM1238 804v-2l20 -21v9l1 14l-1 -2h-1l-17 2h-2zM1824 790l-10 -64q19 18 20 32v12q0 11 -10 20zM1120 755l6 -85l1 -1h1q23 29 23 44v8l-30 34h-1zM828 698l13 -23q2 0 13 54zM1610 673v-6l-1 -2v-1l57 -14l1 23h-57z" />
    <glyph glyph-name="V" unicode="V" horiz-adv-x="1670" 
d="M225 1825l2 -2l9 2l222 -8l112 2v-2l2 2l8 -2h2q109 0 140 -48q23 -44 23 -93v-3l1 -8h-1l1 -2v-2l-11 -193l-2 -1l2 -2v-35q0 -25 5 -60h1q74 9 145 9h26l2 -1l2 1q133 -9 214 -31q233 -71 357 -236q50 -71 80 -150q40 -115 40 -189l3 -32h-2l2 -2v-1q0 -391 -323 -597
q-192 -113 -408 -113h-8l-7 -2l-2 2h-1l-2 -2h-2l-2 2h-1l-2 -2l-9 2h-9q-268 0 -472 143q-125 102 -165 183q-33 45 -66 129q-25 58 -50 181l-16 125l2 2l-4 32h2l-2 1v44l-1 8h1l-1 2v11l1 2l-1 2v408l1 7l-1 6v47l1 2l-1 1l1 11v192l-1 5l1 2v2l-1 4h1l-1 2v36l-2 8h2
l-2 1v38l2 1l-2 2v3l2 2l-2 1l2 7v2q0 91 62 124q51 18 101 18zM319 1761l-12 -1v1l-4 -1q-33 0 -51 -3v1q-107 -9 -107 -15q-19 -24 -19 -67v-10l-1 -1l1 -2v-12l-1 -2l1 -1v-3l-1 -1l1 -2v-26l2 -5l-2 -2q9 -77 9 -102l2 -1v-2l-2 -1l2 -8v-23l1 -12h-1l1 -1v-2h-1l1 -2
v-76l2 -14l-2 -15v-30l-1 -116h-2l2 -2v-1l-2 -2l2 -1l-2 -8l-5 -200h-2l2 -1l-2 -41v-59l2 -30h-2l2 -1v-32l1 -15h-1l1 -2v-23l2 -7h-2l2 -5q0 -154 84 -333q32 -69 122 -166q94 -84 153 -108q163 -77 312 -77v-2l2 2l9 -2h39q388 0 591 286q101 165 101 331v41l2 1l-2 5
q0 170 -105 322q-25 39 -117 117q-179 126 -399 126h-27l-2 1l-1 -1h-4q-54 0 -130 -11l-5 -98h-2l2 -1l-2 -8v-25l-1 -2l1 -1l-1 -11v-35l-2 -1l2 -5l-2 -2v-1l2 -2l-2 -7v-77l2 -8h-2l2 -2v-1l-2 -1l2 -1v-25l1 -10h-1l1 -5q0 -37 14 -106q33 -6 62 -6h39l7 1
q97 0 143 -90q14 -31 14 -62v-7q0 -87 -73 -140q-42 -27 -110 -27q-128 0 -172 137q-19 77 -19 144l-1 5h1l-1 1v2l1 2l-1 7v60l1 10l-1 1v1l1 2v1l-1 2l1 8l3 105h2l-2 2l2 7v28l2 1l-2 1v3h2q3 170 3 464v17l-2 41h2l-2 2v42l-1 8h1l-1 4q-3 100 -7 100q-117 13 -210 13v2
l-2 -2h-13l-1 2l-2 -2l-9 2h-21l-36 -2l-1 2h-2l-5 -2v2l-2 -2h-36zM740 816v-79q0 -102 52 -126q37 -15 58 -15h16q57 0 92 69q9 22 9 46v4q0 78 -91 96l-10 1l-2 -1h-3l-2 1l-2 -1h-2l-61 -3q-42 3 -54 8z" />
    <glyph glyph-name="W" unicode="W" horiz-adv-x="1980" 
d="M990 1853q73 -146 192 -327q96 -186 255 -453q127 -218 127 -228q-33 -58 -107 -164q-30 -48 -46 -89q-47 -49 -83 -109q-28 -43 -72 -121v0h-500l-109 154q-157 214 -237 335v1q48 75 70 126q102 162 351 614q68 102 86 166q16 0 49 72q13 20 24 23zM979 1770l4 -45v-11
q0 -73 -59 -231l-169 -517v-1q38 -62 169 -303l59 -101h2v334l-2 128h2l-2 1v381l2 1l-2 2l2 60v24l1 2l-1 1l2 101l2 4l-2 1l2 6v24l1 4l-1 4l1 7h1q83 -213 187 -544q42 -98 42 -128q0 -29 -56 -109q-66 -132 -117 -212q-54 -85 -65 -160l-4 -26l1 -1l-1 -6v-19l-1 -1
l1 -2v-1l-1 -4l1 -5v-14l1 -12l-6 -2l-152 1q-58 -1 -58 -6l69 -3l4 -1l2 1l6 -1h91l8 1v-1l1 1h1l2 -1l1 1h33l6 1v-1l2 1h21l10 1v-1l1 1h24l6 1l1 -1l7 1h23l7 1v-1l1 1h7l78 2v-2l1 2l7 -2h32q175 239 301 445v2l-224 389q-36 77 -53 104q-77 112 -132 222
q-38 67 -66 102q-4 0 -20 50q-23 47 -39 59l-1 1h-2zM1273 986q43 -40 117 -92q9 -6 70 -64q-17 -21 -61 -51l-264 -184l-106 -71h-1v2q37 79 197 369l47 91h1zM524 822q252 -178 394 -264l27 -15v1q-22 33 -81 146l-28 34q-34 96 -139 258l-144 -130zM1106 286q39 0 86 -15
v-5l3 -55l-3 -3q-33 13 -56 13h-10q-50 0 -78 -52q-6 -15 -6 -30q0 -51 55 -68l33 -4q19 0 61 9l1 -1v-2q-8 -28 -8 -58q0 -4 -55 -12l-20 -2h-3l-5 -1l-5 1h-6q-91 0 -132 83q-10 32 -10 52q0 82 77 131q39 19 81 19zM1388 286v-1l2 1q67 0 124 -43q37 -43 37 -99
q0 -92 -87 -124q-44 -13 -78 -13q-130 4 -165 76q-7 26 -7 50v6q0 100 115 139q29 7 48 7h5zM538 278q116 -2 151 -70q11 -27 11 -50v-12q0 -76 -68 -119q-45 -23 -93 -23q-102 0 -160 74q-17 29 -17 53v16q0 85 95 119q39 12 81 12zM133 275v-1l1 1h2l1 -1l1 1h14
q2 0 8 -37q40 -119 40 -137h2q30 41 60 115q19 48 29 59h24l1 -1l1 1h1l1 -1l2 1q62 -1 62 -7l-137 -256h-101q-4 0 -11 34q-74 200 -74 228h27v-2v2h1l2 -2zM741 275q63 0 91 -5v-2q-13 -57 -13 -132v-9l-2 -2l2 -1v-1l-2 -5l2 -1l-2 -5v-29q10 -8 31 -8h10l1 -2l4 2l45 1
h23q3 0 4 -9l-3 -39v-13l-3 -3h-205l3 74h1l-1 1l1 4l2 48h1l-1 1l1 9v17l1 1l-1 2l1 8l3 60h1l-1 1l1 6v8l2 1l-2 2q2 20 5 20zM1612 272v-1l2 1q34 -2 97 -2h2q3 0 9 -52q15 -57 20 -97h1q27 62 51 150l7 -1h29l28 1v-1v1h59l3 -3v-2l-1 -1l1 -1l-1 -5l-2 -43h-1l1 -1
l-1 -4l-3 -135v-48l2 -8h-2l2 -1v-1l-2 -6h-85l-2 3l5 65v2l1 1l-1 1l1 6v16l2 4l-2 2l2 5v23l1 2l-1 1l2 37v1h-1q-32 -70 -62 -167l-1 -2h-71q-2 0 -8 41q-29 109 -29 133h-1q-12 -55 -12 -88h-1l1 -1l-1 -6v-15l-1 -1l1 -2l-1 -12v-18q0 -31 -4 -31h-75v2l19 194v11h2
l-2 2l2 6v41l1 3h8zM457 135v-4q0 -51 63 -64h8q47 0 70 64l3 24q0 49 -51 56l-12 1q-61 0 -80 -60zM1307 136v-7q0 -44 58 -61l14 -3q49 0 72 66l2 27q0 39 -42 53l-21 1q-59 0 -82 -63z" />
    <glyph glyph-name="X" unicode="X" horiz-adv-x="2117" 
d="M1022 1973v-1l1 1h60l7 -1l2 1l6 -1q127 0 308 -62q103 -39 203 -101q62 -38 145 -112q100 -98 133 -152q76 -108 120 -232q49 -155 49 -270l1 -5h-1l1 -1v-66l-1 -1l1 -2q0 -78 -31 -225q-28 -104 -62 -178q-37 -76 -100 -163q-41 -51 -107 -117q-105 -93 -177 -137
q-32 -17 -58 -17q-68 0 -92 70q-4 19 -4 33q0 61 102 115q32 16 101 81q89 91 124 152q40 63 67 132q37 109 37 141l9 68l-1 1l1 6v10l2 1l-2 1l2 5l1 47q0 315 -226 549q-84 78 -123 100q-210 135 -442 135h-47l-6 -1v1l-1 -1h-1q-103 0 -250 -50q-77 -30 -156 -80
q-50 -31 -139 -117l-33 -38q-196 -225 -196 -518l2 -10h-2l2 -2v-1q0 -207 167 -477q136 -209 200 -317q22 -39 45 -86h-2q-137 64 -255 151q-91 73 -147 147q-64 93 -94 159q-38 74 -69 186q-19 70 -30 152l-5 58h1l-1 1l-1 54v29l1 1l-1 1v1l1 2l-1 1l1 6q0 145 74 334
q45 105 119 208q39 55 128 142q92 81 177 130q76 44 191 83q94 32 247 45zM1033 1696v-1l1 1h58l1 -1l1 1q68 -1 176 -29q93 -31 154 -67q57 -33 131 -99q92 -92 118 -140q50 -75 78 -159q22 -59 32 -169v-1h-1l1 -1v-40q0 -286 -229 -512q-105 -96 -135 -100q-19 -8 -40 -8
h-2q-64 0 -90 66l-5 33q0 69 90 111q29 15 66 53q61 65 87 120q23 43 44 119q12 63 12 91h1l-1 1l1 6v56l-1 6h1l-1 4q0 78 -52 187q-25 49 -75 103q-52 56 -87 77q-145 97 -290 97h-3l-1 1l-1 -1h-2l-2 1l-1 -1h-11l-1 1l-1 -1h-19l-6 -1v1q-64 -7 -100 -17
q-171 -52 -268 -167q-55 -63 -86 -133q-39 -97 -39 -182v-22l-1 -1l1 -1v-2q0 -140 102 -295q260 -429 400 -680l-2 -1h-1q-179 17 -238 35l-267 434q-127 198 -158 292q-34 105 -34 217q0 244 155 447q23 32 97 101q139 115 304 152q59 13 139 18zM1049 1414v-1l1 1h32
l1 -1l1 1h2l1 -1l1 1q45 0 122 -22q155 -57 236 -212q44 -96 44 -189v-6q0 -176 -146 -319q-61 -50 -111 -50q-63 0 -93 68q-5 15 -6 31q0 54 76 108q54 38 69 88q12 35 12 71v3q0 107 -90 188q-59 46 -147 46l-8 -1v1l-1 -1h-2q-82 0 -155 -73q-61 -71 -61 -165
q0 -80 105 -234l418 -700q-130 -36 -201 -36q-135 203 -317 522q-63 108 -139 223q-69 111 -69 230q0 167 118 295q63 61 116 86q92 40 123 40q18 4 68 8z" />
    <glyph glyph-name="Y" unicode="Y" horiz-adv-x="2079" 
d="M1449 1810h3q43 -19 131 -110q60 -70 80 -113q52 -106 52 -202v-18q0 -240 -266 -298l23 -138q0 -9 28 -28q155 -123 226 -184q137 -130 185 -245q23 -47 45 -136q3 -28 11 -28q52 -32 52 -115v-7q0 -76 -21 -94q-40 -38 -86 -38v1l-1 -1q-32 0 -63 21q-72 -20 -170 -20
h-53l-5 2l-1 -2l-5 2l-75 2v2l-1 -2l-6 2l-79 4l-1 -2l-6 2h-40l-74 -10h-5q-21 0 -41 20q-25 -20 -61 -20h-6q-40 0 -73 26q-42 -27 -86 -27v1l-4 -1q-45 0 -91 16q0 -7 -25 -13h-11l-67 8h-32l-6 -2v2l-3 -2l-29 -2v1l-63 -7v2l-1 -2h-17q-68 0 -79 31q-5 10 -5 22v5
q0 10 20 53q1 16 3 16l-1 2v14l-6 2l-3 -2v2q-28 0 -39 -40q-13 -57 -23 -87q-50 -75 -113 -75q-47 0 -64 60l-4 17h-1q-30 -20 -63 -20h-12q-40 0 -69 26q-37 -26 -71 -26v2l-1 -2q-67 0 -90 71q-3 17 -3 30v8l2 29q-29 38 -29 59v10q0 23 8 29q52 51 97 70q45 153 171 263
q82 70 184 121q87 42 174 77v20q0 31 18 86h2q13 -10 32 -66h1q13 0 28 40q8 10 12 10l15 -38h1q20 21 20 60v6q0 38 -7 38l-12 -12h-5q-2 1 -10 31l-12 26h-2q-7 0 -26 -31q-8 -8 -12 -8q-19 50 -19 56h-4q-7 0 -23 -35q-6 -6 -10 -6h-2q-3 0 -7 30q-10 31 -10 54v6
q-71 12 -124 42q-135 83 -135 254v22q0 170 135 312q71 63 123 82h1v-1q-93 -198 -93 -307q0 -83 54 -111q27 -13 49 -13q28 76 80 142q82 101 228 101l32 -2v-1l1 1q81 -10 140 -40q144 -77 217 -224q99 12 117 33q46 35 46 112v7q0 120 -94 303v2q2 5 10 5zM434 1413
q0 -187 154 -255q34 -15 70 -21q-5 26 -5 63v13l1 1l-1 2q0 32 18 121l-1 -1h-2l-2 1l-1 -1q-63 0 -98 57q-20 42 -20 83v7l-1 6h1l-1 2v1l1 1l-1 2l1 8q0 96 58 230q6 10 9 10v4l-6 2h-1q-173 -152 -173 -336zM1492 1747v-1q71 -163 71 -217l1 -29q0 -87 -48 -128
q-51 -48 -117 -48h-9l-5 -2v2l-2 -2l-33 2h-2q-90 0 -109 -44q-14 -28 -14 -62v-6q0 -72 57 -105q46 -16 87 -16q105 0 214 72q28 18 61 65q37 63 37 128l1 1v2l-1 1l1 7v5l-1 5l1 2q0 76 -51 191q-21 43 -60 98q-59 72 -79 79zM960 1582q-88 0 -173 -77q-57 -63 -68 -98
q-45 -98 -45 -199v-31l-1 -2l1 -1v-1q0 -58 13 -115l1 -1q10 0 32 44l1 1h1q19 -63 19 -77h1q11 0 32 38l11 6h1q2 -2 10 -31q4 -9 7 -29q11 4 32 48q0 5 12 17h2q6 -8 29 -51q10 -14 13 -14q13 33 41 70h1l41 -41l14 -7q22 62 39 62h4q13 0 41 -34h1q15 37 36 70h1
q39 -54 52 -141q5 -40 5 -62h-1l1 -2q0 -55 -25 -104h-2q-24 60 -36 60q-24 -65 -41 -83q-3 4 -25 50l-12 11h-1q-10 -30 -37 -77q-6 6 -30 63q-10 14 -12 14q-26 -48 -49 -77h-3q-14 47 -35 82h-2q-20 -45 -45 -76h-1q-21 76 -33 76q-20 -55 -32 -55q-22 66 -28 66l-4 -42
v-10q0 -83 71 -192q30 -52 30 -60h-1q-76 62 -104 165q-10 39 -10 56q-221 -94 -330 -186q-119 -105 -164 -238q8 -31 34 -50q27 -20 31 -20q23 22 64 22h4q42 0 73 -22q29 21 62 21h5l5 1v-1l2 1l5 -1h19l1 -1l1 1l33 -3v-1l1 1l5 -1h29q17 0 36 4q25 -18 26 -23q1 -9 3 -9
q48 33 120 33q35 0 90 -12q17 12 39 12q42 0 71 -29q53 33 87 33h2q42 0 64 -34q14 -15 19 -15t43 37q10 10 35 10l1 1l51 -9q0 21 27 50q33 23 91 23q23 0 23 -11q13 -18 13 -42v-15l8 1q25 0 52 -6q0 60 70 72h13q46 0 66 -43l4 -15v-12q0 -10 -4 -18h1q42 24 107 24v-2
l1 2q43 0 80 -28l12 -14q33 40 86 40l6 -1v1q-22 130 -108 255q-64 79 -105 114q-101 85 -249 188q-16 10 -16 26l-34 156q-32 -9 -55 -9q-107 0 -157 114q-10 35 -10 57v8q0 90 90 120q21 5 39 5v1q-80 148 -219 206q-68 22 -105 23l-1 -1l-6 1h-18l-5 -1v1zM740 1354
q29 0 50 -38q26 -58 26 -110l-1 -4l1 -1q-3 -49 -13 -51l-23 -4q-18 2 -40 25q-37 54 -37 122v1q0 50 28 60h9zM1012 1350h3q45 -3 51 -20q10 -25 10 -46q0 -78 -93 -134q-33 -13 -53 -13q-43 0 -57 43l-2 21v7q0 78 89 130q30 12 52 12zM890 1209v-3q5 -45 33 -45l8 -2
q55 0 109 74q16 28 16 52v3q0 26 -18 34q-13 10 -29 10h-2q-51 0 -99 -68q-18 -30 -18 -55zM719 1288v-7q0 -79 60 -108l14 -3q5 20 5 42v5q-2 75 -39 100q-11 8 -23 8h-6l-1 1l-7 -2zM1531 569v-3q-56 -29 -174 -69q-103 -32 -274 -63v3q88 47 214 85q82 24 171 39z
M435 558l4 -1q87 0 291 -83l47 -23v-1l-20 -1q-61 0 -256 72q-42 20 -66 36v1zM1305 317q15 -36 15 -98v-25l-1 -2l1 -1q-4 -40 -11 -63l-8 -17q19 -15 45 -15h4l1 -1l1 1h4q27 0 41 16q-11 52 -11 72v12q3 32 16 32q20 0 24 -44q0 -20 -13 -77v-1q18 -7 49 -11q30 0 42 20
v1q-11 26 -17 104q0 46 -29 62l-15 3h-5q-17 0 -34 -25q-5 -4 -15 -9l-1 1v43l1 2l-1 1l1 9v12l-1 7h1q-2 18 -6 25q-55 -10 -68 -18q-10 -9 -10 -16zM1514 317q0 -20 26 -26h13q26 0 43 28l2 10q-9 21 -30 21h-4q-39 0 -50 -33zM95 251q2 -8 6 -8l15 1q7 -2 7 -10
q-8 -25 -8 -50q0 -61 51 -85l19 -3q39 0 54 56h-1l-8 4q-22 -6 -29 -6q-9 0 -9 50v11l1 5l-1 7l1 17l12 -1q34 0 34 28h1q0 18 -15 18h-31l-2 2v24l1 8l-1 4q-33 0 -71 -29q-19 -21 -26 -43zM1137 194l1 -2v-1l-1 -1l1 -2v-1l-1 -1q0 -39 43 -76q26 -16 47 -16h3q38 0 53 49
q2 5 2 15l-12 4l-36 -7h-4q-19 0 -29 53v2q0 19 21 24q9 0 17 -20q9 -24 25 -24q27 13 27 33v5q0 31 -46 53q-12 4 -24 4q-44 0 -77 -53q-7 -16 -10 -38zM977 234v-7q0 -16 8 -16h2q18 0 34 32q9 8 14 8q11 0 15 -36v-4q-2 -5 -6 -5v1l-1 -1h-2q-80 -9 -80 -60q0 -25 16 -44
q6 -6 14 -6t52 15l9 1h1q8 0 28 -16l5 -1q28 0 46 41v2q0 10 -15 10l-4 6v5q7 26 8 45q0 54 -52 74q-15 4 -28 4q-49 0 -63 -42zM1710 251q-6 8 -6 22v6h-1l-3 -1v1l-4 -1q-56 0 -75 -36v-3h2q17 -11 17 -47q0 -21 -14 -86h1q18 -10 36 -10h1l1 -1l1 1h13q24 0 40 16
q-15 38 -15 71t18 45h1q17 0 20 -40v-5q0 -29 -10 -77q20 -11 41 -11l4 1v-1l1 1h2q26 0 45 16q-10 18 -18 99q0 34 -21 62q-12 9 -26 9q-28 0 -47 -28zM1830 192q0 -71 73 -96l13 -1q45 0 63 61l-45 -6h-10q-26 0 -26 25q1 9 4 9h82l1 18q0 57 -43 75l-22 5l-6 -1v1
q-39 0 -71 -43q-13 -26 -13 -47zM425 251v-1q14 -13 35 -47q32 -62 32 -104v-3q0 -17 -3 -17q-5 0 -16 29q-4 4 -11 4q-32 0 -32 -27v-6q0 -29 32 -43l18 -3q54 0 92 138q27 86 44 95l4 1v1q-7 11 -29 11h-3l-1 2l-1 -2h-6q-12 0 -29 -5v-1l6 -47v-2q0 -15 -12 -22
q-17 9 -17 34v2l3 30q-20 13 -50 13h-9q-41 0 -47 -30zM244 194v-14q0 -61 58 -81l23 -3l1 -1l1 1h2l1 -1l1 1h3q54 0 81 51q9 21 9 49q0 59 -57 81l-21 2h-7q-72 0 -91 -61q-4 -15 -4 -24zM663 252v-1q18 -30 18 -60h-1l1 -1v-2l-1 -1l1 -1q-1 -31 -18 -80q17 -8 38 -11
l1 1h9l1 -1q40 6 43 19q-10 60 -10 74q3 40 20 40q14 -12 14 -38v-8q0 -26 -14 -75q15 -11 39 -11h4q27 0 49 15q-12 56 -12 75h1l-1 1q4 41 19 41q14 -14 14 -40v-6q0 -19 -10 -76h1q23 -10 47 -10q39 6 39 18q-9 22 -9 65h1l-1 1v26q0 68 -19 68q-7 5 -20 5h-6
q-27 0 -56 -27q-11 27 -34 27h-2q-31 0 -62 -27l-1 2v25h-5q-44 0 -78 -27zM1510 252v-2q9 0 16 -38l3 -17l-1 -1l1 -4q0 -36 -15 -79q21 -16 45 -16l7 1v-1q42 6 50 17q-19 30 -19 107v33l1 27h-2q-54 0 -86 -27zM1910 251q20 -6 20 -24v-4q-1 -7 -4 -7h-6q-25 1 -25 8v2
q0 12 15 25zM324 240q12 0 25 -30q5 -20 5 -38q-3 -32 -8 -32q-22 0 -31 54l-1 13q0 23 10 33zM1041 179h3q6 -6 6 -16q0 -20 -10 -28h-3l-12 5l-1 8q2 31 17 31z" />
    <glyph glyph-name="Z" unicode="Z" horiz-adv-x="2091" 
d="M63 1862h56l3 -3v-18q30 0 202 -55q202 -76 359 -175l26 -19h2q67 50 122 69q146 52 271 52v-2l2 2h33l1 -2l2 2h5l1 -2l2 2l10 -2q142 0 282 -72q38 -22 82 -68h1q262 157 389 211q91 38 117 38q-20 -70 -20 -129v-4q0 -64 4 -92h-2l2 -1v-40l1 -9h-1l1 -2v-14l-1 -1
l1 -2l-1 -9v-1q0 -149 -93 -241q-75 -79 -75 -154v-7h-2l2 -2l-2 -9v-12l2 -38h-4q-1 28 -55 180l50 18q77 34 111 121q40 103 40 220h1l-1 2l1 8v40l2 2l-2 1v2l2 38l-2 71v21q-349 -160 -465 -249h-1q-85 96 -242 135q-71 12 -99 12l-2 2l-2 -2l-8 2h-54q-197 0 -403 -108
l-65 -41q-32 91 -121 145q-78 49 -362 111l-44 14q24 -54 49 -191q31 -200 65 -284q48 -106 132 -140l38 -12q-77 -189 -77 -366v-7q0 -240 150 -439q78 -93 128 -130q244 -186 527 -186h6q312 0 527 225q128 133 191 378q16 77 16 165v7l-3 72h3q23 -119 23 -159h-1l1 -2
v-2q0 -146 -99 -323q-100 -154 -250 -250q-129 -88 -269 -154h-344q-26 0 -172 66q-78 41 -165 111q-102 95 -142 156q-55 84 -84 152q-56 153 -56 197q-8 40 -13 101h2l-2 2v33l-2 12h2l-2 1v26l2 2l-2 2v2l2 1l-2 2l2 9v3q0 114 41 272q-85 35 -134 154q-32 94 -70 303
q-29 112 -62 167q-18 22 -18 29v56zM223 1717q157 -35 229 -72q130 -67 171 -181q6 -18 8 -18q107 105 320 154q83 20 168 20h21q254 0 406 -155l18 -19h2q56 114 295 203l69 24v-2q0 -121 -43 -270q-22 -61 -60 -105q-27 -11 -41 -11h-6q-20 0 -72 31v-1q13 -38 13 -54v-4
q0 -21 -33 -43h-3q-38 8 -101 68l-72 102q-35 38 -104 38h-4q-90 0 -181 -145q-70 -106 -138 -106h-2q-85 0 -139 133q-50 96 -111 118q-59 -6 -119 -47q-68 -64 -91 -114l-75 -132h-8q-46 0 -61 26q-5 9 -5 18v8q0 31 31 73l-27 -2h-12q-54 0 -125 26q-71 102 -93 264
l-26 173zM1700 1481q4 -16 8 -16q28 33 52 33h13q24 0 75 -33v103h-1q-82 -19 -136 -65q-5 -5 -11 -22zM324 1547v-26q0 -102 41 -139l2 14l-5 75v3q0 33 24 33q17 0 113 -35v2q-54 57 -118 64q-9 5 -57 9zM1383 1360q51 -3 124 -70q90 -102 90 -216v-17q0 -59 -33 -116
l-27 -2h-38q-157 0 -300 149v3q5 70 106 180q49 50 77 89h1zM802 1313h10q125 0 181 -170l2 -14q-20 -82 -72 -128q-94 -81 -274 -81q-33 58 -62 86v18q0 200 155 277q38 12 60 12zM1401 1211q0 -38 -70 -78q-31 -25 -31 -63v-3l15 3v-1l1 1l54 -6l2 1h3l2 -1q22 0 24 19v3
q-21 12 -21 23t41 72l1 14q-6 17 -21 17v-1zM752 1193v-1q0 -6 60 -70q20 -27 20 -52v-1q0 -3 -33 -9q-6 -5 -6 -12v-2l27 -3q21 0 74 22l16 2h3v2q0 31 -65 81q-55 37 -96 43zM1687 1193q67 -25 103 -97q34 -84 34 -136l5 -45h-2l2 -2v-68q0 -214 -146 -436
q-152 -219 -396 -302q-88 -26 -176 -26l-5 -1v1l-2 -1q-342 0 -568 279q-105 148 -133 318l-10 96h1l-1 1v66l1 2l-1 2q6 95 28 183q18 69 27 83h4l1 -1l2 1q66 0 78 -97q10 -137 33 -150q5 -10 60 -30q27 -9 57 -9q85 0 209 97q124 84 222 84h25q79 0 228 -97
q90 -54 142 -54q78 0 122 64q21 20 31 165q0 57 25 110zM1847 1038h3q19 -103 19 -122h-3zM1101 939q-122 0 -261 -99q-145 -122 -145 -305v-2q0 -44 13 -107q-100 146 -100 232q0 49 39 94h-1q-25 -2 -62 -40q-18 -31 -18 -69q0 -75 72 -196q85 -107 163 -170
q126 -106 205 -118q54 -10 97 -10q259 0 473 409q74 130 109 173v2q-19 0 -59 53q-12 9 -22 9q-18 -11 -18 -22q24 -17 24 -58q0 -80 -80 -194q-37 -41 -59 -41h-5l-3 3l3 57v32l2 1l-2 2v2l2 2l-2 5q0 145 -88 251q-62 64 -127 85q-62 19 -104 19h-2l-2 2l-1 -2l-8 2h-18
l-8 -2v2l-2 -2h-5zM1868 913h3v-5h-3v5zM1132 895v-1l2 1q107 0 192 -86q64 -75 78 -166l7 -45h-2l2 -2v-38q0 -168 -121 -283q-51 -48 -150 -67l-32 -4l-2 2l-8 -2h-10l-10 2l-1 -2q-74 0 -156 47q-85 57 -128 182q-17 62 -17 114v7q0 178 145 284q99 57 211 57zM913 589
v-4q25 18 38 18h8q33 0 33 -87v-59l-2 -10l3 -26h2q52 101 52 164v16q0 45 -33 68q-38 -4 -81 -28q-20 -21 -20 -52zM1178 648l1 -7l-1 -71v-19q0 -90 34 -108l6 -3l-6 50q0 86 86 116v2l-53 36q-10 6 -30 9l-1 -2h-9l-1 2z" />
    <glyph glyph-name="bracketleft" unicode="[" horiz-adv-x="569" 
 />
    <glyph glyph-name="backslash" unicode="\" horiz-adv-x="569" 
 />
    <glyph glyph-name="bracketright" unicode="]" horiz-adv-x="569" 
 />
    <glyph glyph-name="asciicircum" unicode="^" horiz-adv-x="961" 
 />
    <glyph glyph-name="underscore" unicode="_" 
 />
    <glyph glyph-name="grave" unicode="`" horiz-adv-x="682" 
 />
    <glyph glyph-name="a" unicode="a" horiz-adv-x="2117" 
d="M1170 1140v-2l1 2h228l306 -2v-2l2 2l60 -2h38l2 -2l2 2h6l2 -2l1 2l12 -2q140 0 140 -9q11 -50 11 -86v-19q0 -38 -14 -56h-1330q-48 -169 -119 -574q-27 -127 -48 -197q-32 -11 -62 -11l-137 11v2l-1 -2h-26q-5 0 -45 231l-139 691v10l3 4h163q4 0 29 -132
q60 -390 100 -542q22 18 36 90q75 422 119 591l2 2h408zM2036 1006h2q4 -2 4 -15h5q0 13 5 15q5 -10 5 -19l-2 -2v-3l2 -6l-2 -2h-1l-8 4l-4 -4h-1q-10 7 -10 23zM1773 888v-2l2 2h1l2 -2l2 2l8 -2h6q97 0 195 -80q0 -58 -61 -113q-74 50 -121 50h-15q-41 0 -58 -57v-6
q22 -44 100 -69q126 -30 152 -78q27 -57 27 -116q0 -153 -114 -203q-44 -19 -89 -19h-19q-126 0 -218 92v4q18 50 55 101l13 11q117 -55 164 -55q63 0 63 69q0 54 -71 63q-124 12 -143 36q-71 79 -71 177v6q0 129 126 178zM789 884h52l6 -2l2 2q66 -6 66 -13
q67 -274 123 -639l3 -29q-11 -10 -42 -10h-84q-7 15 -26 102q-9 22 -16 28h-139q-24 0 -34 -105q-6 -24 -9 -25h-123q-3 0 -3 6q63 381 145 674q22 11 79 11zM1168 877l82 -2q22 -47 100 -237l28 -51q14 32 14 95l-1 88l-2 7h2l-2 2v73q0 19 16 19q16 6 44 6h22
q62 -2 62 -14v-658q0 -10 -49 -12l-88 8v2l-2 -2h-2l-1 2l-2 -2l-8 2l-6 -2v2l-2 -2h-6q-6 0 -62 143q-39 94 -76 162q-6 -26 -6 -57l-2 -2l2 -2l-2 -11l4 -153l-2 -2v-2l2 -3q-3 -75 -15 -75q-10 -6 -26 -6h-6l-79 8h-2l-3 4l-3 78l-2 8h2l-2 2l-3 198h2l-2 2l2 10v99l1 2
l-1 7l1 2v2l-1 2l1 10v53l2 2l-2 2l2 17l3 157h2l-2 3v2q0 11 74 14zM792 655q-24 -84 -24 -158q8 -6 21 -6h44v10l1 2l-1 3v8q-4 65 -39 141h-2z" />
    <glyph glyph-name="b" unicode="b" horiz-adv-x="1668" 
d="M160 1890h27q51 -30 100 -30q173 -15 173 -34l4 -18l-9 -49q39 -79 116 -165q0 -10 134 -134q127 -112 142 -129q65 36 209 172q141 152 195 244l-5 61v5q0 30 41 30q158 14 207 33q22 14 28 14h24q7 0 7 -42v-36l-2 -2l2 -2q-15 -136 -15 -199l2 -38q-82 -11 -177 -92
q-155 -153 -191 -169q-51 -28 -60 -28v-2q115 -21 153 -21q66 0 88 30q38 63 59 63q16 0 151 -124l45 -30v-12q-101 -78 -268 -157l-496 -207l-100 -47v-2h14l9 2v-2l2 2h2l75 2l1 1h2l2 -1l12 1h38l9 2v-2l2 2h1l2 -2l2 2h198l11 -2l2 2l12 -2l64 -1v-2l2 2l45 -4l2 14
q0 18 -41 33q-8 9 -8 19v4q181 176 188 176l186 -174q0 -19 -49 -49q-17 -22 -17 -58v-12l19 -129v-14q-2 -29 -7 -29h-21q-32 0 -191 38q-45 7 -111 7h-63l-9 -2v2l-5 -2l-130 -5l-6 -2v2l-1 -2h-25q-13 -92 -13 -160q0 -114 66 -150q29 -23 29 -38q0 -37 -100 -99
q-54 -45 -54 -63q-24 -49 -57 -49q-19 33 -166 172l-41 39q62 60 71 130q9 19 15 107h1l-1 2l1 8v37l2 2l-2 1v53l-39 -2h-12l-231 17h-16q-94 0 -121 -43q-23 -51 -55 -51q-44 55 -118 106q-61 56 -61 70q118 87 259 152q162 71 516 202l98 42v1h-521v-1q0 -16 41 -35
q11 -11 11 -28q-30 -10 -124 -106q-62 -61 -73 -61q-94 97 -184 174v3q10 20 50 44q20 18 20 56q0 31 -38 125q-7 20 -7 42q1 21 7 21q230 -44 297 -44l2 -1l1 1l9 -1h56q62 0 119 15v2q-56 13 -216 162q-117 104 -157 111q-16 11 -62 23q7 26 7 56v2l1 1l-1 2v12l1 2l-1 2
v3q0 23 -20 175v17q0 40 9 40z" />
    <glyph glyph-name="c" unicode="c" horiz-adv-x="2151" 
d="M1018 1892v-2l2 2h78q388 0 694 -266q129 -129 152 -181q147 -228 147 -488v-69l-2 -2l2 -2q-12 -139 -41 -230q-92 -274 -340 -443q-149 -96 -282 -140q-232 -71 -307 -71h-91q-198 21 -333 77q-100 32 -234 113q-198 138 -280 285q-41 59 -86 188q-36 146 -37 217h2
l-2 2v98l2 1l-2 2q0 76 41 232q102 303 362 491q119 79 228 119q118 47 303 65zM1118 1808q-67 0 -135 -25h-2q-10 0 -30 15q0 -34 -21 -34l-80 19q-5 0 -8 -12l8 -29v-7q-5 -10 -16 -10l-41 12h-8l-6 -6v-6q5 -9 16 -9h2l12 2q11 0 17 -16q-4 -7 -6 -50l-7 -3
q-57 26 -112 26q24 -34 59 -34q38 -7 64 -33v-2q18 0 26 75l4 4q7 0 35 -36q11 -8 21 -8q-6 9 -11 34h2l-2 2q0 54 74 79h10q40 0 54 -37v-1q-22 -35 -52 -35h-12q-26 0 -26 21q0 14 47 19l2 2v4h-2l-11 -2v2q-43 0 -43 -25q0 -23 43 -48q15 -14 15 -23h2q42 78 61 104h6
q0 -11 113 -19l10 -8q-5 0 -47 -42h-2l-55 23l2 -10v-6q0 -11 -33 -32l-6 -10v-2l72 14h6l6 -6q-30 -29 -49 -69q-50 29 -107 29l-2 2l-2 -2h-22q-21 0 -45 -10v-2q215 -32 358 -73q396 -110 714 -350v1q-5 67 -53 167q-46 82 -100 156q0 -16 -103 -33q13 -13 13 -21
t-37 -48l-8 -21q-47 31 -47 55q12 0 18 31v12l-8 2q-19 0 -19 -35q-6 -11 -10 -11q-22 15 -78 34v4q3 6 37 19v4q-42 -14 -76 -14q-79 8 -79 48v6q0 11 30 63v4q-17 12 -32 12q-41 0 -41 -18l-31 -65h-2q-4 9 -70 21l-6 6q0 10 35 33q51 17 51 40q-3 10 -14 10l-27 -2l-6 7
q13 0 31 41l6 3q9 0 98 -36l41 -8l2 2l14 -2q0 -8 -26 -30v-6q0 -6 8 -6q33 19 61 19q80 -14 80 -84l-2 -13v-2h2q0 5 52 51q70 -44 112 -44q-99 99 -153 129q-96 64 -213 111q-153 52 -256 52v2l-2 -2l-21 2l-24 -2v2zM1250 1698q49 0 75 -32q0 -35 -53 -44h-8
q-30 0 -41 17v6q0 23 43 23q0 3 -14 7q-52 -14 -52 -38q0 -26 43 -31l25 -3q0 -11 -27 -43q-2 -9 -8 -9q-102 6 -102 50q0 67 92 94zM1510 1528v-2q0 -6 26 -10h6q51 4 51 23q0 23 -30 27h-8q-45 -9 -45 -38zM394 1482l6 -2l2 2l8 -2l231 2q130 0 183 -44v-2l-174 9v2l-2 -2
l-21 2h-92l-14 -2v2l-6 -2q-65 0 -144 -23v-2h6l158 12q49 0 76 -21v-2q-166 0 -236 -33v-2h76l12 2l2 -2l11 2h47q69 -3 69 -11q-39 -7 -200 -21q-27 -6 -62 -19v-2h21q53 0 67 -18v-3h-2q-80 0 -141 -21v-2q31 0 31 -20q-57 -14 -82 -49q-43 -66 -43 -156q4 -11 31 -40v-6
q-11 -13 -19 -13v-2q47 0 64 -23v-2l-5 -4l-30 4q-13 -2 -13 -10q19 -7 78 -15q19 -8 27 -19v-2q-43 10 -66 10h-8l-2 2q-39 0 -39 -29h10q144 -3 144 -23v-4h-2q-19 10 -51 10q-61 -3 -68 -18v-2h2q70 0 303 -32q68 -16 121 -35v-4q-227 39 -307 39q-104 0 -150 -46
q99 0 426 -50q246 -48 436 -113q293 -110 418 -205q143 -115 180 -129q45 26 152 146q208 259 208 447h2l-2 2v26q0 139 -118 219q-136 102 -301 176q-171 79 -420 148q-278 57 -362 57q-79 10 -199 16v2l-2 -2l-10 2h-56q-109 0 -159 -50zM1684 1491l10 -2l8 2v-2l2 2h18
l3 -2l2 2h4l2 -2l6 2v2q0 15 -19 16q-19 0 -36 -18zM1145 1407v-2l2 2q75 0 199 -50q254 -133 254 -345q0 -128 -101 -239q-120 -114 -297 -114h-6q-211 0 -364 142q-109 111 -109 251v10q0 253 279 330q63 15 143 15zM815 1064q0 -170 170 -290q97 -55 213 -55
q170 0 285 124q51 72 51 163v10q0 190 -219 293q-85 35 -178 35h-4q-154 0 -256 -106q-62 -71 -62 -174zM1104 1265q109 0 242 -94q46 -41 51 -86l6 -46h-2l2 -2q0 -106 -137 -151q-31 -8 -86 -12l-2 2h-2l-2 -2q-108 0 -182 65q-27 34 -27 62v13q0 31 18 31q23 13 47 13
q11 0 33 -13q10 -1 10 -6v-2q0 -7 -22 -33l-6 -13q26 -56 84 -56h24q60 0 99 58l4 17q-149 31 -193 48q-67 34 -67 92v10q0 73 63 97q16 6 45 8zM1123 1133v-2q0 -42 84 -58h26q45 0 45 18v19l2 2q0 43 -53 71q-22 5 -43 5q-36 0 -55 -30q-6 -10 -6 -25zM977 895
q76 -32 232 -86q-12 -31 -43 -31h-13q-58 0 -184 83v5l8 23v6zM539 627l16 -54q-4 -12 -10 -13q-55 61 -88 61l-4 -6v-7q16 -34 16 -41v-2q0 -10 -10 -15h-4q-24 0 -31 35q-8 19 -24 19h-8v-2q0 -15 16 -46v-8q-4 -17 -10 -17h-2q-11 0 -29 17h-2l-2 -9v-2q0 -21 74 -27
q22 -10 22 -25v-2l-18 -21q-19 19 -35 19t-16 -11v-2q0 -19 43 -25l6 -8q-13 -12 -13 -21v-6q0 -11 35 -69q4 -7 4 -21l-6 -17q92 -84 176 -119q199 -84 420 -84v-2l2 2h2l2 -2l2 2h2l2 -2l2 2l11 -2h41l8 2l2 -2h2l8 2v-2l6 2q241 0 379 103l20 19q-89 98 -157 144
q-137 93 -264 144q-147 54 -273 82q-87 20 -233 41q-9 0 -18 -27l-11 -2h-4q-5 0 -8 17h2q-1 19 -16 19h-19q-6 -2 -6 -11z" />
    <glyph glyph-name="d" unicode="d" horiz-adv-x="2141" 
d="M660 1295h90q282 0 496 -157q100 -99 126 -169q35 -105 35 -145l-2 -3h-3q-149 181 -321 181q-96 0 -112 -66v-12q0 -137 277 -240q149 -50 268 -50h82l33 3v-3q-10 -18 -197 -27h-11q-370 0 -602 217q-63 68 -63 127v24q0 85 142 124l93 9q66 0 159 -21
q-220 175 -583 175q-73 0 -176 -11v5q151 39 269 39zM1144 503q99 -5 99 -26l-16 -36q-42 27 -91 27q-82 0 -120 -86v-15q0 -29 44 -35h24q39 0 118 35q0 -47 -19 -47q-48 -21 -118 -30q-156 14 -156 83v6q0 87 216 124h19zM298 500q89 0 102 -50q0 -41 -88 -68l66 -80v-3
h-104q-74 87 -74 95h-3q-33 -95 -41 -95h-91l-2 3h-3l77 198h161zM474 500h90l5 -5q-66 -176 -79 -196h-90l-6 6q71 187 80 195zM621 500h165q62 0 74 -50v-3q0 -57 -118 -74h-69q-7 -6 -30 -71l-2 -3h-99l-6 6q77 191 85 195zM1295 498h93v-3l-46 -131v-9q0 -10 30 -15h13
q85 0 104 77q28 78 33 81h44v-3q-52 -158 -74 -158q-58 -47 -137 -47q-112 12 -112 53l-3 15q0 29 55 140zM1766 498q69 0 82 -51v-3q0 -36 -85 -65v-3l80 -80l-3 -3h-88l-87 95q-33 -95 -39 -95h-95q0 20 76 205h159zM1933 498h93l3 -3h3l-63 -163h107l5 -6
q-11 -33 -16 -33h-200l-6 6v6q51 154 74 193zM205 409h11q59 0 80 29v12q-12 15 -36 15q-38 0 -38 -12zM684 409h22q49 0 71 29v12q0 10 -30 15h-38q-5 0 -25 -56zM1692 459l-19 -53h22q48 0 71 29v9q0 10 -30 15h-44z" />
    <glyph glyph-name="e" unicode="e" horiz-adv-x="2119" 
d="M66 880h1987l6 -7v-476l-6 -7h-1987l-6 7v476zM79 622v-149h213l6 -7v-56h1115l43 129h7l-3 -129h116l78 116h6v-4l-43 -112h351l63 165h-145q-6 0 -6 10l104 275h-245l-110 -149h-3l9 149h-426l-82 -185h-6v185h-882zM248 840h245l6 -6v-401l-6 -7h-169l-7 7v56h-213
l-6 7v113q0 15 150 231zM528 840h178l7 -6v-401l-7 -7h-178l-7 7v401zM741 840h176l6 -6v-401l-6 -7h-176l-6 7v401zM954 840h145l6 -6v-245h3l113 251h148l6 -6l-157 -408h-264l-6 7v401zM1617 840l-13 -195l144 195h204l7 -6l-157 -408h-157v4l84 225l-166 -229h-78l-7 7
l7 215v4h-3q-76 -217 -88 -226h-145l-3 4h-3l157 410h217zM346 724l-82 -135h85v135h-3zM324 658h6v-46l-6 -7h-22l-7 7q29 35 29 46zM1880 559h119l4 -3h3q-49 -128 -54 -130h-119l-6 7q45 124 53 126z" />
    <glyph glyph-name="f" unicode="f" horiz-adv-x="2113" 
d="M79 1856h1955l19 -18v-1820l-19 -18h-1955l-19 18v1820zM527 1387q0 -53 67 -156h10l9 28l-48 128v37h19q0 -71 48 -92l76 65q0 27 20 27h9v-9q-15 -83 -86 -83l-9 -46l19 -55q-48 -113 -48 -174q0 -31 143 -120l29 -64l133 -37l29 9l9 -9v-9l48 9h10l9 -9l191 46l9 -9
q0 72 153 165l9 37l-57 174v10l48 147l-19 64h9q29 -6 29 -74l-29 -110q17 -92 39 -92q47 101 47 175q0 151 -152 257q-68 0 -182 92l-104 9h-58q-330 0 -429 -312v-19zM1109 1645h19q0 -49 86 -55v-19h-10q-74 0 -95 46v28zM766 1259h47q82 0 124 -55v-10
q-40 -137 -124 -137h-19q-77 0 -95 110q19 68 67 92zM1223 1259q55 0 86 -92q-25 -120 -105 -120q-133 49 -133 157q33 55 152 55zM995 1084h9q48 -23 86 -128q-23 -56 -57 -56l-48 10l-48 -10q-43 18 -47 37q0 121 105 147zM1691 1011l9 -65l-9 10h-10q-609 -282 -725 -377
q-86 -112 -438 -257v-28l333 156l-9 -9v-9l48 -19l38 10v9l-77 18q275 252 382 257l-19 -27q45 -138 86 -138q0 -24 -115 -55l10 9v9l-153 92l-9 -9v-9q149 -85 152 -101l-362 -92l19 27v10q-466 -198 -486 -239v-9l-29 18q-57 -9 -57 -28q22 0 28 -46q103 88 248 129
l19 -18q377 183 468 183v-9l-10 -9v-9q171 0 525 -138h19l-10 9q0 16 -48 19l-9 9v9h9l248 -92l10 28l-505 183l-20 -27l-190 18v19l190 46l-9 -10v-9l362 -138q0 37 -343 147l-10 10v9l554 266v19l-477 -212l9 28q-58 128 -86 128l468 239q93 -218 143 -220q57 18 57 46
q-80 108 -143 275h-19q-57 -21 -57 -36zM260 946q-25 -134 -105 -294q6 -27 77 -27l38 46q3 -43 124 -65l381 -147l29 10v9q-534 181 -534 202v9l67 165l486 -192q-67 -76 -67 -157l48 -18l57 156q-29 0 -29 19h19l134 -46h10v18l-658 230l9 46v18l-67 18h-19zM785 827v-9
l19 18v9zM1195 845v-36h9v36h-9zM832 836l-9 -37h19v37h-10zM1157 827v-28h19v10zM1109 818v-28h19v9zM918 790l19 -18h10v37h-10zM975 790v-18h39v18l-19 19zM1052 809v-37h19v37h-19zM1252 386h10q228 -71 228 -92h-9q-229 76 -229 92zM1776 230l-9 -37l57 -28l19 56h-9z
" />
    <glyph glyph-name="g" unicode="g" horiz-adv-x="1635" 
d="M86 1861h1463l26 -27v-1812l-26 -27h-1463l-26 27v1812zM342 1128v-27h26q170 150 372 280v40l-38 40h-13q-258 -179 -347 -333zM432 501h-64q-90 0 -90 94q295 205 488 426v80q-5 28 -64 54q-232 -72 -385 -280q-77 -208 -167 -280v-14q13 -53 64 -53l13 13
q73 -106 154 -106h64q200 0 539 373q103 -93 398 -93l13 -14q39 0 39 -26v-14q-219 -259 -437 -346l-167 -40h-115l-77 27v-14q61 -80 167 -80q218 0 526 254q0 39 64 39q90 136 90 200q-47 94 -244 94q-192 31 -192 66v14q40 80 192 133l180 173l-39 54h-25
q-401 -290 -501 -454q-278 -280 -424 -280zM651 1035v-14q-201 -243 -296 -266l-13 13v13q112 188 309 254z" />
    <glyph glyph-name="h" unicode="h" horiz-adv-x="1450" 
d="M1240 1848h4q22 -15 67 -183q20 -83 20 -168q0 -183 -146 -183q0 -6 -261 -10v-148l269 5q193 0 193 -118l4 -114v-35q0 -291 -225 -291l-55 -5q-113 0 -150 79l-8 44l12 65h12q0 -55 82 -65q75 0 75 80v14q-14 74 -110 74q-126 -26 -126 -143q0 -43 35 -148
q-77 -59 -209 -59q-133 0 -201 64q35 82 35 138q0 120 -122 144h-12q-103 0 -103 -84v-5q0 -67 64 -75h31q44 0 71 65h4l12 -69q-18 -119 -134 -119l-40 -5q-214 0 -248 163q-20 79 -20 153q0 203 36 203q30 44 177 44h221l24 -5l12 5v134q0 16 -308 19q-83 33 -83 79
q-16 9 -20 129q0 128 79 326h12q0 -102 103 -188q77 -39 169 -39h8l16 -5q21 0 28 64q26 45 79 45h240q71 -15 71 -89v-15h4q225 0 288 138zM1094 514l16 -5h8l39 5l8 -69l-4 -5v-5l8 -25q29 20 63 20h8q74 0 95 -84l-4 -49v-277l-8 -10h-118l-8 10v301q0 26 -12 30h-8
q-16 -7 -16 -45v-286l-8 -10h-114l-12 15v410l4 5l-4 5v5q2 59 12 59h39zM834 479l19 -5h95l8 -9v-50h12q23 -3 23 -15v-49q0 -9 -35 -15v-212q0 -40 28 -40q15 0 15 -10v-54l-8 -10h-90q-79 0 -79 99v227q-28 5 -28 15v49q0 12 28 15v50zM344 440q87 0 87 -84v-223
q0 -67 -71 -79h-32l-59 20v-54q-2 -15 -31 -15h-79q-24 0 -24 20l-4 375q4 30 12 30h118q8 0 8 -20q42 30 75 30zM640 440h115l7 -10v-208l4 -29l-4 -5l4 -25v-5l-4 -15l4 -24v-84l-15 -20h-115q-8 0 -8 20q-49 -25 -75 -25h-12q-75 0 -75 104v217q0 104 72 104h31
q25 0 59 -30q0 35 12 35zM273 356v-213l12 -14h12l8 9v218l-8 10h-16zM609 356l-4 -59v-50l4 -54l-4 -20l4 -5v-5l-4 -5q3 -64 11 -64h12q10 0 12 64l-4 40h4l-4 5v5l4 29l-4 15h4l-4 5v89l-8 10h-19z" />
    <glyph glyph-name="i" unicode="i" horiz-adv-x="1835" 
d="M926 1872q553 0 797 -641v-19q-65 66 -173 95v18l17 113l-69 57h-69q-156 -124 -156 -339l-104 -76h-18q0 133 156 453l-17 -19h-35q0 101 -52 151v19h52v37l-34 38h-18l-69 -19l-69 19h-35v-283h35l69 19l87 -19v-19l-226 -301l-103 37l-87 -37q-122 195 -329 396v-19
q112 -123 173 -396q-260 76 -260 283q0 75 -35 75h-69l-69 -57v19q273 415 710 415zM718 1721l-34 38h-87v-283h87l52 38l52 -38l69 19l52 -19l17 19h17l52 -19v283h-17l-17 -19h-18l-51 19l-18 -19h-17l-52 38zM1134 1702l17 -94l-17 -75h-17l-35 37l35 57l-35 57l17 18h35
zM216 1438l17 -131l-104 -57v38q60 150 87 150zM1706 1156h17q43 0 52 -226q0 -650 -676 -905l-173 -19q-607 0 -831 697l-35 227l17 207h35q40 -151 104 -151l87 57q329 -96 329 -189l17 -56l-121 -76q-31 170 -104 170q-48 0 -121 -170l17 -19v-56q-87 0 -87 -113
q0 -104 104 -170q41 0 312 283l139 56q69 -127 69 -584l17 -94h18q0 169 34 169l17 -94h18l69 603h52l156 -132l-17 -18v-170l86 -19h70q0 57 34 57h35l35 -38l-18 -19v-19h18q138 55 138 264q0 151 -346 151l-104 75q13 132 121 132l191 113h173q52 0 52 76zM753 948h17
q122 -101 122 -207q-174 38 -174 151l52 19l-17 19v18zM1082 930h17v-76q-43 -94 -156 -94v56z" />
    <glyph glyph-name="j" unicode="j" horiz-adv-x="2134" 
d="M1090 1788l10 -12v-130q62 59 103 59l9 -12v-12l-28 -35v-119q41 17 75 143l56 23h28q57 -44 57 -106q0 -45 -57 -95h-18l-57 24l-28 -107h10l93 -59h10l-10 -60v-35h19q81 -10 84 -36l10 12h9l9 -12h10l-10 -11v-12q38 -83 57 -83v-24q-19 0 -19 -59l-28 -48l9 -11
l-9 -12h-10l-9 12q-6 -28 -131 -72q-128 -99 -187 -189v12q-82 -45 -85 -71l-9 12l-84 -24l-38 12l-28 -12q0 24 -112 95l-150 142l-94 106l-56 48l-9 -12h-19v12l9 12v12l-19 82q0 129 141 166l9 -12q32 119 85 119v12l-66 83v12h66v11q-45 0 -57 95q13 107 85 107
q65 -15 65 -83l38 35l56 -71l28 142h19l84 -94q0 71 84 130zM697 1670q14 -48 28 -48h9l19 24v35l-28 12zM903 1634l9 -12l-9 -12l9 -12l-9 -11l9 -12l-9 -12l28 -24v12l-19 47l10 12l-10 12l38 48l-9 11q-31 -11 -38 -47zM1306 1646v-36l19 -23h9l28 35v12l-28 36h-9z
M819 1622l-10 -12v-12l10 -11h9l9 11v12l-9 12h-9zM1119 1598l-10 -11v-12l28 -12v12zM819 1575l-19 -48v-23h9q0 29 28 59v12h-18zM969 1551v-12l28 -35l28 12l-10 11v12l10 12h-19v12zM1034 1527l10 -11h18l-9 11v12l9 12h-9zM1090 1551v-47h19l10 35l-10 12h-19z
M847 1516l9 -12h10l9 35h-9zM1119 1492h9l19 24h-10zM678 1373v-11l47 11h38q63 0 159 -118h9l10 12v12q-67 118 -160 118h-65zM1034 1267v-12q106 118 178 118v12h-47q-131 -56 -131 -118zM688 1219v-23h9q0 42 37 94h-18q-28 -11 -28 -71zM744 1208h65l-28 35
q-37 -18 -37 -35zM528 1184h10q45 35 84 35v12h-47q-43 -23 -47 -47zM1109 1160q66 0 66 -24l-19 -23h9q21 0 57 106l-10 12h-9q-35 0 -94 -71zM1287 1184v-24l47 12l103 -47v11q0 42 -103 60zM725 1148l19 -23l-10 -12l47 -12h66l47 12v12q-24 0 -66 47l-47 -47h-28v11
l10 12v12l-10 12h-9zM1034 1136l19 -23h9v23h-28zM1090 1136l-9 -11v-24h9l19 24l-9 11h-10zM1147 1054l9 -60v-59h9l38 36v11q-19 48 -56 72zM725 971v-12q0 -18 38 -36v107zM1006 971v-12l9 -60h10q48 0 56 36q0 71 -37 71q-38 -18 -38 -35zM809 959v-12q0 -28 66 -36
l9 12v36l-18 23h-38zM903 935v-36l47 -11h19l18 23v36l-18 24h-38zM1109 911v-35l28 35h-28zM809 888q4 -25 47 -48v48h-47zM875 876v-48l47 -11h9v47l-47 12h-9zM1034 828h19l37 36v12h-28q-14 0 -28 -48zM950 840v-35h19q48 0 56 35v24h-56zM1409 864q45 0 84 -95
q-13 -118 -84 -118h-47l-56 71v35q0 95 103 107zM266 805l9 -12v-142h75l19 -24q-30 0 -75 -178h-19v-71q38 0 38 -189l-19 -24q-143 0 -168 249v35h-47l-19 24v154l19 24h47q0 94 56 94zM1681 805l9 -12v-142h75l19 -24q-34 -11 -66 -178h-28v-47q0 -24 28 -24l9 -12v-177
l-18 -24q-160 51 -160 201q0 83 -37 83q-28 0 -28 24v154l19 24h46q0 74 57 106zM631 769q43 -23 47 -47l-9 -12h-28l-19 24v11l9 12v12zM763 710h28l-19 -24l-9 12v12zM1222 686q93 -16 93 -106v-320l-18 -24h-75l-19 24v249l-19 23l-19 -23v-249l-18 -24h-85l-18 24v249
l-19 23l-19 -23v-249l-19 -24h-93l-19 24v284q0 20 56 36q10 -36 56 -36l188 142h47zM491 674q159 -28 159 -201v-71q-33 -201 -150 -201l-103 71v23q94 39 94 71v12l-141 12h-9q-16 0 -28 59q24 225 178 225zM1924 674q120 0 150 -225v-23q0 -171 -150 -225l-112 71v23
q57 0 103 83v12l-10 -12l-93 12h-56l-19 24v47q0 213 187 213zM781 663h19q0 -40 56 -48l10 -59q-65 0 -113 -71v-225l-19 -24h-93l-19 24v12q38 62 38 130v95q0 44 -38 118v12l19 24h103l9 -12h10zM1474 639v-379l-18 -24h-122v308q55 74 140 95zM987 615l10 -12v-12
l-10 -11h-18v11zM435 497h84l-28 35h-28zM1840 497h84v12l-19 23h-37zM819 485h9l38 -48l-19 -23h-10l-18 23v48z" />
    <glyph glyph-name="k" unicode="k" horiz-adv-x="2058" 
d="M1382 1324l616 -480q-19 -58 -35 -58h-145q11 71 35 71h76v6q-460 130 -1011 130q-299 0 -623 -39v13q360 72 734 72q221 0 574 -33q-195 162 -214 162q-33 -19 -104 -19h-48q-185 0 -554 97v13q233 -52 394 -52h63q178 0 242 117zM233 857h588q102 0 132 -65v-45
q-132 -388 -159 -409h-305q-62 0 -97 52v52q0 53 173 227l28 6h111v-19q-131 -150 -173 -227l7 -20h117q30 30 153 377h-457l-132 -357v-7l14 -13h90l14 -13q-16 -58 -35 -58h-138q-104 0 -104 104q145 415 173 415zM1603 857q132 0 132 -84v-26q-132 -388 -159 -409h-305
q-104 13 -104 84q0 66 180 247l28 6h111v-19q-131 -150 -173 -227l7 -20h117q33 38 153 377h-305q-32 0 -187 -137v-6l21 -299l-7 -6h-152q-19 0 -35 266q305 253 325 253h353zM1818 773h132l13 -13l-124 -344q41 -9 41 -20q-18 -58 -34 -58h-69q-90 22 -90 78v39
q110 318 131 318z" />
    <glyph glyph-name="l" unicode="l" horiz-adv-x="2120" 
d="M100 1860h1920l40 -37v-1786l-40 -37h-1920l-40 37v1786zM920 1228h280q0 30 -140 74q-140 -44 -140 -74zM660 1283l40 -74l140 19v18zM1300 1228l140 -19l20 74h-20q-140 -18 -140 -55zM720 1172l40 -149h600l60 149l-140 18q-41 -111 -80 -111h-20q-40 0 -40 56l20 55
h-200l20 -18v-56l-40 -37h-20q-39 0 -80 111zM760 986v-19h220v19h-220zM1140 986v-19h220v19h-220zM240 800v-75q0 -37 160 -55v-38l-20 -93h40l60 56v93q0 34 -180 56v19l40 55v38h-40zM380 856v-38l40 -37h60v19l-60 56h-40zM520 856v-38l40 -55v-186l40 -38h60l-20 93
v224h-120zM700 856l20 -93v-131l-20 -93l100 19v205l40 55v38h-140zM880 856v-38l40 -55v-93l-40 -131h140v19l-40 56v242h-100zM1020 856v-19l60 -74v-19q0 -37 -60 -37v-56h80l60 56v93l-60 56h-80zM1200 856l20 -131v-93l-20 -93h120l-20 131v186h-100zM1340 856v-19
l60 -74q0 -38 -60 -38v-37l60 -93l-20 -56h140v19q-80 84 -80 130l40 37v75l-60 56h-80zM1700 856v-19l80 -242l-20 -56h120v19l-140 298h-40zM1660 818q-47 -186 -120 -260v-19h140l-20 93l60 19v19l-40 55h20l-20 93h-20zM220 614l60 -75h60v19l-20 56h-100z" />
    <glyph glyph-name="m" unicode="m" horiz-adv-x="2121" 
d="M1463 1172h79q238 0 431 -263q88 -150 88 -321v-14q0 -332 -329 -525q-126 -49 -231 -49q-329 0 -501 331h-4v-5q8 -127 18 -127q37 0 37 -14l5 -39q-12 -11 -111 -15l-37 341l4 5h37l-9 107l-97 -39q-42 0 -65 112v19l9 15q-45 0 -79 141q0 37 135 82l106 -253
q0 181 190 375q163 136 324 136zM1042 579q0 -279 273 -433q94 -39 167 -39h37q255 0 403 282q42 117 42 199q0 293 -287 448q-93 34 -163 34h-18q-179 0 -320 -141q-134 -146 -134 -350zM1496 1012h5q287 0 393 -321l10 -83v-39q0 -248 -260 -379q-71 -25 -130 -25h-27
q-231 0 -362 263q-27 89 -27 165q0 220 199 360q96 59 199 59zM1487 973q0 -65 -107 -195v-5l28 -146v-39l-9 -9q-98 82 -98 180h-4q-23 -68 -23 -112v-10q0 -59 51 -180h-10q-90 73 -111 146h-5v-10q0 -149 102 -291q82 -81 158 -98l-60 107l4 5h5q60 -24 83 -24v5l-46 111
v25q0 19 65 165h9v-14l-28 -161q12 -31 47 -73l27 68h5l9 -10v-53l-18 -68h4l47 19l4 -4v-5l-78 -98h4q80 10 172 98q78 113 78 248l-4 73h-5q-33 -117 -111 -166l-5 5h-4q32 105 32 146q0 54 -14 122h-4q-24 -151 -102 -151l-5 5v9q0 31 32 161l-55 92v-39q0 -50 -42 -87
h-9q-37 33 -37 73q37 134 37 160l-5 25h-4zM667 841l125 -321l-60 -24h-10l-97 258l-37 -15l-23 54zM787 827l28 -83h19v5l-33 83zM556 793q18 -49 88 -336l-24 -10v-4l88 9q47 0 47 -126l-19 -29v-5q32 0 37 -141q0 -54 -157 -54v5q-29 326 -37 326l-14 -5l-162 302
q38 24 65 24l23 -54q23 0 23 10l-19 59zM366 705h14q26 0 115 -267q42 0 42 -73l60 -268l-37 -9h-23q-10 0 -18 63h-24v-59q0 -14 -60 -19l-4 5v19l4 268l-41 -15h-19l-23 20l23 -239h28l4 5h5l9 -29v-24q0 -15 -106 -20q-8 8 -28 239q-28 0 -28 34l-18 48h-5v-5l19 -87
l-61 -29l-32 165l-102 151l65 29l65 -112h4v5l-46 117l65 29l92 -239q28 4 28 10l-9 29l60 30l23 -54h14q-56 181 -83 214l-5 -15l23 -72l-60 -30q-41 83 -41 117v10q0 29 111 58zM843 676q16 -54 28 -58l9 9l-19 54h-9l-5 -5h-4zM523 642l33 -88h4v5q-25 83 -32 83h-5z
M880 472l9 -54l-37 -10v-9l5 -59l23 5h4l14 -14v-34q-3 -15 -37 -15l10 -97h32q9 0 14 -54q0 -8 -107 -14q-7 0 -37 340zM662 389v-5l5 -63h14v44l-5 24h-14zM491 302v-59l4 -34h5l5 5h4l-14 88h-4zM676 253v-5l5 -83h9l5 5h4l-9 83h-14z" />
    <glyph glyph-name="n" unicode="n" horiz-adv-x="2117" 
d="M1995 935q41 -20 41 -73l-14 -16q-13 0 -13 41l-14 16q-173 -26 -173 -57v-8l7 -40l-7 -8h-7q-21 8 -21 48q0 67 118 81zM1981 887l14 -25v-16l-14 -16h-14l-21 16l-48 -40q-14 0 -14 24h-7l-27 -24l-14 16v16q0 21 145 49zM2043 822l14 -16v-49q0 -43 -200 -72h-7v-9
l14 -185l-7 -8v-9l7 -8v-8q-57 -121 -139 -121h-20q-97 13 -97 89l14 16h20l63 -56h34q64 0 76 105v16h-7q-62 -49 -90 -49h-34q-75 0 -104 154q0 113 83 113v-8q-41 -46 -41 -113q37 -97 103 -97q83 18 83 113q-23 105 -83 105v16l42 8v8h-14l-145 -40l-7 8v8q65 65 117 65
q63 -16 63 -33l-7 -8h7l55 16q14 -56 34 -56q166 24 166 64l-7 33l7 8h7zM806 814h35q21 -8 21 -49v-72h6q37 32 63 32h34q59 0 111 -81q35 105 131 105h7q70 0 111 -97l-42 -16h-7q-42 49 -69 49h-7q-59 0 -83 -97l-83 -17q-26 97 -83 97q-83 0 -83 -145h-34l-14 16z
M1960 814h14v-24l35 8h7v-17q0 -22 -146 -48l-13 24q17 41 55 41v-8l-7 -9v-8h14zM509 790q28 -30 28 -267h7q0 186 131 186l69 -24v8l14 16h28q20 0 20 -186q0 -16 -48 -24q0 145 -90 145q-69 -21 -69 -89q0 -47 28 -81q0 -16 -56 -24l-20 65h-7q0 -81 -28 -81h-14l-14 16
l-20 331l7 9h34zM440 781q18 0 42 -347l-42 -16q-21 0 -41 355l7 8h34zM1463 773h14q59 0 89 -56l-48 -24l-55 24q-29 0 -76 -57l-42 -8q-14 32 -14 89l14 16h21q14 0 14 -24h7q33 40 76 40zM219 757q90 -19 90 -97v-16l-21 -65q55 -26 55 -80v-41q0 -105 -221 -105l-27 -8
q-13 29 -35 388q0 14 159 24zM122 685v-9l7 -80q124 0 124 56l-20 33h-111zM1553 693q27 -36 27 -178v-49l-14 -16h-13q-14 0 -28 186q-14 0 -14 40zM385 676q16 0 27 -258l-20 -16h-35v8l-14 250zM1387 644v-81l7 -121l-7 -8h-28q-21 0 -21 105v81q0 19 49 24zM1325 628
l6 -8v-24q0 -151 -89 -186l-49 -16q-70 0 -131 89q-43 -106 -118 -106q-54 9 -89 41q0 -32 -21 -32h-14q-21 0 -21 88l49 17l34 -49h69q57 0 76 105l63 16q42 -113 83 -113q117 0 117 170zM177 531h-41v-73l7 -40q145 0 145 73q0 34 -69 48zM786 466v-80l-14 -17h-21
q-14 0 -14 33q-62 -49 -103 -49h-42l-41 41q0 14 34 24l62 -8h7q19 0 76 48zM516 394l7 -8v-25q0 -16 -48 -24l-14 24v8q0 20 55 25zM433 369h21v-16q0 -16 -55 -24l-7 8v8q7 24 41 24z" />
    <glyph glyph-name="o" unicode="o" horiz-adv-x="2130" 
d="M1561 918q228 0 228 -207l13 -111q-35 -255 -121 -255l-120 -16v16q94 122 94 239v79q0 112 -94 239v16zM2057 918l13 -16v-16q-107 -79 -107 -270q0 -147 107 -271l-13 -16h-14q-214 0 -214 302q0 271 174 271zM87 886h27q26 0 26 -159l14 -16h94q26 0 26 159l14 16h40
l27 -32v-398l-27 -31h-27l-27 31v160h-134v-160l-26 -31h-27l-27 31v398zM851 886h26l27 -32v-398l-27 -31h-26l-27 31v398zM395 775h27l27 -32v-191l40 -48h27l40 48v191l27 32h26l27 -32v-143q0 -191 -147 -191q-112 0 -121 175v159zM676 775h14l40 -32l27 32h27l26 -32
v-48q-80 0 -80 -79v-160l-27 -31h-27l-26 31v287zM1052 775h40q134 -22 134 -159v-16l-27 -32h-201v-16l40 -48h81l40 32h40l27 -32q-86 -95 -161 -95q-147 31 -147 159v48q26 159 134 159zM1266 775q32 0 80 -207l94 207h54l13 -16h14q-152 -397 -175 -398h-53v16l13 95
l-107 287l13 16h54zM998 647h147q-13 48 -80 48q-67 -11 -67 -48z" />
    <glyph glyph-name="p" unicode="p" horiz-adv-x="2104" 
d="M353 1036v-96l-5 -78l5 -77v-32q52 39 87 39q80 -20 80 -71v-45l12 -13q50 77 103 77l104 -19q99 7 166 58l29 6q58 -22 58 -32q-16 -48 -29 -51l-52 19l-46 -64q22 -50 46 -65q74 15 98 32q0 107 69 129l57 13q49 -60 75 -116l75 13q9 352 34 367q127 0 127 -45l6 -45
v-65q0 -118 -98 -193v-13l6 -32h5q135 107 190 123q12 0 12 -20l-6 -32q75 0 75 -71q24 -63 34 -64q23 0 29 238q-75 0 -75 58l6 6h80q6 52 18 52h34q10 0 23 -58q92 0 92 -19v-7q0 -33 -17 -38h-75v-26q0 -174 23 -174h52v7q0 103 92 193q80 0 80 -39l12 -84
q-95 -90 -115 -90v-6q0 -11 75 -77l-6 -7h-6q-86 39 -92 58l-69 -13h-23q-35 0 -92 39q-23 -90 -40 -90h-23q-22 0 -52 32q-21 -45 -52 -45h-34q-56 0 -81 77l23 77h-5q-102 -83 -121 -83q-58 43 -58 83q-80 -21 -80 -45l-40 -38h-23q-67 0 -104 38l-132 -32l-69 84v13l6 32
h-6q-68 -3 -69 -20l23 -90l-81 -77h-40q-65 0 -98 90l-5 39h-6l-40 -26q-58 23 -58 71l-6 38q-46 0 -46 -115v-39l-46 -13q-19 77 -28 77l-69 -77q-161 0 -161 58q-35 32 -35 64q31 101 52 123q126 -16 126 -32v-39l-5 -7v-6l-58 6h-46v-25q103 -58 155 -58q29 56 29 83
l-23 316l6 6h57zM1308 843l6 -83v-26l11 -13q58 116 58 264l-29 6h-17q-16 0 -29 -148zM1981 747q-28 -55 -41 -123q31 15 75 65v51zM624 714l-6 -90q4 -45 17 -45l98 7q0 71 -58 71l-5 6v58h-6zM1095 689q44 -45 69 -45l6 6q0 52 -40 52h-23zM1463 586v-7l69 -38
q17 42 17 90v26h-5q-42 -18 -81 -71zM1078 650v-45q0 -14 46 -26q25 7 34 33q-46 8 -80 38z" />
    <glyph glyph-name="q" unicode="q" horiz-adv-x="2126" 
d="M420 944h99l10 -10v-257h31v257l11 10h99l10 -10v-557h5q50 567 68 567h141q13 0 36 -296l31 -276h6v562l10 10h68l140 -5q53 -31 53 -97v-102q0 -60 -47 -92q47 -14 47 -87v-141q0 -111 -105 -111l-47 -5h-224q-15 0 -15 126v5l-11 10h-36q-7 -141 -16 -141l-26 5h-187
l-11 10v271h-31v-271l-10 -10h-99l-11 10v334q73 73 73 155q0 66 -62 126v10zM1253 944l104 -5h699l10 -10v-67l-10 -10h-84v-538l-10 -10h-99l-11 10v538h-31l-36 5l-6 -5l58 -543l-5 -5h-99l-11 10l-5 126l-5 5h-42q-4 -141 -21 -141h-94l-5 5h-5l57 548h-57l-10 -10v-533
l-11 -10h-99l-10 10v543h-37l-10 -10v-533l-11 -10h-99l-10 10v620l5 5v5zM399 939l5 -5v-276h-5q-68 52 -68 136v19q0 76 68 126zM112 881h47q146 -40 146 -131l5 -34v-5q0 -8 -26 -14q-144 0 -182 145v29zM1086 857v-160h16l16 14v141l-26 5h-6zM1691 794l-16 -262h26l5 5
h6l-6 14l-10 243h-5zM821 789l-16 -257h37l-6 5v5l-10 247h-5zM227 677q70 0 140 -58q-32 -50 -130 -82h-62q-56 0 -115 58q70 82 167 82zM1086 605v-214q27 0 32 15v179l-21 20h-11z" />
    <glyph glyph-name="r" unicode="r" horiz-adv-x="1269" 
d="M868 1814q341 -390 341 -554v-64q0 -207 -234 -383h-22v42q128 159 128 255v64q0 141 -213 299v22l-169 -22l-64 42l-128 -42l-85 22q0 -56 -106 -64q-171 -193 -171 -277v-22q0 -114 192 -255v20l-43 64v43l43 43q112 0 213 -150v-42l-64 -64l-107 64l-21 -64
q-298 154 -298 363v20q0 227 554 512q190 11 190 128h64zM890 1174l85 -84v-22q-43 -235 -213 -235h-43l-41 44q0 166 212 297zM592 833h22l42 -42l-21 -22h-43v64zM1060 109h-43q-191 0 -191 -107l-191 43l-64 -21v-5l-42 -17h-22q-64 0 -64 86h-64v43h128v42q-85 0 -85 86
q-234 0 -234 63v43l42 43l192 -43h21q0 127 149 277q-97 41 -106 85v22h21l107 -65v22l21 -22h21l170 85h85l-64 -85v-21l64 -85l-21 -22v-20l42 -150l107 22l85 -129l-85 -42l-22 22v42h43v21h-43q-170 0 -170 -127h106l150 20v-20l-22 -107l9 8l-18 -22zM699 684l-43 -42
l-21 21h-21v-43h42q110 0 127 64h-21l-22 -21h-21z" />
    <glyph glyph-name="s" unicode="s" horiz-adv-x="2119" 
d="M103 1409h1927l29 -26v-589l-29 -26h-144q-60 60 -172 92v13q129 78 129 104h43v13l-28 92q23 78 86 78q0 27 -58 27l-14 13v13l43 13v13h-29l-43 -13v13l-14 13q-43 0 -43 26l-15 -13h-28v39l14 13v14h-14q-29 0 -29 -40l-15 -13h-14l-14 13l-15 -13h-14l-14 13h-15
l-29 -26l-43 26h-14l29 -39v-13h-15l-72 52v-13l29 -39v-13h-14l-72 26l43 -52v-13h-14l-58 26v-26q59 0 86 -131l-28 -79l14 13h14l159 -130q-144 -53 -187 -92h-144l-173 92l15 13h14l43 -26q0 39 43 39l-28 39l14 13l14 -13h43l-43 52l72 79v39q0 121 -187 236l-43 -14
l-72 14q-162 -135 -172 -249q0 -35 71 -105v-13l-28 -39h43v-13l-15 -13v-13q58 0 58 -26h14l15 13h14l15 -13v-13l-159 -79h-143l-29 26v249h14l29 -26v-131h14l15 65v39q0 123 -216 354h-58l-143 -118h-87q-72 -163 -72 -262v-91q61 0 72 -92l-14 -13h-158l-15 13h-14
l14 13v183l-14 53l14 52l-14 65l14 66l-14 13l14 65v26l-14 66zM506 1304h14l58 -39v-13h-15l-57 39v13zM319 1187l14 -13v-14l-100 -117v13q0 77 86 131zM650 860h28v-53h-28v53zM204 716h14q79 0 130 -79v-13l-44 -52q44 0 44 -26v-157h14q65 287 115 327h72
q42 -12 115 -327h14v301l29 26h58q37 0 57 -118h29l-14 65v27l28 26h43q29 0 29 -118h15q24 118 129 118h14q130 -21 130 -105l-58 -26v-13q58 0 58 -92v-26l57 52q-43 48 -43 92v13q0 71 72 105h58q78 0 115 -66v-13l-43 -52q43 0 57 -105q-29 -117 -129 -117h-15
q-55 0 -129 65q0 -65 -29 -65h-14l-58 13l-43 -13q-110 0 -129 130h-15q0 -130 -29 -130h-43l-86 91q0 -91 -29 -91h-172q-29 0 -29 65h-58q-28 0 -28 -52l-15 -13h-172l-15 13l-14 -13h-29q-144 17 -144 130v92q20 131 130 131zM1527 716h201l15 -13h14l-29 -79h-57v-235
l-29 -26h-43l-29 26v235q-72 0 -72 26v40zM1858 716h57q56 0 130 -353h-87q-28 0 -28 65h-87q0 -65 -28 -65h-58l-29 26q90 327 130 327zM1340 624l29 -26h28l-28 26h-29zM175 572v-39l14 -66h29l-14 13v66q0 26 72 26l-43 39h-15zM1052 572v-39l15 -66h28l-14 13v66
q0 26 58 26v13l-29 26h-15zM506 572l-15 -79h44l-15 79h-14zM1872 546v-53h29v79zM1311 493l29 -26h43v26h-72z" />
    <glyph glyph-name="t" unicode="t" horiz-adv-x="1793" 
d="M1392 1463l341 -1336l-31 -26h-1642v53l651 288v52l-496 655h31q746 -262 868 -262q217 576 278 576z" />
    <glyph glyph-name="u" unicode="u" horiz-adv-x="2110" 
d="M738 1015q22 -84 22 -155h-1l1 -2v-1q0 -9 -15 -9q-23 -8 -38 -30q-16 -34 -27 -92l1 -5q17 -7 32 -7h5q51 0 70 65l2 16v3q0 16 -11 45v2q35 62 119 102l23 -116q3 -6 4 -43q-13 -17 -30 -20q-30 -10 -30 -24q9 -8 22 -8l37 3v-1l1 1l7 -1h5v13q0 72 126 136q3 0 14 -65
q4 -18 8 -77h7l5 2l1 -2l10 2h12l1 -2l2 2q78 -9 99 -9h8l1 -2q19 2 19 15q8 14 27 76q11 21 24 30h3q33 0 33 -65v-56q26 -13 63 -13h21q6 0 14 83q12 37 33 37q29 0 35 -51l-1 -4l1 -2q-4 -48 -13 -71q48 -16 245 -73q254 -88 254 -243h-1l1 -1q-3 -38 -8 -59
q12 -26 34 -112q23 -7 31 -24l4 -22v-2q0 -51 -51 -87q-9 -6 -33 -9q-26 0 -50 36l-1 1h-2q-9 0 -43 -42l-12 -4h-4q-46 19 -46 46l-45 -43q-45 14 -45 28q-3 5 -4 15h-1q-10 0 -29 -33q-7 -4 -16 -4q-19 0 -39 33v4h-1q-28 0 -68 -40q-14 -11 -23 -11h-1q-27 16 -27 21
q-193 -33 -287 -33l-5 -1v1l-1 -1h-1l-149 -3h-22l-1 1l-2 -1l-94 3v1l-2 -1l-6 1q-110 0 -333 41l-25 -57q-11 -8 -20 -8l-22 5q-25 -38 -65 -38v2l-1 -2q-58 0 -135 71l-5 6q0 29 32 75l13 15q-20 26 -42 26q-37 0 -51 -51l-2 -14v-8q0 -11 10 -37q-26 -38 -85 -56l-37 -4
q-65 7 -65 33h1l-1 1q0 55 70 85q24 14 29 24h-2l-17 -2q-84 0 -112 92q-14 48 -14 120l54 37q19 10 45 10l1 -1q7 39 54 96q23 24 67 56q13 31 31 173q13 52 42 72q29 17 51 17l2 -2v-1q-21 -45 -21 -74v-21q20 6 38 6h7q38 0 95 -36q24 0 31 52l1 28v9h2q32 0 44 -92h2
l24 131l1 18v10q0 25 -12 55q82 89 119 96zM718 997q-23 -30 -53 -47q-26 -26 -26 -46q14 -27 68 -44l10 -2q19 0 33 14q-9 79 -14 105q-11 21 -18 21v-1zM883 931q-22 -25 -69 -58q-17 -19 -22 -31q31 -53 83 -53q35 4 35 9q0 69 -26 133h-1zM1043 870q-17 -27 -50 -46
q-41 -27 -41 -59q32 -35 77 -35h10q23 0 38 8q-7 20 -13 96q-11 36 -18 36h-3zM646 857q-17 -55 -17 -103v-4l-2 -2l2 -1v-9q0 -115 82 -167q14 -4 14 -8q-50 -131 -65 -194q15 -8 29 -8h13q31 7 31 28v7q0 12 -7 15h-1q-6 0 -27 -21l-6 -1q-7 0 -13 10q27 11 38 30
q14 25 35 92q12 22 20 29q36 -14 64 -14h4q113 0 162 145l8 33q-22 5 -39 15q-20 -85 -68 -124q-28 -21 -58 -21q-25 0 -54 18q66 159 66 165q-39 22 -52 22q-41 -134 -67 -172q-26 0 -54 46q-15 30 -15 69q0 57 29 110q-35 15 -52 15zM1211 550l-2 1v12q0 17 18 92v5
q0 20 -15 37v2h1l29 -6v19l1 8l-1 1l-7 -1h-9q-18 0 -42 6l-2 -2h-1l-1 2q-15 0 -15 -12q44 -13 44 -15q-8 -5 -23 -8q-19 0 -36 23q-23 -13 -23 -47l5 -60q-3 -32 -15 -33v1l2 21q0 36 -26 103q0 7 -10 7v2q-51 0 -70 -60q-5 -18 -5 -43q0 -71 42 -117l8 -6q31 7 59 45
q37 64 61 89l8 6h2q-11 -32 -11 -60v-9q0 -60 38 -71h1q19 17 33 51l13 15q4 -36 12 -48q16 -18 36 -18q9 0 25 29q14 32 21 37q3 -1 18 -40q10 -11 22 -11q11 0 30 51l8 8l3 -3v-14q0 -43 27 -56l4 -1q37 31 49 77l1 7l-1 5h1q0 12 -9 22h-2q-17 -51 -38 -51q-7 11 -11 54
q0 29 25 152l2 22l-1 1v3l1 2l-1 1v6q0 32 -22 51q-25 -32 -25 -137v-1l-3 -3q-13 4 -23 4q-41 0 -58 -90q-21 -65 -50 -65q-15 19 -15 50q0 28 34 146q4 27 4 45q0 36 -23 66q-41 -27 -45 -164q-8 -83 -22 -105q-10 -21 -25 -30zM327 703v-3h1q10 0 33 21l9 2h3v4l-2 8
q0 33 14 77q-58 0 -58 -109zM566 767l2 -11v-9q0 -16 -25 -50l-2 -10v-2q6 -6 13 -33q5 -4 10 -4q19 0 24 64q-4 55 -22 55zM1292 751q5 -8 5 -13l-8 -44v-7h-1q-5 0 -7 16l10 48h1zM294 571q0 -82 61 -122q43 -23 65 -23l1 2h5l1 -2l1 2h7v-3q-8 -1 -8 -5q8 -30 57 -92
q0 -4 15 -4h21l6 1l1 -1l51 7v38q-32 0 -92 -15l3 18q0 32 -36 54q-7 0 -7 3q42 14 62 45q41 56 41 119v5l1 1l-1 2v1l1 2l-1 4q0 94 -79 122l-31 3q-103 0 -134 -93q-11 -31 -11 -69zM1085 729q22 -41 38 -41q0 12 19 29l1 6v6h-58zM813 602q16 -6 28 -6h6q74 0 102 125
q-12 5 -31 5h-6l-2 1q-75 0 -97 -125zM1337 714v-2q0 -19 -34 -107l-3 -16q0 -22 15 -38q10 11 34 89q11 40 43 66l-7 -1zM704 697v2l-1 -2h-1l-2 2h-1l-1 -2l-7 2h-6q0 -45 40 -57l13 -2v3q0 9 19 47l2 12l-2 4zM1490 691q-14 -46 -14 -93v-33h1q13 0 23 34l11 5h8
q14 -11 14 -41q0 -59 -57 -99l-15 -5q-26 17 -26 36q-22 -19 -47 -19q-22 0 -31 25h-1q-27 -43 -59 -43q-14 0 -34 33q-5 4 -12 4q-18 -36 -40 -36l-13 5q11 -31 11 -62q0 -29 -23 -155l-2 -42v-15q27 15 27 52q9 83 38 83l10 2q25 0 45 -32q14 45 35 45h6q16 0 24 -34v-14
l-15 -80v-3l2 -12q15 16 33 109q19 48 46 48q15 0 30 -57l10 -9q9 52 29 78q36 41 60 48q13 -15 41 -66q17 -20 36 -20h6l24 3q11 -10 30 -58h1q12 0 22 64q0 29 19 56q7 6 12 6q35 -13 35 -39l1 -9v-5q0 -24 -24 -117v-14l-1 -1l1 -2v-1l-1 -2l1 -6h1q0 51 49 112h2
q-14 -20 -29 -112q-17 -37 -36 -37q-15 12 -15 25v6q0 5 23 67l2 19l-1 6h1q-2 20 -6 20l-7 1q-27 0 -38 -36q-10 -101 -39 -101q-13 14 -13 29q0 9 19 74l2 7q0 20 -15 33l-34 -3q-18 0 -32 24q-6 -16 -18 -27h-1l2 21q0 10 -20 58l-3 16q-78 -68 -78 -126l27 1h1
q3 -1 6 -7q-38 -115 -67 -115l-1 2q13 34 13 70l-1 8h1l-1 1v3q0 64 -36 103h-2q-11 -17 -44 -124q-14 -32 -42 -55q-7 12 -7 27v4q0 15 23 91v12q0 19 -11 30h-1q-23 -10 -56 -110q-18 -39 -34 -39l-2 6q0 37 27 90q6 19 6 33h-1q-9 6 -20 6h-16q-15 -20 -26 -90
q-9 -42 -26 -57q-10 -9 -15 -9h-3q-8 35 -8 57q0 32 25 162l1 29q0 23 -9 50q-31 0 -36 -89q0 -38 -5 -53l-19 3q-39 0 -61 -78q-25 -66 -46 -66v3h-1l1 7v3h-1q4 28 19 89v8q0 26 -25 39q-31 -32 -52 -95l-18 -32h-3l25 80l2 14q-3 10 -23 10h-15q-7 0 -14 -83v-25
q0 -55 31 -76l8 -3q7 12 27 91q6 15 12 21v-3q-5 -27 -5 -42v-3l-2 -2l2 -1v-17q5 -59 32 -59q15 8 24 34q13 31 22 40h3q11 -40 36 -59h2q9 11 36 65l2 2h2v-8q0 -42 18 -59q8 -7 19 -7q17 0 34 51q2 0 4 6l1 2h3q3 0 17 -38q9 -14 22 -14q16 0 29 46l5 6h1q11 -64 22 -64
q0 -3 9 -3h2q23 0 39 47q8 12 15 12q9 -31 32 -47q16 -6 36 -6h1q17 0 34 46l15 22h1q11 -81 34 -81q15 0 35 25q11 19 35 97q17 28 33 28l1 -1v-2q-12 -24 -12 -58q0 -62 38 -74h3q11 0 28 48q9 12 16 12q9 -60 44 -60q19 0 37 50q9 9 13 9l1 -2v-1l-1 -2q0 -36 46 -62
q32 17 51 52h4q0 -14 31 -35l22 -6q41 0 64 47q8 17 8 45v6l-2 1v2q-11 -2 -39 -51q-14 -9 -19 -9v1q19 31 19 81q0 68 -38 112h-2v-2q-17 -35 -49 -131q-22 -41 -49 -54h-3q-19 13 -19 29v1q57 50 57 98q-2 39 -20 45l-12 2l-18 -2q0 5 22 8q32 0 51 -51h2q19 56 27 64
q12 11 24 11v3q0 211 -303 279zM473 429q10 -36 27 -46q11 -7 31 -10l1 2h2l1 -2l2 2h13q39 0 39 9q20 48 45 48h5l21 -1q44 115 44 126h-1q-46 20 -77 80l-14 39q-26 -10 -43 -54q-23 -107 -37 -146q-26 -47 -59 -47zM411 663l2 -3q0 -44 -27 -44q-5 6 -5 12q11 24 13 35
h17zM467 648h17q2 0 4 -8q-6 -42 -25 -42h-2q-8 0 -8 6q5 32 14 44zM1422 645h3l2 -17q0 -20 -31 -69h-1q-14 10 -14 24q0 17 41 62zM1058 631q9 -7 15 -68l-2 -1l2 -8q0 -21 -7 -21q-25 0 -25 35q0 32 17 63zM874 520v-2q35 -34 35 -181v-15l1 -4l-1 -2l1 -7v-20h3
q0 20 31 26q18 -2 34 -20q21 44 40 44q33 -21 33 -66l51 51q21 15 34 15v7l2 9l-2 2q0 60 21 98q16 17 31 19q-13 12 -27 62q-3 0 -3 5h-1q-68 -82 -95 -82q-65 35 -65 139v16q-68 -80 -79 -81q-25 -13 -44 -13zM338 601h4q10 0 12 -6q-16 -20 -16 -35v-6q0 -42 82 -60h8
q46 0 57 36l1 15v5l-1 6q0 9 10 9q19 -5 19 -18v-3q0 -2 -11 -6l-42 -46q-18 -12 -41 -12q-14 0 -68 24q-24 47 -27 79h-2l-4 -3l-4 4v5q9 12 23 12zM180 402v-24h2q95 70 128 87v3q-13 0 -27 64q-11 16 -15 16h-1q-84 -79 -84 -119q-3 -7 -3 -27zM772 526q-2 -15 -35 -79
l-1 -15v-6q4 -18 9 -18q0 39 58 100l7 10h-11l-24 8h-3zM745 360q0 -58 45 -80l1 2q0 2 19 22l3 23q-4 4 -22 6l-1 1v6q32 91 46 91q10 6 17 6h3q6 0 11 -45l-2 -2l2 -6q0 -40 -29 -184l-4 -37l2 -6h-2q0 -42 29 -64h1q0 16 26 220l3 60q0 101 -44 138l-5 1q-35 0 -72 -56
q-27 -46 -27 -96zM251 390v-3q0 -17 16 -24q12 0 18 57l1 2h1q6 -6 14 -6q41 15 50 15v1q-8 18 -30 18l-1 2q-32 0 -65 -45zM619 422q0 -11 -5 -17q12 -24 12 -50h3q18 0 28 61q-9 6 -28 6h-10zM82 361h10q9 -1 9 -4l-15 -30q-8 -17 -8 -36q0 -66 90 -94l27 -3q55 0 82 42v2
h-2q-40 -21 -86 -21h-2q-63 0 -82 50l-6 27h2l-2 1q4 51 10 51l7 2h9l1 -2l2 2h1l4 -2q14 54 14 67h-2q-63 -22 -63 -52zM354 405v-6q0 -91 -75 -176q-34 -53 -38 -71q37 13 63 59q37 60 57 60q41 -33 52 -68q-20 -24 -20 -64l1 -2h2q13 0 30 29l13 54l-53 65q-15 18 -15 40
l6 54q-3 26 -23 26zM837 405q-17 -46 -26 -53q0 -8 21 -28l1 -11q-28 -65 -47 -65h-2q-29 15 -50 53q-9 29 -11 29q-63 -70 -80 -118q-13 -33 -24 -82q126 -28 160 -28h8q37 2 37 6l-3 29v12l1 2l-1 1q3 26 26 151l2 25v5l2 1l-2 2v13l2 2q-3 31 -13 54h-1zM293 390l-4 -24
v-5q0 -16 24 -72v-1q13 0 16 88q5 16 10 23l-8 2q-27 -11 -38 -11zM206 389v-8q0 -8 15 -18l1 -9l-2 -8q-35 23 -45 23h-7q-6 0 -6 -21q0 -20 25 -32v17q0 11 6 13q3 -18 12 -18v-3h-7q-2 0 -7 -16l-1 -2h-3l-7 2q0 -30 33 -30v1l-4 17l1 1h2l20 -4h8v3q5 27 20 27
q6 -2 6 -5q0 -2 -14 -6q-5 -6 -5 -15v-3q4 -7 12 -7q25 0 34 27v3q-8 11 -37 27q-17 15 -17 34h1l-1 2l1 8v3h-31zM1737 360v-2q6 -40 26 -40q12 18 12 42q-3 32 -9 32h-17q-12 -11 -12 -32zM412 389q-16 -58 -31 -58v-3q0 -34 49 -77q21 -23 21 -46v-8l-4 -22
q99 -30 113 -30q5 21 44 125l7 24h-1q-93 0 -155 34q-24 21 -38 47q-2 14 -5 14zM585 339q2 -21 18 -21v1l-4 12v6q0 6 11 36q-1 10 -6 10q-19 -15 -19 -44zM652 360q0 -5 -18 -23l-3 -7q0 -12 33 -24h9q11 0 18 10v2q-45 7 -45 24v1h2q25 -18 41 -18q29 5 29 26v3h-29
q-18 0 -37 7v-1zM607 354l-1 -2q0 -34 16 -34h3v4q0 32 -18 32zM121 288h3q28 0 48 28q0 4 -16 8q-26 0 -35 -35v-1zM553 54q22 9 38 48q20 64 52 146q10 26 15 53q-8 0 -13 5q-74 -121 -92 -252zM1850 294q8 0 10 -14v-3q0 -7 -23 -42l-2 -8h-2q-4 2 -4 9v5q0 10 19 53h2z
M1573 291h3q8 -44 10 -65h-2l2 -2v-1q0 -44 -26 -60l-18 -5q-5 9 -8 32h2l-2 1v8l2 1l-2 2q7 49 7 69q4 5 28 12q4 3 4 8zM128 262l-7 2q0 -27 46 -38h19q42 0 61 24q-8 11 -15 11h-3l-36 -3q-19 2 -19 21q-6 0 -35 -15zM1131 264h1q10 -7 10 -17q0 -8 -33 -72
q-13 10 -13 24q0 27 35 65zM1416 264q18 -21 18 -52v-7q0 -24 -12 -39q-4 0 -29 28q-4 0 -4 3l26 67h1zM1948 264q15 -29 15 -52v-7q0 -21 -10 -32h-5q-8 0 -23 21l-5 3q0 12 27 67h1zM1556 248v-18l-6 -36v-3q0 -8 11 -16h2q10 35 10 46v3q-4 24 -17 24zM340 233
q0 -18 52 -36v2q0 18 -27 39l-7 1h-3q-8 0 -15 -6zM1881 211q0 -9 -25 -27l-2 -6q3 -9 5 -9l26 28l1 6q-2 7 -5 8zM891 194q-4 -16 -5 -102h1l6 1l25 -3q9 0 12 8v1q-17 0 -32 82l-5 13h-2zM221 166l-8 -21q0 -14 23 -17q15 -5 18 -12v-2h-2l-12 3h-1q-2 0 -8 -16l-2 -2h-2
q0 28 -40 35q-47 -8 -47 -47q0 -15 17 -15q0 -3 25 -3q38 0 84 38q-4 5 -4 10v3l9 22v3l-4 4l-9 -7h-4q-7 0 -30 24h-3zM378 149q-5 -8 -5 -15q0 -11 23 -26h2v-3h-5q-8 0 -28 15q-11 -6 -11 -13q9 0 82 -54l15 -5v-3h-12q-17 0 -61 42l-13 5q-6 0 -11 -9q78 -60 116 -60
l2 1h1l1 -1q31 0 50 30l-4 1l-47 -15q-7 0 -14 12l2 2v1l11 -3h6q17 0 34 12v5q0 42 -51 51h-11q-24 0 -43 -26l-3 3v11q0 4 20 9l3 9q0 6 -16 6v2l-2 -2h-5l-2 2l-1 -2q-13 0 -23 18zM436 149q19 -16 72 -47q20 -20 22 -31h1l15 39q0 7 -53 20zM1058 126q0 -14 -19 -40v-2
h118v6q0 7 -14 20v7h-3q-18 -16 -38 -16q-18 0 -44 25zM1217 120v-6q0 -7 -13 -19v-11q39 5 43 14q-5 0 -21 21l-6 1h-3zM971 113q0 -7 -13 -18v-11h32q0 26 -15 29h-4zM182 59v1l-2 -1q-27 0 -47 24h-1q-11 0 -11 -11q8 -21 54 -27q47 0 88 35q10 13 10 19v5
q-47 -45 -91 -45z" />
    <glyph glyph-name="v" unicode="v" horiz-adv-x="2073" 
d="M1000 1862v-1l2 1h59l7 -1l1 1l6 -1q124 0 302 -58q100 -37 198 -96q61 -36 142 -105q98 -93 130 -144q75 -102 117 -219q48 -146 48 -255l1 -4h-1l1 -1v-63l-1 -1l1 -1q0 -74 -30 -213q-28 -98 -61 -168q-36 -71 -98 -153q-40 -49 -104 -111q-103 -87 -174 -129
q-31 -16 -56 -16q-67 0 -90 66q-4 18 -4 31q0 57 100 109q31 15 99 76q87 86 121 143q39 60 65 125q36 102 36 133l10 64l-2 1l2 6v9l1 1l-1 1l1 4l1 45q0 298 -221 518q-82 73 -121 95q-204 127 -431 127h-46l-6 -1v1l-1 -1h-1q-101 0 -244 -47q-76 -29 -153 -76
q-49 -29 -136 -110l-33 -36q-191 -213 -191 -488l1 -11h-1l1 -1v-1q0 -196 164 -450q133 -198 196 -299q22 -37 43 -82h-1q-134 61 -250 143q-88 69 -143 139q-63 88 -93 150q-36 70 -67 175q-18 66 -29 143l-5 55h1l-1 1l-1 51v28l1 1l-1 1v1l1 1l-1 1l1 6q0 137 72 315
q45 99 117 196q38 52 125 135q90 76 173 122q74 41 187 79q92 30 241 42zM1011 1601v-2l1 2h57l1 -2l1 2q67 -2 172 -28q91 -29 151 -63q56 -31 128 -94q90 -87 116 -131q49 -71 76 -151q22 -55 31 -159v-1h-1l1 -1v-37q0 -271 -224 -484q-103 -91 -132 -94q-18 -8 -39 -8
h-2q-63 0 -88 63l-5 30q0 66 88 105q28 14 65 50q59 62 84 114q23 40 44 112q12 59 12 85h1l-1 2l1 5v54l-1 5h1l-1 4q0 73 -51 176q-25 46 -73 98q-51 52 -86 72q-142 91 -283 91h-3l-1 2l-1 -2h-3l-1 2l-1 -2h-11l-1 2l-1 -2h-18l-6 -1v1q-63 -6 -98 -16
q-168 -48 -262 -158q-54 -59 -84 -125q-39 -91 -39 -171v-21l-1 -1l1 -1v-2q0 -132 100 -279q254 -404 391 -641l-1 -1h-1q-175 16 -234 33q-233 368 -261 409q-124 188 -154 276q-33 99 -33 205q0 230 151 422q23 30 95 95q136 108 297 143q58 13 136 18zM1027 1335v-2l1 2
h31l2 -2l1 2h1l1 -2l1 2q44 0 119 -21q152 -54 231 -200q44 -91 44 -178v-6q0 -166 -143 -301q-60 -48 -109 -48q-61 0 -91 65q-5 14 -6 29q0 50 74 101q53 36 68 83q12 34 12 67v4q0 100 -88 177q-58 43 -144 43l-8 -1v1l-1 -1h-2q-79 0 -152 -68q-59 -68 -59 -156
q0 -75 103 -221l409 -661q-128 -34 -197 -34q-132 192 -310 493q-61 102 -136 211q-67 104 -67 217q0 157 115 278q62 57 113 81q91 38 121 38q17 4 66 8z" />
    <glyph glyph-name="w" unicode="w" horiz-adv-x="2109" 
d="M1022 1362h50q320 0 877 -283q0 -159 100 -605q-252 -374 -349 -467l-29 -7h-1255q-127 122 -356 480q100 430 100 599q566 283 862 283zM217 1020q0 -143 -86 -500h7q173 -51 592 -145l221 -72v-7l22 7q85 0 85 -27h7q0 25 164 46l57 20l7 -6q106 56 314 92
q223 46 371 92q-86 351 -86 513q-565 257 -841 257q-293 0 -834 -257v-13zM1051 1263q121 -6 121 -19l-21 -191q21 -245 71 -270l71 -145l-7 -6q22 0 22 -73q0 -88 -79 -158q-57 41 -78 92l7 7h7l86 -33h7v7q-37 8 -93 59l21 13h79v7q-93 6 -93 26q28 30 64 33v6h-7l-43 -6
h-21l-7 6h-7l64 73h-7q-14 -21 -79 -46l-7 6v7l43 92v7h-7q-2 -28 -71 -86l-15 46l29 257v26h-7q-24 -322 -57 -322q-41 63 -50 138h-7v-13l21 -125l-7 -7h-7q-75 62 -79 92h-7v-13q39 -31 57 -99l-7 -6h-7l-86 39h-7v-6q27 0 79 -60l-15 -13l-64 7h-14v-7q47 0 78 -33v-13
l-64 -13v-6l50 -7h22v-13q0 -16 -86 -53v-6h7l100 32l7 -6v-7q-30 -64 -71 -92q-93 65 -93 198q22 107 114 230q29 88 43 230l-21 198q26 19 128 19zM1258 1237q285 -70 285 -105l14 -145h-7l-143 59v-6q15 -125 36 -125h78q50 0 50 -86l7 -46l-106 -26q0 -49 21 -119
l100 27l35 -191q-35 -20 -256 -73q-29 93 -129 829l8 7h7zM666 1184l7 -6v-7l-85 -546l171 13l7 -6v-33l7 -66h-7l7 -7v-85l7 -46l-21 -7q-278 70 -278 79v428l7 6l-7 7v197q0 22 156 73zM1586 1138q142 -39 142 -138l57 -158h7v13l-21 191q62 0 78 -151l72 -362l-7 -7h-22
l-128 158v-171l7 -6v-7l-86 -26q-14 14 -114 658l7 6h8zM1108 1112v-33h7v33h-7zM452 1105l7 -6v-165l-7 -6l7 -7v-6l-7 -448l-7 -6l-100 26q14 34 29 184h-7l-100 7l7 -178h-7q-37 0 -43 20q19 506 36 506zM1101 1053v-46h7v46h-7zM374 915l-15 -99h50q-19 99 -35 99z
M302 888l-14 -79h22l7 7h7l-14 72h-8zM1044 665h14l21 -20v-20l-14 -20q29 -10 29 -19v-46l-7 6h-8l-7 -72h-14l-7 33h-7q-5 -33 -22 -33l-7 6v66h-14v40l29 19l-15 40zM1129 467q59 -29 93 -72q0 -35 -157 -73v7l-7 -7h-7q-78 0 -78 20q0 43 57 105q21 -26 21 -92h7
q0 92 21 92q45 -30 50 -65h7v6l-21 73l7 6h7zM987 461v-14q0 -69 -29 -105q-35 0 -71 40q70 79 100 79zM1308 322v-6l21 -13v6zM409 230l29 -151h57l7 59h7q16 0 22 -59h57l28 151h-43l-14 -79h-14l-14 73h-36l-14 -66h-15l-14 72h-43zM666 230l-43 -85q40 -35 43 -66h93
q14 0 57 79q-38 65 -57 72h-93zM837 230v-151h36v112l14 13h21l15 -13l-43 -40l35 -72h50l-35 66q21 0 35 59q-7 26 -42 26h-86zM987 230v-151h43v59h14l28 -59h43v7l-43 85l43 53v6h-28l-50 -52h-7v52h-43zM1136 191l50 -66v-13h-50v-33h79q21 7 21 39l-50 66v20h50v13
l-14 13h-64q-22 -6 -22 -39zM1265 230v-151h35v59l15 13h21l14 -13v-59h36v151h-36v-33l-14 -13h-21l-15 13v33h-35zM1407 158q29 -55 57 -79h93l43 85l-43 66h-93zM1621 217v-131l15 -14h14l28 46q64 31 64 73q0 39 -42 39h-64zM1664 204h21l22 -20l-36 -33l-7 7v46z
M723 197q33 -12 36 -26v-33l-22 -20h-35q-29 14 -29 40q17 39 50 39zM1514 197l36 -33v-19l-29 -27h-35l-22 20v33q12 26 50 26z" />
    <glyph glyph-name="x" unicode="x" horiz-adv-x="2115" 
d="M679 1227l7 -7v-192q6 2 83 196l3 3h107v-3q-186 -483 -193 -483h-111l-7 7v175l4 3l-4 4v3l4 4l-4 24h-3q-84 -220 -94 -220h-103v3q183 470 193 483h118zM949 1227h103l4 -3h3l-193 -483h-108l-3 3h-3q186 471 197 483zM1232 1227v-3l-48 -130v-3l131 136h118v-3
l-211 -231l27 -242h7q180 461 194 476h218l7 -7q-28 -73 -35 -73l-34 -4h-45l-21 4q-18 0 -35 -63q-4 0 -20 -49h103l7 -7q-28 -77 -38 -77l-107 3l-45 -122h131l7 -7l-14 -35h4q272 70 522 147v-7q-1303 -588 -1525 -672q-167 -63 -252 -63h-31q-129 0 -180 143l-7 63v21
q0 169 284 462v-3q-39 -100 -39 -158v-24q0 -134 135 -165l28 -3q125 0 875 206v4h-197q-10 0 -25 196h-6q-70 -196 -80 -196h-100l-7 7l193 479h111zM1488 632h38q76 0 76 -52v-11q0 -14 -21 -63h-55l-14 -3l-17 7q14 27 14 45v7l-18 4h-17q-34 0 -45 -60q0 -6 100 -84
l7 -28q-17 -89 -62 -133q-37 -35 -121 -35q-97 9 -97 49v4q0 42 35 101h76l3 -3h4l-24 -63q6 -16 13 -18h25q40 0 55 74q-3 19 -97 80l-10 32q17 82 59 119q38 31 93 31zM1699 625h100q90 0 90 -49v-14q-26 -112 -48 -112q0 -10 -38 -17v-4q27 -4 27 -28q-19 -90 -59 -133
q-33 -31 -103 -31h-135l-4 3h-3l152 382zM1702 464l4 4h34l4 -4q42 0 59 70v11q-5 14 -32 14h-31q-8 0 -38 -95zM1637 303h52q34 0 51 74v10q-3 11 -20 11h-42q-9 -7 -41 -95z" />
    <glyph glyph-name="y" unicode="y" horiz-adv-x="2101" 
d="M1047 1028l732 -164h225l15 -15v-90q22 0 22 -15v-89q0 -15 -22 -15v-90l-15 -15h-202l-770 -164q-697 164 -793 164h-164l-15 15v299l15 15v-8l7 8h8l45 -8h15v8l52 -8h60zM269 834h-187v-276h202q43 0 755 -165q641 150 755 165h187l15 15v156l-7 112h-195l-755 157
h-15zM1039 983l628 -134v-15h-1256v15zM1600 819l359 -8l7 -7v-209l-15 -15h-1824l-15 15v202l15 14h666zM135 789v-187h1061l45 8l8 -8l186 8h501l8 22l-8 8v134l8 8v7h-1809zM352 774q48 0 59 -67v-37q-28 -45 -67 -45q-28 0 -60 45v44q0 52 68 60zM1443 774
q34 -14 37 -30v-7l-7 -37l7 -53q11 0 60 127h15q25 0 60 -134l-8 -8h-15q-14 0 -14 23l-8 7h-22l-38 -30h-15l-7 8l-8 -8h-22q-12 0 -23 53h-29v-38l-15 -15h-8l-15 15v105q0 15 75 22zM180 767h44q45 -5 45 -23v-44q-7 -23 -45 -23h-22q0 -45 -15 -45h-7l-15 15v105z
M434 767q22 0 30 -60h7q5 60 23 60h7q21 0 30 -60h7q0 55 23 60h7l15 -15q-28 -120 -45 -120h-7q-19 0 -30 68h-7q0 -68 -23 -68h-7q-23 0 -45 127l7 8h8zM613 767h67l15 -15l-15 -15h-52v-8l15 -15h45v-14l-15 -15h-45v-23h52l15 -15l-15 -15h-67q-17 0 -22 90q10 45 22 45
zM725 767h8l15 -15v-90h52l15 -15l-15 -15h-75l-15 15v105zM837 767h8l15 -15v-90h45l15 -15l-15 -15h-68l-15 15v105zM965 767h119l15 -15v-105l-15 -15h-45l-15 15l8 8v7l-8 8v7l8 30h-15v-60l-15 -15h-37l-15 15v105zM1151 767h68l22 -23v-44q-7 -23 -45 -23h-22
q0 -45 -15 -45q-23 8 -23 45v75zM1256 767h82l15 -15l-15 -15h-52v-15h52l15 -15q0 -15 -67 -22v-8q0 -15 75 -22v-8l-15 -15h-75l-15 15v120zM1622 767h23l15 -15v-90h45l15 -15l-15 -15h-68l-15 15v120zM1720 767h82l15 -15q0 -15 -38 -15v-90l-15 -15h-7l-15 15v90
q-37 0 -37 15zM1854 767h15q27 0 52 -127v-8h-15q-18 0 -22 30h-30q-15 0 -15 -22l-7 -8h-15q-15 0 -15 23q32 97 52 112zM1906 767h15v-23h-7l-23 8zM979 744v-82h8q0 75 15 75h45l15 -15v-30l-8 -37h15v89h-90zM202 737v-30l37 7v8l-15 15h-22zM314 692q11 -30 23 -30h22
l15 15v45l-15 15h-22q-23 -8 -23 -45zM1174 737v-15l15 -15h7l15 15l-15 15h-22zM1406 737v-23h37v23h-37zM1548 714v-22h15l-8 22h-7zM1854 700v-8h15v22zM1667 565v-7q0 -15 -635 -150l-613 135v15h934z" />
    <glyph glyph-name="z" unicode="z" horiz-adv-x="2132" 
d="M1228 504q54 0 76 -46l8 -37v-25q-8 -77 -46 -77v-6q25 0 38 -102h6q8 2 8 24v41l5 6h44q5 0 8 -34q0 -130 -82 -130q-87 0 -87 68l-3 34h3l-3 3v25q0 37 -35 37h-22v-77h36l5 -7v-74l-5 -6h-180l-5 6v74l5 7h46v27l3 186h-46l-6 6l3 71l3 3h198zM1367 504l166 -3l3 -3
v-68q0 -6 -28 -6l-2 -3v-3l-3 -136q0 -68 35 -68h3q38 0 38 77v77l3 53l-3 3h-13l-14 -3l-3 3v74l6 6h147l5 -6v-68l-5 -6h-47l-2 -145v-28q0 -136 -96 -136h-40q-112 0 -112 148l3 34v124h-44l-5 6v71q0 6 8 6zM1737 504h172l5 -6v-68l-5 -6h-17v-3l19 -47l28 47v3h-14
q-5 0 -5 9l2 68l3 3h133l6 -6v-68l-6 -6h-35q-8 -6 -57 -96v-6q55 -107 65 -114h25l13 3l3 -3v-78l-5 -6h-169l-6 6v71q0 7 22 7l-24 52h-6l-22 -52h19l6 -7l-3 -74l-3 -3h-149l-6 6v41l3 37h49q57 102 57 111l-62 105h-39l-2 3h-3l3 52v19zM65 501h510l2 -3h3l-3 -222v-84
q0 -71 -8 -71h-504l-5 6v368zM618 501h158l5 -6v-65l-8 -9h-13v-50l-3 -15h3l57 65q-25 0 -25 6v68l6 6h158l5 -6v-68l-5 -6h-44l-60 -68q5 -1 74 -145h46l6 -7v-9q0 -71 -9 -71h-174l-5 6v74q0 7 16 7l-27 68h-3l-19 -22v-46h16l6 -7l-3 -77l-3 -3h-160l-3 3h-3l3 16v58
l5 7h44l3 123v93h-44l-5 6v68zM120 374v-3l8 3l3 -3l8 3l35 -3l158 3h177q-68 74 -196 74l-19 -3v3q-65 0 -152 -52zM1146 421v-71h41q30 0 30 40q0 31 -30 31h-41zM114 368q-19 -26 -19 -49v-16q0 -75 142 -117l71 -9v3q-22 82 -139 163zM316 177q138 0 207 95q11 21 11 44
q0 27 -19 52q-127 -58 -158 -117q-41 -51 -41 -74zM281 288q1 -16 8 -16h49q8 4 8 19v6l-11 13h-35q-19 0 -19 -22z" />
    <glyph glyph-name="braceleft" unicode="{" horiz-adv-x="684" 
 />
    <glyph glyph-name="bar" unicode="|" horiz-adv-x="532" 
 />
    <glyph glyph-name="braceright" unicode="}" horiz-adv-x="684" 
 />
    <glyph glyph-name="asciitilde" unicode="~" horiz-adv-x="1196" 
 />
    <glyph glyph-name="Adieresis" unicode="&#xc4;" horiz-adv-x="1366" 
 />
    <glyph glyph-name="Aring" unicode="&#xc5;" horiz-adv-x="1366" 
 />
    <glyph glyph-name="Ccedilla" unicode="&#xc7;" horiz-adv-x="1479" 
 />
    <glyph glyph-name="Eacute" unicode="&#xc9;" horiz-adv-x="1366" 
 />
    <glyph glyph-name="Ntilde" unicode="&#xd1;" horiz-adv-x="1479" 
 />
    <glyph glyph-name="Odieresis" unicode="&#xd6;" horiz-adv-x="1593" 
 />
    <glyph glyph-name="Udieresis" unicode="&#xdc;" horiz-adv-x="1479" 
 />
    <glyph glyph-name="aacute" unicode="&#xe1;" 
 />
    <glyph glyph-name="agrave" unicode="&#xe0;" 
 />
    <glyph glyph-name="acircumflex" unicode="&#xe2;" 
 />
    <glyph glyph-name="adieresis" unicode="&#xe4;" 
 />
    <glyph glyph-name="atilde" unicode="&#xe3;" 
 />
    <glyph glyph-name="aring" unicode="&#xe5;" 
 />
    <glyph glyph-name="ccedilla" unicode="&#xe7;" horiz-adv-x="1024" 
 />
    <glyph glyph-name="eacute" unicode="&#xe9;" 
 />
    <glyph glyph-name="egrave" unicode="&#xe8;" 
 />
    <glyph glyph-name="ecircumflex" unicode="&#xea;" 
 />
    <glyph glyph-name="edieresis" unicode="&#xeb;" 
 />
    <glyph glyph-name="iacute" unicode="&#xed;" horiz-adv-x="569" 
 />
    <glyph glyph-name="igrave" unicode="&#xec;" horiz-adv-x="569" 
 />
    <glyph glyph-name="icircumflex" unicode="&#xee;" horiz-adv-x="569" 
 />
    <glyph glyph-name="idieresis" unicode="&#xef;" horiz-adv-x="569" 
 />
    <glyph glyph-name="ntilde" unicode="&#xf1;" 
 />
    <glyph glyph-name="oacute" unicode="&#xf3;" 
 />
    <glyph glyph-name="ograve" unicode="&#xf2;" 
 />
    <glyph glyph-name="ocircumflex" unicode="&#xf4;" 
 />
    <glyph glyph-name="odieresis" unicode="&#xf6;" 
 />
    <glyph glyph-name="otilde" unicode="&#xf5;" 
 />
    <glyph glyph-name="uacute" unicode="&#xfa;" 
 />
    <glyph glyph-name="ugrave" unicode="&#xf9;" 
 />
    <glyph glyph-name="ucircumflex" unicode="&#xfb;" 
 />
    <glyph glyph-name="udieresis" unicode="&#xfc;" 
 />
    <glyph glyph-name="dagger" unicode="&#x2020;" 
 />
    <glyph glyph-name="degree" unicode="&#xb0;" horiz-adv-x="819" 
 />
    <glyph glyph-name="cent" unicode="&#xa2;" 
 />
    <glyph glyph-name="sterling" unicode="&#xa3;" 
 />
    <glyph glyph-name="section" unicode="&#xa7;" 
 />
    <glyph glyph-name="bullet" unicode="&#x2022;" horiz-adv-x="717" 
 />
    <glyph glyph-name="paragraph" unicode="&#xb6;" horiz-adv-x="1100" 
 />
    <glyph glyph-name="germandbls" unicode="&#xdf;" horiz-adv-x="1251" 
 />
    <glyph glyph-name="registered" unicode="&#xae;" horiz-adv-x="1509" 
 />
    <glyph glyph-name="copyright" unicode="&#xa9;" horiz-adv-x="1509" 
 />
    <glyph glyph-name="trademark" unicode="&#x2122;" horiz-adv-x="2048" 
 />
    <glyph glyph-name="acute" unicode="&#xb4;" horiz-adv-x="682" 
 />
    <glyph glyph-name="dieresis" unicode="&#xa8;" horiz-adv-x="682" 
 />
    <glyph glyph-name="notequal" unicode="&#x2260;" horiz-adv-x="1124" 
 />
    <glyph glyph-name="AE" unicode="&#xc6;" horiz-adv-x="2048" 
 />
    <glyph glyph-name="Oslash" unicode="&#xd8;" horiz-adv-x="1593" 
 />
    <glyph glyph-name="infinity" unicode="&#x221e;" horiz-adv-x="1460" 
 />
    <glyph glyph-name="plusminus" unicode="&#xb1;" horiz-adv-x="1124" 
 />
    <glyph glyph-name="lessequal" unicode="&#x2264;" horiz-adv-x="1124" 
 />
    <glyph glyph-name="greaterequal" unicode="&#x2265;" horiz-adv-x="1124" 
 />
    <glyph glyph-name="yen" unicode="&#xa5;" 
 />
    <glyph glyph-name="mu" unicode="&#xb5;" horiz-adv-x="1180" 
 />
    <glyph glyph-name="partialdiff" unicode="&#x2202;" horiz-adv-x="1012" 
 />
    <glyph glyph-name="summation" unicode="&#x2211;" horiz-adv-x="1460" 
 />
    <glyph glyph-name="product" unicode="&#x220f;" horiz-adv-x="1686" 
 />
    <glyph glyph-name="glyph155" horiz-adv-x="1124" 
 />
    <glyph glyph-name="integral" unicode="&#x222b;" horiz-adv-x="561" 
 />
    <glyph glyph-name="ordfeminine" unicode="&#xaa;" horiz-adv-x="758" 
 />
    <glyph glyph-name="ordmasculine" unicode="&#xba;" horiz-adv-x="748" 
 />
    <glyph glyph-name="Omega" unicode="&#x2126;" horiz-adv-x="1573" 
 />
    <glyph glyph-name="ae" unicode="&#xe6;" horiz-adv-x="1821" 
 />
    <glyph glyph-name="oslash" unicode="&#xf8;" horiz-adv-x="1251" 
 />
    <glyph glyph-name="questiondown" unicode="&#xbf;" horiz-adv-x="1251" 
 />
    <glyph glyph-name="exclamdown" unicode="&#xa1;" horiz-adv-x="682" 
 />
    <glyph glyph-name="logicalnot" unicode="&#xac;" horiz-adv-x="1196" 
 />
    <glyph glyph-name="radical" unicode="&#x221a;" horiz-adv-x="1124" 
 />
    <glyph glyph-name="florin" unicode="&#x192;" 
 />
    <glyph glyph-name="approxequal" unicode="&#x2248;" horiz-adv-x="1124" 
 />
    <glyph glyph-name="Delta" unicode="&#x2206;" horiz-adv-x="1253" 
 />
    <glyph glyph-name="guillemotleft" unicode="&#xab;" 
 />
    <glyph glyph-name="guillemotright" unicode="&#xbb;" 
 />
    <glyph glyph-name="ellipsis" unicode="&#x2026;" horiz-adv-x="2048" 
 />
    <glyph glyph-name="Agrave" unicode="&#xc0;" horiz-adv-x="1366" 
 />
    <glyph glyph-name="Atilde" unicode="&#xc3;" horiz-adv-x="1366" 
 />
    <glyph glyph-name="Otilde" unicode="&#xd5;" horiz-adv-x="1593" 
 />
    <glyph glyph-name="OE" unicode="&#x152;" horiz-adv-x="2048" 
 />
    <glyph glyph-name="oe" unicode="&#x153;" horiz-adv-x="1933" 
 />
    <glyph glyph-name="endash" unicode="&#x2013;" 
 />
    <glyph glyph-name="emdash" unicode="&#x2014;" horiz-adv-x="2048" 
 />
    <glyph glyph-name="quotedblleft" unicode="&#x201c;" horiz-adv-x="682" 
 />
    <glyph glyph-name="quotedblright" unicode="&#x201d;" horiz-adv-x="682" 
 />
    <glyph glyph-name="quoteleft" unicode="&#x2018;" horiz-adv-x="455" 
 />
    <glyph glyph-name="quoteright" unicode="&#x2019;" horiz-adv-x="455" 
 />
    <glyph glyph-name="divide" unicode="&#xf7;" horiz-adv-x="1124" 
 />
    <glyph glyph-name="lozenge" unicode="&#x25ca;" horiz-adv-x="1012" 
 />
    <glyph glyph-name="ydieresis" unicode="&#xff;" horiz-adv-x="1024" 
 />
    <glyph glyph-name="Ydieresis" unicode="&#x178;" horiz-adv-x="1366" 
 />
    <glyph glyph-name="fraction" unicode="&#x2044;" horiz-adv-x="342" 
 />
    <glyph glyph-name="fraction" unicode="&#x2215;" horiz-adv-x="342" 
 />
    <glyph glyph-name="Euro" unicode="&#x20ac;" 
 />
    <glyph glyph-name="guilsinglleft" unicode="&#x2039;" horiz-adv-x="682" 
 />
    <glyph glyph-name="guilsinglright" unicode="&#x203a;" horiz-adv-x="682" 
 />
    <glyph glyph-name="uniF001" unicode="&#xf001;" horiz-adv-x="1024" 
 />
    <glyph glyph-name="uniF001" unicode="&#xfb01;" horiz-adv-x="1024" 
 />
    <glyph glyph-name="uniF002" unicode="&#xf002;" horiz-adv-x="1024" 
 />
    <glyph glyph-name="uniF002" unicode="&#xfb02;" horiz-adv-x="1024" 
 />
    <glyph glyph-name="daggerdbl" unicode="&#x2021;" 
 />
    <glyph glyph-name="periodcentered" unicode="&#xb7;" horiz-adv-x="569" 
 />
    <glyph glyph-name="periodcentered" unicode="&#x2219;" horiz-adv-x="569" 
 />
    <glyph glyph-name="quotesinglbase" unicode="&#x201a;" horiz-adv-x="455" 
 />
    <glyph glyph-name="quotedblbase" unicode="&#x201e;" horiz-adv-x="682" 
 />
    <glyph glyph-name="perthousand" unicode="&#x2030;" horiz-adv-x="2048" 
 />
    <glyph glyph-name="Acircumflex" unicode="&#xc2;" horiz-adv-x="1366" 
 />
    <glyph glyph-name="Ecircumflex" unicode="&#xca;" horiz-adv-x="1366" 
 />
    <glyph glyph-name="Aacute" unicode="&#xc1;" horiz-adv-x="1366" 
 />
    <glyph glyph-name="Edieresis" unicode="&#xcb;" horiz-adv-x="1366" 
 />
    <glyph glyph-name="Egrave" unicode="&#xc8;" horiz-adv-x="1366" 
 />
    <glyph glyph-name="Iacute" unicode="&#xcd;" horiz-adv-x="569" 
 />
    <glyph glyph-name="Icircumflex" unicode="&#xce;" horiz-adv-x="569" 
 />
    <glyph glyph-name="Idieresis" unicode="&#xcf;" horiz-adv-x="569" 
 />
    <glyph glyph-name="Igrave" unicode="&#xcc;" horiz-adv-x="569" 
 />
    <glyph glyph-name="Oacute" unicode="&#xd3;" horiz-adv-x="1593" 
 />
    <glyph glyph-name="Ocircumflex" unicode="&#xd4;" horiz-adv-x="1593" 
 />
    <glyph glyph-name="Ograve" unicode="&#xd2;" horiz-adv-x="1593" 
 />
    <glyph glyph-name="Uacute" unicode="&#xda;" horiz-adv-x="1479" 
 />
    <glyph glyph-name="Ucircumflex" unicode="&#xdb;" horiz-adv-x="1479" 
 />
    <glyph glyph-name="Ugrave" unicode="&#xd9;" horiz-adv-x="1479" 
 />
    <glyph glyph-name="dotlessi" unicode="&#x131;" horiz-adv-x="569" 
 />
    <glyph glyph-name="circumflex" unicode="&#x2c6;" horiz-adv-x="682" 
 />
    <glyph glyph-name="tilde" unicode="&#x2dc;" horiz-adv-x="682" 
 />
    <glyph glyph-name="uni02C9" unicode="&#x2c9;" horiz-adv-x="682" 
 />
    <glyph glyph-name="breve" unicode="&#x2d8;" horiz-adv-x="682" 
 />
    <glyph glyph-name="dotaccent" unicode="&#x2d9;" horiz-adv-x="682" 
 />
    <glyph glyph-name="ring" unicode="&#x2da;" horiz-adv-x="682" 
 />
    <glyph glyph-name="cedilla" unicode="&#xb8;" horiz-adv-x="682" 
 />
    <glyph glyph-name="hungarumlaut" unicode="&#x2dd;" horiz-adv-x="682" 
 />
    <glyph glyph-name="ogonek" unicode="&#x2db;" horiz-adv-x="682" 
 />
    <glyph glyph-name="caron" unicode="&#x2c7;" horiz-adv-x="682" 
 />
    <glyph glyph-name="Lslash" unicode="&#x141;" 
 />
    <glyph glyph-name="lslash" unicode="&#x142;" horiz-adv-x="455" 
 />
    <glyph glyph-name="Scaron" unicode="&#x160;" horiz-adv-x="1366" 
 />
    <glyph glyph-name="scaron" unicode="&#x161;" horiz-adv-x="1024" 
 />
    <glyph glyph-name="Zcaron" unicode="&#x17d;" horiz-adv-x="1251" 
 />
    <glyph glyph-name="zcaron" unicode="&#x17e;" horiz-adv-x="1024" 
 />
    <glyph glyph-name="brokenbar" unicode="&#xa6;" horiz-adv-x="532" 
 />
    <glyph glyph-name="Eth" unicode="&#xd0;" horiz-adv-x="1479" 
 />
    <glyph glyph-name="eth" unicode="&#xf0;" 
 />
    <glyph glyph-name="Yacute" unicode="&#xdd;" horiz-adv-x="1366" 
 />
    <glyph glyph-name="yacute" unicode="&#xfd;" horiz-adv-x="1024" 
 />
    <glyph glyph-name="Thorn" unicode="&#xde;" horiz-adv-x="1366" 
 />
    <glyph glyph-name="thorn" unicode="&#xfe;" 
 />
    <glyph glyph-name="minus" unicode="&#x2212;" horiz-adv-x="1196" 
 />
    <glyph glyph-name="multiply" unicode="&#xd7;" horiz-adv-x="1196" 
 />
    <glyph glyph-name="uni00B9" unicode="&#xb9;" horiz-adv-x="682" 
 />
    <glyph glyph-name="uni00B2" unicode="&#xb2;" horiz-adv-x="682" 
 />
    <glyph glyph-name="uni00B3" unicode="&#xb3;" horiz-adv-x="682" 
 />
    <glyph glyph-name="onehalf" unicode="&#xbd;" horiz-adv-x="1708" 
 />
    <glyph glyph-name="onequarter" unicode="&#xbc;" horiz-adv-x="1708" 
 />
    <glyph glyph-name="threequarters" unicode="&#xbe;" horiz-adv-x="1708" 
 />
    <glyph glyph-name="franc" unicode="&#x20a3;" 
 />
    <glyph glyph-name="Gbreve" unicode="&#x11e;" horiz-adv-x="1593" 
 />
    <glyph glyph-name="gbreve" unicode="&#x11f;" 
 />
    <glyph glyph-name="Idotaccent" unicode="&#x130;" horiz-adv-x="569" 
 />
    <glyph glyph-name="Scedilla" unicode="&#x15e;" horiz-adv-x="1366" 
 />
    <glyph glyph-name="scedilla" unicode="&#x15f;" horiz-adv-x="1024" 
 />
    <glyph glyph-name="Cacute" unicode="&#x106;" horiz-adv-x="1479" 
 />
    <glyph glyph-name="cacute" unicode="&#x107;" horiz-adv-x="1024" 
 />
    <glyph glyph-name="Ccaron" unicode="&#x10c;" horiz-adv-x="1479" 
 />
    <glyph glyph-name="ccaron" unicode="&#x10d;" horiz-adv-x="1024" 
 />
    <glyph glyph-name="dcroat" unicode="&#x111;" 
 />
    <glyph glyph-name="currency" unicode="&#xa4;" 
 />
    <glyph glyph-name="macron" unicode="&#xaf;" horiz-adv-x="1131" 
 />
    <glyph glyph-name="Amacron" unicode="&#x100;" horiz-adv-x="1366" 
 />
    <glyph glyph-name="amacron" unicode="&#x101;" 
 />
    <glyph glyph-name="Abreve" unicode="&#x102;" horiz-adv-x="1366" 
 />
    <glyph glyph-name="abreve" unicode="&#x103;" 
 />
    <glyph glyph-name="Aogonek" unicode="&#x104;" horiz-adv-x="1366" 
 />
    <glyph glyph-name="aogonek" unicode="&#x105;" 
 />
    <glyph glyph-name="Ccircumflex" unicode="&#x108;" horiz-adv-x="1479" 
 />
    <glyph glyph-name="ccircumflex" unicode="&#x109;" horiz-adv-x="1024" 
 />
    <glyph glyph-name="Cdotaccent" unicode="&#x10a;" horiz-adv-x="1479" 
 />
    <glyph glyph-name="cdotaccent" unicode="&#x10b;" horiz-adv-x="1024" 
 />
    <glyph glyph-name="Dcaron" unicode="&#x10e;" horiz-adv-x="1479" 
 />
    <glyph glyph-name="dcaron" unicode="&#x10f;" horiz-adv-x="1259" 
 />
    <glyph glyph-name="Dcroat" unicode="&#x110;" horiz-adv-x="1479" 
 />
    <glyph glyph-name="Emacron" unicode="&#x112;" horiz-adv-x="1366" 
 />
    <glyph glyph-name="emacron" unicode="&#x113;" 
 />
    <glyph glyph-name="Ebreve" unicode="&#x114;" horiz-adv-x="1366" 
 />
    <glyph glyph-name="ebreve" unicode="&#x115;" 
 />
    <glyph glyph-name="Edotaccent" unicode="&#x116;" horiz-adv-x="1366" 
 />
    <glyph glyph-name="edotaccent" unicode="&#x117;" 
 />
    <glyph glyph-name="Eogonek" unicode="&#x118;" horiz-adv-x="1366" 
 />
    <glyph glyph-name="eogonek" unicode="&#x119;" 
 />
    <glyph glyph-name="Ecaron" unicode="&#x11a;" horiz-adv-x="1366" 
 />
    <glyph glyph-name="ecaron" unicode="&#x11b;" 
 />
    <glyph glyph-name="Gcircumflex" unicode="&#x11c;" horiz-adv-x="1593" 
 />
    <glyph glyph-name="gcircumflex" unicode="&#x11d;" 
 />
    <glyph glyph-name="Gdotaccent" unicode="&#x120;" horiz-adv-x="1593" 
 />
    <glyph glyph-name="gdotaccent" unicode="&#x121;" 
 />
    <glyph glyph-name="Gcommaaccent" unicode="&#x122;" horiz-adv-x="1593" 
 />
    <glyph glyph-name="gcommaaccent" unicode="&#x123;" 
 />
    <glyph glyph-name="Hcircumflex" unicode="&#x124;" horiz-adv-x="1479" 
 />
    <glyph glyph-name="hcircumflex" unicode="&#x125;" 
 />
    <glyph glyph-name="Hbar" unicode="&#x126;" horiz-adv-x="1479" 
 />
    <glyph glyph-name="hbar" unicode="&#x127;" 
 />
    <glyph glyph-name="Itilde" unicode="&#x128;" horiz-adv-x="569" 
 />
    <glyph glyph-name="itilde" unicode="&#x129;" horiz-adv-x="569" 
 />
    <glyph glyph-name="Imacron" unicode="&#x12a;" horiz-adv-x="569" 
 />
    <glyph glyph-name="imacron" unicode="&#x12b;" horiz-adv-x="569" 
 />
    <glyph glyph-name="Ibreve" unicode="&#x12c;" horiz-adv-x="569" 
 />
    <glyph glyph-name="ibreve" unicode="&#x12d;" horiz-adv-x="569" 
 />
    <glyph glyph-name="Iogonek" unicode="&#x12e;" horiz-adv-x="569" 
 />
    <glyph glyph-name="iogonek" unicode="&#x12f;" horiz-adv-x="455" 
 />
    <glyph glyph-name="IJ" unicode="&#x132;" horiz-adv-x="1505" 
 />
    <glyph glyph-name="ij" unicode="&#x133;" horiz-adv-x="909" 
 />
    <glyph glyph-name="Jcircumflex" unicode="&#x134;" horiz-adv-x="1024" 
 />
    <glyph glyph-name="jcircumflex" unicode="&#x135;" horiz-adv-x="455" 
 />
    <glyph glyph-name="Kcommaaccent" unicode="&#x136;" horiz-adv-x="1366" 
 />
    <glyph glyph-name="kcommaaccent" unicode="&#x137;" horiz-adv-x="1024" 
 />
    <glyph glyph-name="kgreenlandic" unicode="&#x138;" horiz-adv-x="1024" 
 />
    <glyph glyph-name="Lacute" unicode="&#x139;" 
 />
    <glyph glyph-name="lacute" unicode="&#x13a;" horiz-adv-x="455" 
 />
    <glyph glyph-name="Lcommaaccent" unicode="&#x13b;" 
 />
    <glyph glyph-name="lcommaaccent" unicode="&#x13c;" horiz-adv-x="455" 
 />
    <glyph glyph-name="Lcaron" unicode="&#x13d;" 
 />
    <glyph glyph-name="lcaron" unicode="&#x13e;" horiz-adv-x="597" 
 />
    <glyph glyph-name="Ldot" unicode="&#x13f;" 
 />
    <glyph glyph-name="ldot" unicode="&#x140;" horiz-adv-x="684" 
 />
    <glyph glyph-name="Nacute" unicode="&#x143;" horiz-adv-x="1479" 
 />
    <glyph glyph-name="nacute" unicode="&#x144;" 
 />
    <glyph glyph-name="Ncommaaccent" unicode="&#x145;" horiz-adv-x="1479" 
 />
    <glyph glyph-name="ncommaaccent" unicode="&#x146;" 
 />
    <glyph glyph-name="Ncaron" unicode="&#x147;" horiz-adv-x="1479" 
 />
    <glyph glyph-name="ncaron" unicode="&#x148;" 
 />
    <glyph glyph-name="napostrophe" unicode="&#x149;" horiz-adv-x="1237" 
 />
    <glyph glyph-name="Eng" unicode="&#x14a;" horiz-adv-x="1481" 
 />
    <glyph glyph-name="eng" unicode="&#x14b;" 
 />
    <glyph glyph-name="Omacron" unicode="&#x14c;" horiz-adv-x="1593" 
 />
    <glyph glyph-name="omacron" unicode="&#x14d;" 
 />
    <glyph glyph-name="Obreve" unicode="&#x14e;" horiz-adv-x="1593" 
 />
    <glyph glyph-name="obreve" unicode="&#x14f;" 
 />
    <glyph glyph-name="Ohungarumlaut" unicode="&#x150;" horiz-adv-x="1593" 
 />
    <glyph glyph-name="ohungarumlaut" unicode="&#x151;" 
 />
    <glyph glyph-name="Racute" unicode="&#x154;" horiz-adv-x="1479" 
 />
    <glyph glyph-name="racute" unicode="&#x155;" horiz-adv-x="682" 
 />
    <glyph glyph-name="Rcommaaccent" unicode="&#x156;" horiz-adv-x="1479" 
 />
    <glyph glyph-name="rcommaaccent" unicode="&#x157;" horiz-adv-x="682" 
 />
    <glyph glyph-name="Rcaron" unicode="&#x158;" horiz-adv-x="1479" 
 />
    <glyph glyph-name="rcaron" unicode="&#x159;" horiz-adv-x="682" 
 />
    <glyph glyph-name="Sacute" unicode="&#x15a;" horiz-adv-x="1366" 
 />
    <glyph glyph-name="sacute" unicode="&#x15b;" horiz-adv-x="1024" 
 />
    <glyph glyph-name="Scircumflex" unicode="&#x15c;" horiz-adv-x="1366" 
 />
    <glyph glyph-name="scircumflex" unicode="&#x15d;" horiz-adv-x="1024" 
 />
    <glyph glyph-name="Tcommaaccent" unicode="&#x162;" horiz-adv-x="1251" 
 />
    <glyph glyph-name="tcommaaccent" unicode="&#x163;" horiz-adv-x="569" 
 />
    <glyph glyph-name="Tcaron" unicode="&#x164;" horiz-adv-x="1251" 
 />
    <glyph glyph-name="tcaron" unicode="&#x165;" horiz-adv-x="768" 
 />
    <glyph glyph-name="Tbar" unicode="&#x166;" horiz-adv-x="1251" 
 />
    <glyph glyph-name="tbar" unicode="&#x167;" horiz-adv-x="569" 
 />
    <glyph glyph-name="Utilde" unicode="&#x168;" horiz-adv-x="1479" 
 />
    <glyph glyph-name="utilde" unicode="&#x169;" 
 />
    <glyph glyph-name="Umacron" unicode="&#x16a;" horiz-adv-x="1479" 
 />
    <glyph glyph-name="umacron" unicode="&#x16b;" 
 />
    <glyph glyph-name="Ubreve" unicode="&#x16c;" horiz-adv-x="1479" 
 />
    <glyph glyph-name="ubreve" unicode="&#x16d;" 
 />
    <glyph glyph-name="Uring" unicode="&#x16e;" horiz-adv-x="1479" 
 />
    <glyph glyph-name="uring" unicode="&#x16f;" 
 />
    <glyph glyph-name="Uhungarumlaut" unicode="&#x170;" horiz-adv-x="1479" 
 />
    <glyph glyph-name="uhungarumlaut" unicode="&#x171;" 
 />
    <glyph glyph-name="Uogonek" unicode="&#x172;" horiz-adv-x="1479" 
 />
    <glyph glyph-name="uogonek" unicode="&#x173;" 
 />
    <glyph glyph-name="Wcircumflex" unicode="&#x174;" horiz-adv-x="1933" 
 />
    <glyph glyph-name="wcircumflex" unicode="&#x175;" horiz-adv-x="1479" 
 />
    <glyph glyph-name="Ycircumflex" unicode="&#x176;" horiz-adv-x="1366" 
 />
    <glyph glyph-name="ycircumflex" unicode="&#x177;" horiz-adv-x="1024" 
 />
    <glyph glyph-name="Zacute" unicode="&#x179;" horiz-adv-x="1251" 
 />
    <glyph glyph-name="zacute" unicode="&#x17a;" horiz-adv-x="1024" 
 />
    <glyph glyph-name="Zdotaccent" unicode="&#x17b;" horiz-adv-x="1251" 
 />
    <glyph glyph-name="zdotaccent" unicode="&#x17c;" horiz-adv-x="1024" 
 />
    <glyph glyph-name="longs" unicode="&#x17f;" horiz-adv-x="455" 
 />
    <glyph glyph-name="Aringacute" unicode="&#x1fa;" horiz-adv-x="1366" 
 />
    <glyph glyph-name="aringacute" unicode="&#x1fb;" 
 />
    <glyph glyph-name="AEacute" unicode="&#x1fc;" horiz-adv-x="2048" 
 />
    <glyph glyph-name="aeacute" unicode="&#x1fd;" horiz-adv-x="1821" 
 />
    <glyph glyph-name="Oslashacute" unicode="&#x1fe;" horiz-adv-x="1593" 
 />
    <glyph glyph-name="oslashacute" unicode="&#x1ff;" horiz-adv-x="1251" 
 />
    <glyph glyph-name="tonos" unicode="&#x384;" horiz-adv-x="682" 
 />
    <glyph glyph-name="dieresistonos" unicode="&#x385;" horiz-adv-x="682" 
 />
    <glyph glyph-name="Alphatonos" unicode="&#x386;" horiz-adv-x="1367" 
 />
    <glyph glyph-name="anoteleia" unicode="&#x387;" horiz-adv-x="569" 
 />
    <glyph glyph-name="Epsilontonos" unicode="&#x388;" horiz-adv-x="1606" 
 />
    <glyph glyph-name="Etatonos" unicode="&#x389;" horiz-adv-x="1716" 
 />
    <glyph glyph-name="Iotatonos" unicode="&#x38a;" horiz-adv-x="786" 
 />
    <glyph glyph-name="Omicrontonos" unicode="&#x38c;" horiz-adv-x="1586" 
 />
    <glyph glyph-name="Upsilontonos" unicode="&#x38e;" horiz-adv-x="1752" 
 />
    <glyph glyph-name="Omegatonos" unicode="&#x38f;" horiz-adv-x="1541" 
 />
    <glyph glyph-name="iotadieresistonos" unicode="&#x390;" horiz-adv-x="455" 
 />
    <glyph glyph-name="Alpha" unicode="&#x391;" horiz-adv-x="1366" 
 />
    <glyph glyph-name="Beta" unicode="&#x392;" horiz-adv-x="1366" 
 />
    <glyph glyph-name="Gamma" unicode="&#x393;" horiz-adv-x="1128" 
 />
    <glyph glyph-name="uni0394" unicode="&#x394;" horiz-adv-x="1368" 
 />
    <glyph glyph-name="Epsilon" unicode="&#x395;" horiz-adv-x="1366" 
 />
    <glyph glyph-name="Zeta" unicode="&#x396;" horiz-adv-x="1251" 
 />
    <glyph glyph-name="Eta" unicode="&#x397;" horiz-adv-x="1479" 
 />
    <glyph glyph-name="Theta" unicode="&#x398;" horiz-adv-x="1593" 
 />
    <glyph glyph-name="Iota" unicode="&#x399;" horiz-adv-x="569" 
 />
    <glyph glyph-name="Kappa" unicode="&#x39a;" horiz-adv-x="1366" 
 />
    <glyph glyph-name="Lambda" unicode="&#x39b;" horiz-adv-x="1368" 
 />
    <glyph glyph-name="Mu" unicode="&#x39c;" horiz-adv-x="1706" 
 />
    <glyph glyph-name="Nu" unicode="&#x39d;" horiz-adv-x="1479" 
 />
    <glyph glyph-name="Xi" unicode="&#x39e;" horiz-adv-x="1331" 
 />
    <glyph glyph-name="Omicron" unicode="&#x39f;" horiz-adv-x="1593" 
 />
    <glyph glyph-name="Pi" unicode="&#x3a0;" horiz-adv-x="1479" 
 />
    <glyph glyph-name="Rho" unicode="&#x3a1;" horiz-adv-x="1366" 
 />
    <glyph glyph-name="Sigma" unicode="&#x3a3;" horiz-adv-x="1266" 
 />
    <glyph glyph-name="Tau" unicode="&#x3a4;" horiz-adv-x="1251" 
 />
    <glyph glyph-name="Upsilon" unicode="&#x3a5;" horiz-adv-x="1366" 
 />
    <glyph glyph-name="Phi" unicode="&#x3a6;" horiz-adv-x="1634" 
 />
    <glyph glyph-name="Chi" unicode="&#x3a7;" horiz-adv-x="1366" 
 />
    <glyph glyph-name="Psi" unicode="&#x3a8;" horiz-adv-x="1711" 
 />
    <glyph glyph-name="uni03A9" unicode="&#x3a9;" horiz-adv-x="1531" 
 />
    <glyph glyph-name="Iotadieresis" unicode="&#x3aa;" horiz-adv-x="569" 
 />
    <glyph glyph-name="Upsilondieresis" unicode="&#x3ab;" horiz-adv-x="1366" 
 />
    <glyph glyph-name="alphatonos" unicode="&#x3ac;" horiz-adv-x="1184" 
 />
    <glyph glyph-name="epsilontonos" unicode="&#x3ad;" horiz-adv-x="913" 
 />
    <glyph glyph-name="etatonos" unicode="&#x3ae;" 
 />
    <glyph glyph-name="iotatonos" unicode="&#x3af;" horiz-adv-x="455" 
 />
    <glyph glyph-name="upsilondieresistonos" unicode="&#x3b0;" horiz-adv-x="1120" 
 />
    <glyph glyph-name="alpha" unicode="&#x3b1;" horiz-adv-x="1184" 
 />
    <glyph glyph-name="beta" unicode="&#x3b2;" horiz-adv-x="1178" 
 />
    <glyph glyph-name="gamma" unicode="&#x3b3;" horiz-adv-x="1024" 
 />
    <glyph glyph-name="delta" unicode="&#x3b4;" horiz-adv-x="1140" 
 />
    <glyph glyph-name="epsilon" unicode="&#x3b5;" horiz-adv-x="913" 
 />
    <glyph glyph-name="zeta" unicode="&#x3b6;" horiz-adv-x="903" 
 />
    <glyph glyph-name="eta" unicode="&#x3b7;" 
 />
    <glyph glyph-name="theta" unicode="&#x3b8;" 
 />
    <glyph glyph-name="iota" unicode="&#x3b9;" horiz-adv-x="455" 
 />
    <glyph glyph-name="kappa" unicode="&#x3ba;" horiz-adv-x="1024" 
 />
    <glyph glyph-name="lambda" unicode="&#x3bb;" horiz-adv-x="1024" 
 />
    <glyph glyph-name="uni03BC" unicode="&#x3bc;" horiz-adv-x="1180" 
 />
    <glyph glyph-name="nu" unicode="&#x3bd;" horiz-adv-x="1024" 
 />
    <glyph glyph-name="xi" unicode="&#x3be;" horiz-adv-x="917" 
 />
    <glyph glyph-name="omicron" unicode="&#x3bf;" 
 />
    <glyph glyph-name="pi" unicode="&#x3c0;" horiz-adv-x="1413" 
 />
    <glyph glyph-name="rho" unicode="&#x3c1;" horiz-adv-x="1165" 
 />
    <glyph glyph-name="sigma1" unicode="&#x3c2;" horiz-adv-x="987" 
 />
    <glyph glyph-name="sigma" unicode="&#x3c3;" horiz-adv-x="1264" 
 />
    <glyph glyph-name="tau" unicode="&#x3c4;" horiz-adv-x="809" 
 />
    <glyph glyph-name="upsilon" unicode="&#x3c5;" horiz-adv-x="1120" 
 />
    <glyph glyph-name="phi" unicode="&#x3c6;" horiz-adv-x="1328" 
 />
    <glyph glyph-name="chi" unicode="&#x3c7;" horiz-adv-x="1075" 
 />
    <glyph glyph-name="psi" unicode="&#x3c8;" horiz-adv-x="1460" 
 />
    <glyph glyph-name="omega" unicode="&#x3c9;" horiz-adv-x="1599" 
 />
    <glyph glyph-name="iotadieresis" unicode="&#x3ca;" horiz-adv-x="455" 
 />
    <glyph glyph-name="upsilondieresis" unicode="&#x3cb;" horiz-adv-x="1120" 
 />
    <glyph glyph-name="omicrontonos" unicode="&#x3cc;" 
 />
    <glyph glyph-name="upsilontonos" unicode="&#x3cd;" horiz-adv-x="1120" 
 />
    <glyph glyph-name="omegatonos" unicode="&#x3ce;" horiz-adv-x="1599" 
 />
    <glyph glyph-name="afii10023" unicode="&#x401;" horiz-adv-x="1367" 
 />
    <glyph glyph-name="afii10051" unicode="&#x402;" horiz-adv-x="1771" 
 />
    <glyph glyph-name="afii10052" unicode="&#x403;" horiz-adv-x="1109" 
 />
    <glyph glyph-name="afii10053" unicode="&#x404;" horiz-adv-x="1472" 
 />
    <glyph glyph-name="afii10054" unicode="&#x405;" horiz-adv-x="1366" 
 />
    <glyph glyph-name="afii10055" unicode="&#x406;" horiz-adv-x="569" 
 />
    <glyph glyph-name="afii10056" unicode="&#x407;" horiz-adv-x="569" 
 />
    <glyph glyph-name="afii10057" unicode="&#x408;" horiz-adv-x="1024" 
 />
    <glyph glyph-name="afii10058" unicode="&#x409;" horiz-adv-x="2165" 
 />
    <glyph glyph-name="afii10059" unicode="&#x40a;" horiz-adv-x="2069" 
 />
    <glyph glyph-name="afii10060" unicode="&#x40b;" horiz-adv-x="1749" 
 />
    <glyph glyph-name="afii10061" unicode="&#x40c;" horiz-adv-x="1193" 
 />
    <glyph glyph-name="afii10062" unicode="&#x40e;" horiz-adv-x="1301" 
 />
    <glyph glyph-name="afii10145" unicode="&#x40f;" horiz-adv-x="1472" 
 />
    <glyph glyph-name="afii10017" unicode="&#x410;" horiz-adv-x="1366" 
 />
    <glyph glyph-name="afii10018" unicode="&#x411;" horiz-adv-x="1344" 
 />
    <glyph glyph-name="afii10019" unicode="&#x412;" horiz-adv-x="1366" 
 />
    <glyph glyph-name="afii10020" unicode="&#x413;" horiz-adv-x="1109" 
 />
    <glyph glyph-name="afii10021" unicode="&#x414;" horiz-adv-x="1387" 
 />
    <glyph glyph-name="afii10022" unicode="&#x415;" horiz-adv-x="1366" 
 />
    <glyph glyph-name="afii10024" unicode="&#x416;" horiz-adv-x="1891" 
 />
    <glyph glyph-name="afii10025" unicode="&#x417;" horiz-adv-x="1237" 
 />
    <glyph glyph-name="afii10026" unicode="&#x418;" horiz-adv-x="1472" 
 />
    <glyph glyph-name="afii10027" unicode="&#x419;" horiz-adv-x="1472" 
 />
    <glyph glyph-name="afii10028" unicode="&#x41a;" horiz-adv-x="1193" 
 />
    <glyph glyph-name="afii10029" unicode="&#x41b;" horiz-adv-x="1344" 
 />
    <glyph glyph-name="afii10030" unicode="&#x41c;" horiz-adv-x="1706" 
 />
    <glyph glyph-name="afii10031" unicode="&#x41d;" horiz-adv-x="1479" 
 />
    <glyph glyph-name="afii10032" unicode="&#x41e;" horiz-adv-x="1593" 
 />
    <glyph glyph-name="afii10033" unicode="&#x41f;" horiz-adv-x="1472" 
 />
    <glyph glyph-name="afii10034" unicode="&#x420;" horiz-adv-x="1366" 
 />
    <glyph glyph-name="afii10035" unicode="&#x421;" horiz-adv-x="1479" 
 />
    <glyph glyph-name="afii10036" unicode="&#x422;" horiz-adv-x="1251" 
 />
    <glyph glyph-name="afii10037" unicode="&#x423;" horiz-adv-x="1301" 
 />
    <glyph glyph-name="afii10038" unicode="&#x424;" horiz-adv-x="1557" 
 />
    <glyph glyph-name="afii10039" unicode="&#x425;" horiz-adv-x="1366" 
 />
    <glyph glyph-name="afii10040" unicode="&#x426;" horiz-adv-x="1515" 
 />
    <glyph glyph-name="afii10041" unicode="&#x427;" horiz-adv-x="1365" 
 />
    <glyph glyph-name="afii10042" unicode="&#x428;" horiz-adv-x="1877" 
 />
    <glyph glyph-name="afii10043" unicode="&#x429;" horiz-adv-x="1920" 
 />
    <glyph glyph-name="afii10044" unicode="&#x42a;" horiz-adv-x="1621" 
 />
    <glyph glyph-name="afii10045" unicode="&#x42b;" horiz-adv-x="1813" 
 />
    <glyph glyph-name="afii10046" unicode="&#x42c;" horiz-adv-x="1344" 
 />
    <glyph glyph-name="afii10047" unicode="&#x42d;" horiz-adv-x="1472" 
 />
    <glyph glyph-name="afii10048" unicode="&#x42e;" horiz-adv-x="2069" 
 />
    <glyph glyph-name="afii10049" unicode="&#x42f;" horiz-adv-x="1479" 
 />
    <glyph glyph-name="afii10065" unicode="&#x430;" 
 />
    <glyph glyph-name="afii10066" unicode="&#x431;" horiz-adv-x="1173" 
 />
    <glyph glyph-name="afii10067" unicode="&#x432;" horiz-adv-x="1088" 
 />
    <glyph glyph-name="afii10068" unicode="&#x433;" horiz-adv-x="747" 
 />
    <glyph glyph-name="afii10069" unicode="&#x434;" horiz-adv-x="1195" 
 />
    <glyph glyph-name="afii10070" unicode="&#x435;" 
 />
    <glyph glyph-name="afii10072" unicode="&#x436;" horiz-adv-x="1370" 
 />
    <glyph glyph-name="afii10073" unicode="&#x437;" horiz-adv-x="939" 
 />
    <glyph glyph-name="afii10074" unicode="&#x438;" horiz-adv-x="1144" 
 />
    <glyph glyph-name="afii10075" unicode="&#x439;" horiz-adv-x="1144" 
 />
    <glyph glyph-name="afii10076" unicode="&#x43a;" horiz-adv-x="896" 
 />
    <glyph glyph-name="afii10077" unicode="&#x43b;" horiz-adv-x="1195" 
 />
    <glyph glyph-name="afii10078" unicode="&#x43c;" horiz-adv-x="1408" 
 />
    <glyph glyph-name="afii10079" unicode="&#x43d;" horiz-adv-x="1131" 
 />
    <glyph glyph-name="afii10080" unicode="&#x43e;" 
 />
    <glyph glyph-name="afii10081" unicode="&#x43f;" horiz-adv-x="1109" 
 />
    <glyph glyph-name="afii10082" unicode="&#x440;" 
 />
    <glyph glyph-name="afii10083" unicode="&#x441;" horiz-adv-x="1024" 
 />
    <glyph glyph-name="afii10084" unicode="&#x442;" horiz-adv-x="938" 
 />
    <glyph glyph-name="afii10085" unicode="&#x443;" horiz-adv-x="1024" 
 />
    <glyph glyph-name="afii10086" unicode="&#x444;" horiz-adv-x="1685" 
 />
    <glyph glyph-name="afii10087" unicode="&#x445;" horiz-adv-x="1024" 
 />
    <glyph glyph-name="afii10088" unicode="&#x446;" horiz-adv-x="1173" 
 />
    <glyph glyph-name="afii10089" unicode="&#x447;" horiz-adv-x="1067" 
 />
    <glyph glyph-name="afii10090" unicode="&#x448;" horiz-adv-x="1643" 
 />
    <glyph glyph-name="afii10091" unicode="&#x449;" horiz-adv-x="1685" 
 />
    <glyph glyph-name="afii10092" unicode="&#x44a;" horiz-adv-x="1280" 
 />
    <glyph glyph-name="afii10093" unicode="&#x44b;" horiz-adv-x="1472" 
 />
    <glyph glyph-name="afii10094" unicode="&#x44c;" horiz-adv-x="1067" 
 />
    <glyph glyph-name="afii10095" unicode="&#x44d;" horiz-adv-x="1045" 
 />
    <glyph glyph-name="afii10096" unicode="&#x44e;" horiz-adv-x="1536" 
 />
    <glyph glyph-name="afii10097" unicode="&#x44f;" horiz-adv-x="1109" 
 />
    <glyph glyph-name="afii10071" unicode="&#x451;" 
 />
    <glyph glyph-name="afii10099" unicode="&#x452;" 
 />
    <glyph glyph-name="afii10100" unicode="&#x453;" horiz-adv-x="747" 
 />
    <glyph glyph-name="afii10101" unicode="&#x454;" horiz-adv-x="1045" 
 />
    <glyph glyph-name="afii10102" unicode="&#x455;" horiz-adv-x="1024" 
 />
    <glyph glyph-name="afii10103" unicode="&#x456;" horiz-adv-x="455" 
 />
    <glyph glyph-name="afii10104" unicode="&#x457;" horiz-adv-x="569" 
 />
    <glyph glyph-name="afii10105" unicode="&#x458;" horiz-adv-x="455" 
 />
    <glyph glyph-name="afii10106" unicode="&#x459;" horiz-adv-x="1856" 
 />
    <glyph glyph-name="afii10107" unicode="&#x45a;" horiz-adv-x="1664" 
 />
    <glyph glyph-name="afii10108" unicode="&#x45b;" 
 />
    <glyph glyph-name="afii10109" unicode="&#x45c;" horiz-adv-x="896" 
 />
    <glyph glyph-name="afii10110" unicode="&#x45e;" horiz-adv-x="1024" 
 />
    </font>
</defs>
</svg>
