<svg xmlns="http://www.w3.org/2000/svg" viewBox="0 0 100 100"><defs><style>.a{fill:#231f20;}</style></defs><title>Artboard 1 copy</title><path class="a" d="M43.05,9.81V29.5H62v5H43.05V54.38H37.69V34.53H18.75v-5H37.69V9.81Z"/><path class="a" d="M31.37,19.79V39.48H50.3v5H31.37V64.36H26V44.5H7.07v-5H26V19.79Z"/><path d="M74.5,65.15a7.62,7.62,0,0,1,0-15.23,7.62,7.62,0,1,1,0,15.23Zm0-14.43a6.82,6.82,0,0,0,0,13.63h0a6.77,6.77,0,0,0,4.82-2,6.68,6.68,0,0,0,2-4.81A6.82,6.82,0,0,0,74.5,50.72Z"/><path d="M96.15,86.8H52.85a.4.4,0,0,1-.4-.4V43.11a.4.4,0,0,1,.4-.4h43.3a.4.4,0,0,1,.4.4V86.4A.4.4,0,0,1,96.15,86.8ZM53.26,86H95.74V43.51H53.26Z"/><path d="M81.72,94a.4.4,0,0,1-.41-.4V79.18a6.81,6.81,0,0,0-13.62,0V93.61a.41.41,0,0,1-.81,0V79.18a7.62,7.62,0,0,1,15.24,0V93.61A.4.4,0,0,1,81.72,94Z"/></svg>