<svg xmlns="http://www.w3.org/2000/svg" viewBox="0 0 24 24"><title>arrow-left</title><path d="M16.87,4.72l.07-1.52c-1.22-.11-1.88.85-2.69,1.38-1.83,1.19-3.59,2.48-5.34,3.79a1.31,1.31,0,0,0-.39,1.08c.16.79.06,1.41-.69,1.78-.6.3-.44.61-.12,1a34.7,34.7,0,0,1,5,7A11.78,11.78,0,0,0,14,20.84L13.7,21c-1.16-1.51-2.32-3-3.49-4.55-.7-.89-1.42-1.77-2.13-2.67s-1.38-1.73-2-2.62-.15-1.66.82-2.29C8.31,8,9.7,7,11.11,6c2-1.4,4-2.88,6.06-4.18a3.37,3.37,0,0,1,2.09,0c.19,0,.4.72.36,1.07A2.76,2.76,0,0,1,16.87,4.72ZM8.22,10.05c-.48-.21-.73-.42-.91-.38s-.42.33-.63.51c.2.17.41.48.61.48S7.75,10.37,8.22,10.05Z"/></svg>