<svg xmlns="http://www.w3.org/2000/svg" viewBox="0 0 24 24"><title>arrow-right</title><path d="M8.56,17.92l-.07,1.51c1.22.12,1.88-.84,2.69-1.37,1.83-1.19,3.59-2.49,5.34-3.8a1.3,1.3,0,0,0,.39-1.07c-.16-.79-.06-1.41.69-1.78.6-.3.44-.61.12-1a34.42,34.42,0,0,1-5-7,12.32,12.32,0,0,0-1.2-1.62l.25-.18q1.74,2.28,3.49,4.55c.7.9,1.42,1.78,2.13,2.67s1.38,1.73,2,2.63.16,1.66-.81,2.28c-1.44.93-2.83,1.93-4.24,2.91-2,1.4-4,2.88-6.06,4.17a3.37,3.37,0,0,1-2.09,0c-.19,0-.4-.71-.36-1.07A2.75,2.75,0,0,1,8.56,17.92Zm8.65-5.33c.48.21.73.42.91.37s.42-.33.63-.5c-.21-.17-.41-.48-.62-.48S17.68,12.27,17.21,12.59Z"/></svg>